<mxfile host="65bd71144e">
    <diagram id="zOsBUlOQxNhnEtaMxW5K" name="ページ1">
        <mxGraphModel dx="1157" dy="1114" grid="1" gridSize="10" guides="1" tooltips="1" connect="1" arrows="1" fold="1" page="1" pageScale="1" pageWidth="827" pageHeight="1169" math="0" shadow="0">
            <root>
                <mxCell id="0"/>
                <mxCell id="1" parent="0"/>
                <mxCell id="3" value="" style="shape=image;verticalLabelPosition=bottom;labelBackgroundColor=#ffffff;verticalAlign=top;aspect=fixed;imageAspect=0;image=data:image/png,iVBORw0KGgoAAAANSUhEUgAAAlgAAAGQCAYAAAByNR6YAAAAOXRFWHRTb2Z0d2FyZQBNYXRwbG90bGliIHZlcnNpb24zLjMuNCwgaHR0cHM6Ly9tYXRwbG90bGliLm9yZy8QVMy6AAAACXBIWXMAAA9hAAAPYQGoP6dpAADQq0lEQVR4nOzdd5xdVb3w/8+up58zPZNJTyAhQELoBDRIUBGly1VQIT54latgwatX9PrDB/UR8FFRwYKKDwiooChXRECKEgVpIdRQ0sv0mdPbruv3x56cZJhJm5xJY71fL15k9tl77bXXSc75zirfpQghBJIkSZIkSVLdqHu7ApIkSZIkSQcaGWBJkiRJkiTVmQywJEmSJEmS6kwGWJIkSZIkSXUmAyxJkiRJkqQ6kwGWJEmSJElSnckAS5IkSZIkqc5kgCVJkiRJklRnMsCSJEmSJEmqMxlgSZIkSZIk1ZkMsCRJkiRJkupMBliSJEmSJEl1JgMsSZIkSZKkOpMBliRJkiRJUp3JAEuSJEmSJKnOZIAlSZIkSZJUZzLAkiRJkiRJqjMZYEmSJEmSVFfd3d3MmzePZcuW7e2q1CxevJgrr7yy9vPSpUs58sgjSafT43I/GWBJkiRJklRXP/rRjzjiiCM4+uija8fWrFnDt771LS644ALmzZvHnDlz2LRp05jKX7VqFTfccMOYrwdYtGgRU6dO5aabbhpzGdsjAyxJkiRJkuomnU5zzz33cMEFFww7/vzzz3PbbbdRKpWYNWvWbt1j1apV3HjjjXR2du5WOR/84Ae58847KRaLu1XOaGSAJUmSJElS3fzpT39C0zROOeWUYccXL17MM888w7333suZZ565l2o33GmnnYZt2zzwwAN1L1sGWJIkSZK0l9xwww3MmTOHtWvX8oUvfIGjjz6aE044ge9///sIIeju7uaTn/wkRx11FCeddBK//OUvR5Rh2zY//OEPede73sXhhx/OySefzLe//W1s2x523t13383FF1/MwoULOfzww3nve9/Lr3/96xHlLV68mEsvvZRnn32W888/n3nz5nHqqadyzz337NQzPfzww8yfP59YLDbseENDA/F4fKfKuO+++zjvvPM48sgjOeqoozjzzDO59dZbAfjDH/7AZz/7WQAuvvhi5syZw5w5c3jqqacAEELw4x//mEWLFnHEEUdw0UUXsXLlylHv09zczJw5c3jkkUd2ql67Qq97iZIkSZIk7ZIrrriCWbNm8Z//+Z889thj/OQnP6GhoYHf/va3nHDCCXzhC1/g3nvv5brrrmPevHkce+yxAPi+zyc/+UmWLVvGBz7wAWbNmsUbb7zBrbfeyrp16/jxj39cu8dvfvMbDj74YBYvXoyu6/ztb3/j6quvRgjBhz/84WH1Wb9+PZ/97Gc5//zzOffcc7n77ru58sorOeywwzj44IO3+RyO4/DSSy9x4YUXjrktHn/8cT7/+c+zcOFCvvCFLwDB/K3nnnuOJUuWcOyxx3LRRRdx22238R//8R/MnDkToDbs+IMf/ICf/OQnnHzyyZx88sm88sorXHLJJTiOM+r9DjvsMB5++OEx13ebhCRJkiRJe8UPf/hDMXv2bPH//X//X+2Y67pi0aJFYs6cOeKmm26qHc/lcmL+/PniS1/6Uu3YPffcIw455BDxzDPPDCv3N7/5jZg9e7ZYtmxZ7VilUhlx/0suuUSceuqpw46dcsopYvbs2cPKHBwcFIcffri49tprt/s869evF7Nnzxa33Xbbds/7xS9+IWbPni02btw44rVvfvOb4qijjhKu627z+vvvv1/Mnj1bPPnkk8OODw4OisMOO0x84hOfEL7v145/73vfE7Nnzx7Wdpv99Kc/FbNnzxYDAwPbrfOukkOEkiRJkrSXnX/++bU/a5rG4YcfjhBi2PFkMsmMGTPYuHFj7dgDDzzArFmzmDlzJul0uvbfCSecAFAbNgMIh8O1PxcKBdLpNMcddxwbN26kUCgMq89BBx3EMcccU/u5qalpxL1Hk81ma3Udq2QySaVS4fHHH9/la5944gkcx+EjH/kIiqLUji9ZsmS79wPIZDK7XtntkEOEkiRJkrSXdXR0DPs5kUgQCoVoamoacXxzEAPBUN7q1atZuHDhqOUODg7W/rxs2TJuuOEGnn/+eSqVyrDzCoUCiUSi9vPEiRNHlJVKpcjlcjv1PEKInTpvNB/60Ie4//77+fjHP86ECRM46aSTOP3001m0aNEOr+3q6gJg+vTpw443NTWRSqW2W9etA7J6kAGWJEmSJO1lqjpyQEnTtFHP3Tp48X2f2bNn8+Uvf3nUc9vb2wHYsGEDH/3oR5k5cyZXXnklEydOxDAMHnvsMW655RZ839+pe+9IQ0MDAPl8fkzXQzDx/J577uGf//wnS5cuZenSpfzhD3/gnHPO4brrrhtzuduyua6NjY11LVcGWJIkSZK0n5o6dSqvvfYaCxcu3G4PzKOPPopt2/zkJz8Z1lu29RBiPUycOJFwOLxbCUABTNNk8eLFLF68GN/3+d//+39z55138qlPfYpp06Zt81k3P9u6deuYMmVK7Xg6nd5m79umTZtobGwc0Vu4u+QcLEmSJEnaT51++un09vZy1113jXitWq1SLpeBLT1SW/d+FQoF7r777rrWxzAMDj/8cF5++eUxl/HmuVCqqjJnzhyAWuqJSCQCMGLu2IknnohhGNx+++3DnnVziofRvPLKKyxYsGDM9d0W2YMlSZIkSfups88+m/vvv5+vfe1rPPXUUxx11FF4nseaNWt44IEH+MUvfsG8efM46aSTMAyD//iP/+CCCy6gVCrxu9/9jubmZvr7++tap1NPPZXrr7+eYrE4LO9VoVDgtttuA+C5554D4I477iCRSJBMJvnIRz4CwFe/+lVyuRwnnHACEyZMoKuri9tvv525c+fWUjHMnTsXTdP4+c9/TqFQwDRNTjjhBJqbm7nkkku46aabuPTSSzn55JNZsWIFS5cuHXUIcHBwkNdff50PfehDdW0DkAGWJEmSJO23VFXlRz/6Ebfccgv/8z//w0MPPUQkEmHy5MlcdNFFzJgxA4CZM2fywx/+kO9///tcd911tLS0cOGFF9LU1MRXvvKVutbp7LPP5rvf/S6PPPIIZ599du14LpfjBz/4wbBzNydOnTRpUi3AOuuss7jrrrv49a9/TT6fp7W1ldNPP51Pf/rTtblqra2tXH311dx0003893//N57n8atf/Yrm5mY+97nPYZomv/3tb3nqqaeYP38+v/zlL7n00ktH1PWvf/0rpmly+umn17UNABSxO1P9JUmSJEmS3uQrX/kK69atGzVT/L7knHPO4bjjjqt7kAlyDpYkSZIkSXV2+eWX89JLL7Fs2bK9XZVtWrp0KevXrx+1Z6seZA+WJEmSJElSnckeLEmSJEmSpDqTAZYkSZIkSVKdyQBLkiRJkiSpzmSAJUmSJEmSVGcyD9YYLV++HCEEhmHs7apIkiRJklQHjuOgKApHHnnkbpcle7DGSAixW7uFb6tM27brXq40Otnee5Zs7z1HtvWeJdt7zxrP9q7nd7vswRqjzT1X8+bNq1uZ5XKZV199lYMOOohoNFq3cqXRyfbes2R77zmyrfcs2d571ni290svvVS3smQPliRJkiRJUp3JAEuSJEmSJKnOZIAlSZIkSZJUZzLAkiRJkiRJqjMZYEmSJEmSJNWZXEUoSZIkSbvA8zwcx6n9bFlW7f+qKvstxttY29swDDRNG69qjSADLEmSJEnaCUIIenp6yGazw477vo+u63R1dckAaw/YnfZuaGigvb0dRVHGqXZbyABLkiRJknbC5uCqra2NaDRa+5L2PA/LsgiFQnu0h+StaiztLYSgXC7T19cHwMSJE8ezioAMsCRJkiRphzzPqwVXzc3NI14DCIfDMsDaA8ba3pFIBIC+vj7a2trG/b2SfZmSJEmStAOb51zJTO37t83v39Zz6MaLDLAkSZIkaSftibk70vjZk++fDLAkSZIkSZLqTAZYkiRJkvQW8vDDD3PHHXfUtczFixfz9a9/fZevmzNnDjfffHNd67KvkJPcJUmSJOkt5OGHH+bll1/mwx/+cN3KvPHGG0kmk7t83Z133klHR0fd6rEvkQGWJEmSJEnDCCFwHAfTNHfq/EMPPXRM91mwYMGYrtsfyCFCSZIkSXqLuPLKK/njH//IypUrmTNnDnPmzOHKK6/kyiuv5IwzzuCxxx7jrLPOYt68eTz66KOUy2W+/vWvc9ppp3HEEUewePFirrrqKgqFwrBy3zxEuLm8p556inPOOYcFCxZw/vnn8/LLLw+77s1DhBdddBGXXnopDzzwAKeddhpHHnkkF198MRs2bBh2XW9vL5/85Cc54ogjOPnkk7nlllv4P//n/7B48eJxaLWxkT1YkiRJkvQW8alPfYp0Os2aNWv4zne+A0BTUxM//vGP6evr45vf/Caf/OQnmThxIh0dHVSrVTzP44orrqCpqYnu7m5++tOf8qlPfYrbbrttu/fq7+/nm9/8Jp/4xCdIJBJ897vf5fLLL+ehhx7CMIxtXvfqq6+STqf5whe+gOd5XHvttXzxi1/kzjvvBILetSuuuIJMJsPVV19NIpHg5ptv3ucy6csAS5IkSZLGSAhB1Xap2h6oLpoq9uj9Q6a2S6kHpk6dSlNTE11dXSOG53K5HD//+c854ogjhh2/+uqra392XZfJkyfzoQ99iLVr1zJjxoxt3iuXy3H77bdz8MEHA0Giz4svvpgXXniBY445ZpvXFQoF7rnnHpqamgAol8t8+ctfpqenh/b2dpYuXcprr73Gr371K44//ngATjjhBE4++eQxzQMbLzLAkiRJkqQxEELwpRv/yavr0nutDnOnN3Hd5W+rS36nhoaGEcEVwD333MMtt9zC+vXrKZfLtePr1q3bboDV1tZWC64ADjroICAY3tueQw45pBZcbX3d5gDr5ZdfJpFIDAvSYrEYCxcu5JVXXtnBU+45MsCSJEmSJImWlpYRxx566CG+9KUv8cEPfpArrriChoYG+vv7ueyyy7Asa7vlvbk3afOw4O5e19/fT2Nj44jrtg7K9gUywJIkSZKkMVAUhesufxvlqk21ahEOh9DUPbsX4a4OEW7PaOU88MADzJ07d9gE9qeffrou9xur1tZWMpnMiOPp9N7rSRyNDLAkSZIkaYwURSFs6uC7hE19v9js2TCMHfYibVatVkdMSL/33nvHo1o77fDDD6dQKPDss8/W5mCVSiX+9a9/7VNzsPad6faSJEmSJI27WbNm0dnZyZ///GdeeuklNm3atM1zTzzxRF588UV+9KMf8cQTT3DNNdfwr3/9aw/WdqRFixZxyCGH8MUvfpF77rmHRx99lI9//OPEYrF9aq9I2YMlSZIkSW8h559/Pi+++CLf+MY3yGaznHvuuds894ILLmDTpk3cfvvt3HzzzbztbW/ju9/9Lh/4wAf2YI2HUxSF66+/nmuuuYarrrqKZDLJxRdfzNq1a3n11Vf3Wr3eTBFC7Nk1pQeIl156CYB58+bVrcxyucyrr77K3LlziUajdStXGp1s7z1LtveeI9u6/qrVai0tQTgcHvaa53lUq1XC4fB+MUS4vxutvW3b5n3vex/HHHMM11xzzTav3d77CPX9bpc9WJIkSZIk7VfuvvtuNE1j1qxZ5PN5fvOb39DZ2cn3vve9vV21GhlgSZIkSZK0XwmFQtxyyy10dXUBQe6sm266qa6jSrtLBliSJEmSJO1XzjjjDM4///x9ekhWriKUJEmSJEmqMxlgSZIkSZIk1ZkMsCRJkiRJkupsvwqw1q9fz1VXXcXZZ5/NoYceyhlnnLFT1wkh+NnPfsY73vEO5s+fzwc/+EGef/758a2sJEmSJElvWftVgLVy5Uoee+wxpk2bxqxZs3b6up///Of88Ic/5KMf/Sg33XQTra2tXHLJJWzcuHEcaytJkiRJ0lvVfhVgLV68mMcee4wf/vCHHHbYYTt1jWVZ3HTTTVxyySV89KMfZeHChXzve9+joaGBm2++eZxrLEmSJEnSW9F+FWCp6q5X97nnnqNYLHL66afXjpmmybve9S6WLl1az+pJkiRJkiQB+1mANRZr1qwBYObMmcOOz5o1i66uLqrV6t6oliRJkiTtFQ8//DB33HFH3cvN5/PccMMNrFq1qu5l748O+ESj+Xwe0zQJhULDjieTSYQQ5HK5Ufcj2hlCCMrlcj2qCUClUhn2f2l8yfbes2R77zmyrevPsix838fzPDzPG/ba5i19hRAjXtsXPfTQQ7z88stccMEFdS03m81y4403MmvWLGbMmFHXsre2O+3teR6+71OpVPB9f9SyFUWpSz0P+ABrPDmOMy47d69bt67uZUrbJtt7z5LtvefItq4vXdexLGubr2/vtX2J53kIIeo+grP5+R3H2SOjQ2Npb8uycF23Nro1GtM0d6daNQd8gJVMJrFtG8uyhvVi5fN5FEUhlUqNuWzDMDjooIPqUU0g+G1z3bp1TJ8+nUgkUrdypdHJ9t6zZHvvObKt68+yLLq6ugiFQiNGPYQQte+YevV+jJevfOUr3HvvvQAcddRRAJxzzjl861vf4vnnn+cHP/gBL774IpqmcfLJJ3PllVfS3Nxcu/7nP/85v//97+nt7SUWizFnzhy+/vWvoyhKLXXSf/3Xf9XOf+ihh5g0aVJdn2F321vXdaZOnTpiZAuo6/DmAR9gbZ57tXbtWg455JDa8TVr1tDR0THm4UEARVGIRqO7Xcc3i0Qi41KuNDrZ3nuWbO89R7Z1/aiqiqqqaJo2bP87IQRutYxwLIQK6h7eG08xdi3IuOyyy8hkMqxZs4bvfOc7ADQ1NfHiiy+yZMkSTj75ZK6//noqlQrf//73+fSnP82dd94JwD333MMNN9zAZz7zGRYsWEChUGDZsmVUKhVmzpzJjTfeyOWXX87nP/95jj/+eADa29vrvl/g5mFBRVF2uWxN01BVlUgkMur3fz0D5AM+wDrqqKOIx+Pcf//9tQDLcRz++te/smjRor1cO0mSJGl/JYSg61f/jbXp9b1Wh9DkQ+i4+Js7HRhMnTqVpqYmurq6WLBgQe34V77yFQ4//HBuvPHGWlmzZ8/mjDPO4LHHHuPkk0/mxRdfZM6cOVx66aW16975znfW/jx37lwApk2bNqzst6r9ahVhpVLhgQce4IEHHqCzs5NisVj7OZ1OA7BkyRLe9a531a4JhUJceuml/PKXv+TWW2/lX//6F//5n/9JNpvlYx/72N56FEmSJOmAsG8PCe6MSqXCc889x3ve8x48z8N1XVzXZfr06UycOJGXXnoJgEMPPZQVK1ZwzTXX8Oyzz+I4zl6u+b5tv+rBGhwc5LOf/eywY5t//tWvfsXxxx9fW+WxtY9//OMIIfjlL39JOp1m7ty53HzzzUyZMmWP1V2SJEk6sCiKQsfF38Stlmtzguo9HLbDOuziEOFo8vk8nudxzTXXcM0114x4vbu7G4DzzjuPUqnEXXfdxS233EIikeCcc87hC1/4wm5NtzlQ7VcB1uTJk3n99e13xd52220jjimKwqWXXjqsW1OSJEmSdpeiKKhmGMUH1Qzv8TlY9ZBIJGrfk1sP+W3W2NgIBPPQlixZwpIlS+jt7eW+++7ju9/9Lo2NjVx22WV7utr7vP0qwJIkSZIkafcYhjEsxUE0GmXBggWsWbOGefPm7VQZEyZM4JJLLuHPf/5zLeWBYRjA/pOuYrzJAEuSJEmS3kJmzZrF3XffzZ///GemTZtGY2Mj//Vf/8WSJUv43Oc+x/ve9z6SySQ9PT088cQTnHfeeRx//PFcddVVJJNJFixYQDKZ5LnnnuO1117jwgsvBKC1tZVkMsl9993H5MmTMU2TOXPm1C2v1P5GBliSJEmS9BZy/vnn8+KLL/KNb3yDbDbLueeey7XXXsuvf/1rbrjhBr785S/jOA7t7e2ccMIJTJs2DYAjjzySu+66i9/97ndUKhWmTJnCl7/8Zf7t3/4NCIYQr7nmGr73ve/x0Y9+FNu2eeSRR5g8efLefNy9RgZYkiRJkvQWEo/H+d73vjfi+Lx58/jZz362zevOPfdczj333O2W/c53vnPUeVxvRftVmgZJkiRJkqT9gQywJEmSJEmS6kwGWJIkSZIkSXUmAyxJkiRJkqQ6kwGWJEmSJElSnckAS5IkSZJ2khBib1dB2g178v2TAZYkSZIk7cDmLOXlcnkv10TaHZvfv83v53iSebAkSZIkaQc0TaOhoYG+vj4g2F5m8ybLnufVtofZ05s9vxWNpb2FEJTLZfr6+mhoaNgj75MMsCRJkiRpJ7S3twPUgqzNfN/HdV10XUdV5cBQvQkBQ7EsQgiEEGNu74aGhtr7ON5kgCVJkiRJO0FRFCZOnEhbWxuO49SOVyoV1qxZw9SpU4lEInuxhgcW3xf0psvYrsfk1jieL9jYm8eyHQqFHg6fO4VYLLrT5RmGsUd7GGWAJUmSJEm7QNO0YV/Uvu8DEAqFCIfDe6taBxTfF3T1F+nJ2AghiEU8XM8nVxb4nqA743Ao2j7d3jLAkiRJkiRpn+C4Pul8lYFsmXzJIRE1QEDXQAlf+DQkQri2gucL9vX1nDLAkiRJkiRpr/J8QbFs09lfJFuwCJkajYkQuhbMsfKEQEXH1DVcey9XdifJAEuSJEmSpHGXL9lk8lUmT0igqQqu51Mo2xTLDtmiRbnqogAtqQiqqgy7NhYe/7QK9SYDLEmSJEmS6sJyPFRFwdCDnifX89E1Fc/z6ewvkM5XCZkazakwazrzZAoVEBA2dVIxs9ZjdSCQAZYkSZIkSbutULZZ150nEtKZ0ZGiYrms787TmAihaSqZvEXENOjqL5Iv2QzmKjSnImhv6q06UMgAS5IkSZKkMfN9QaZQZWNvgartUSjZhE2NXNEiV7LJlyxMQyMS0klETQZyFQayFZqS4QM2uAIZYEmSJEmStIscN5g/5bg+uaJFOl/B0DVaUhEqVZfOviK+ELSkIvi+oGK5xCPBPKrmZBgBqMqOgyshRC1jvuV4vLouTVdfnlyuOp6PVxcywJIkSZIkaads7q3qGSyRL9kogKqqNMTDtflTkbCOooBhaKiKgqopJKJmrQxFUdhWaLV1QLXstV7+Z+kajprTyqnHTOVHd79Ab3rLXpAfKtu0NY/Xk+4+GWBJkiRJkrRNhbKN7Xjomkp/Nhje0zWV5uTI1X6bhUO7Hl68viHDXQ+/gRCCmZNSLHst2JLoseWdPPlyD5bjEY8aHDQpSUipDgva9kUywJIkSZIkaVS5osXqziyWHawO9IWgIR6urRIcKyEEmYJFYyIEwJ/+sYa/P7ep9vrm4GrerBZWrBusBVeXn7+ARFjhpddW79b99wQZYEmSJEnSW4wQgnLVpVQN9lTUNZVE1ETXFLJFi0LJwTRUetNlPFfQ2hDFF2Kn5k3tiO163HrfClasTTNvVgupuMk/X+gC4G1HdDCjI8WLq/qZNamBtx3RwdruPE+/0sPJR01mQlOUcrmy23XYE2SAJUmSJElvIYWyTe9giWzRxnE8Nk+IikdNElGTvnQZzw82otF1hYahXqbdCa5sx+MfL3RSLDus686zrjsPwEurB2rnXPCuORx/WDsAR81pqx2f2ZFiZkdqzPfeW2SAJUmSJEkHKNvxyJdsNE1BiGDIL52r4ng+yaiJGQ+CJ18IimWHnoEiiWiIkKntoOQdK5SDzO3xqMlt979aC6oAwqbGWW+fxSPPbmAwV+XcdxxUC64OFDLAkiRJkqQDULnqsL47T6ZgDa3MC4b4YhGDlBkadq6qKCRjJjD2ieOvrUvz6ro0Ha1ximWbB59aj+P6tdejIZ3jDmtHUeC4Q9tpb45xzNwJFEo2TanwmO+7r5IBliRJkiTth9L5Kr3pEs2pCCFDw/V8DF0jFjHIFqp09hcpV5za3n5bp0DYXVuXlclXueuRN3htfWbEeZGQTsVyaUmF+fezD2dCU2zY64auHpDBFexnAdbq1av55je/yfLly4nFYpx99tl87nOfwzS3H3EXCgW+/e1v89e//pVqtcr8+fP5yle+wty5c/dQzSVJkiSpfoQQ9GcqpHNVMnkLTVXwfYGqqcTCOqWqg66qNKcitUCoXsHVhp48v7r/VUxd45i5E/jbso0UKw6aqrBgdiu96TK243HqsVM5du4EqpZHOKTV7f77i/0mwMrlcixZsoTp06dzww030Nvby7XXXku1WuWqq67a7rWf//znefnll/niF79IS0sLt9xyC0uWLOF//ud/mDhx4h56AkmSJEnadUIIsgWrNtzWlApTsVxyRYumZARdU2qZ0V3Xp2y5JCImprH786iEEJQqDoqiUKzYvLxmkAf+tQ7XCybB3/vPNQBMao2z5L1zaW2MjigjEq5vqFGxXVQF9vVddvabAOu3v/0tpVKJG2+8kYaGBgA8z+Pqq6/m0ksvZcKECaNe9/zzz7N06VJ+8pOfsHjxYgCOP/54Tj31VG6++Wa++tWv7qlHkCRJkqRd1psus6GngO/7eAImVmKoqoLv+7V8VJtjDV1XSeq7l4CzZ7DEmq4c67sLvLEhQ7ZojTjnsJnNTGtP8MRL3Rw8uYHzFx9cl4CuYrmUKg4NiRC6piKEQAiC5x0KNF3PpyWpExlDMtM9ad+u3VaWLl3KwoULa8EVwOmnn87XvvY1Hn/8cc4777xRr1uxYgWKonDSSSfVjkUiEY455hj+9re/yQBLkiRJ2ie4no+uqXi+IJ2r1npqOvtLhE2NWDiM4/r0DJYIGRqxcH0zmduOx5/+sYbHX+wa9XVdU5jRkWL+QS2cOL8DVVF413HTxny/quWiagqmrtUSj6pqkBYina+SioXIlSxUFVRFxfV8UnGT5rYwnd7APj/kuN8EWGvWrOH973//sGPJZJLW1lbWrFmzzets20ZVVTRteGRtGAadnZ1Uq1XC4QNzgp0kSZK073Ncj+6BMplClVhEx/MhnaugKMHE9GjYIBYONko2dJWGRIhy1SUcGluP0UurBnh+Zf9QL5HCyo1ZMnmLqu1StT0ADp7SwJQJCQ6e0sDMSSl0Negp29bWOLtCCEG2GKxstMseLQ3BBtGGrjJzUopoWEfpVEjnK7Q3x2hIhOjPVgjpKh2tcVzHonO3azH+9psAK5/Pk0wmRxxPpVLkcrltXjdt2jQ8z2PFihXMnz8fAN/3efnllxFCkM/nxxxgCSEol8s7PnEnVSqVYf+Xxpds7z1LtveeI9t6z9qd9i5VHDb2FckVbaIhnULBRwDJqIGmKQSDfx7VqjfsurAOljVy6G5rvi/423Od+AJmT0nhC8Hy1wd45rX+bV6TiBr82ymzOHjKlsSevutg7/KTbVu6UCUS0mlvitI96DCQLmA5HtPa4xiqh2N7tKV0YqEwDXEdVfWZ0hKklXAda1z/ftdzpeV+E2CN1UknncTUqVP52te+xnXXXUdzczM/+9nP2LhxI7B7qyocx+HVV1+tV1Vr1q1bV/cypW2T7b1nyfbec2Rb71k7295ly8PzQQjozzk4niARUSlu9X2UHdz9+jy/psTTb5QAeHTZ8D6fuVMiKIDjCSY2GjQldXRVIRnV0L00a9eld78Co6jaPr4PHc0mvVWVQsmlc9AmElKJihCZvuHfyb3bKWu8/n7vKDPBztpvAqxkMkmhUBhxPJfLkUptO4W+aZpcf/31/Od//idnnnkmALNnz2bJkiXcdtttw+Z07SrDMDjooIPGfP2bVSoV1q1bx/Tp04lEInUrVxqdbO89S7b3niPbes/a2fZ2PZ/ewTKVTAXFE4BgUlwlFQ9t85qx6k2XWbbqZQBmTEzQk64QNjXaGiO8/Yh2Zk3ac1vPeL7Asr2h/7tM70jS1hi0k+f5tHYXaEiEaN7JfFjj+fd71apVdStrvwmwZs6cOWKuVaFQoL+/n5kzZ2732sMPP5wHHniA9evXI4Rg+vTpfP3rX+ewww7DMIwx10lRFKLRkUtSd1ckEhmXcqXRyfbes2R77zmyrfesze3t+YJMvkqhbGM7PhOaomiaQle6SDrv0pCMETb1ugxH2Y7Hyo1ZugaKFMoO09uT+ELw16fW4/mCQ2c08e9nHb5HJ4QLISiUHVzPx/N9FEUhEg7meyUiJpMmJNC2mst1aCw27OedNR5/v+vZTvtNgLVo0SJ++tOfDpuL9cADD6Cq6rAVgtuiKArTp08HIJ1O85e//IUvfvGL41llSZIk6S3GcT029hbpTZfQFBUUyBYtdFXB8XyaU5FaMLE7X+a5osV9j6/lhVX92M6W7Wj+sdX073jU4AOnzt6jwZXtemQLFomoQXMqgq6pxCImiaiBpqmjXjOW4Gp/sN8EWBdccAG33XYbl112GZdeeim9vb18+9vf5oILLhiWA2vJkiV0dXXx0EMP1Y795Cc/Ydq0aTQ3N7N27VpuuukmDj/88G2mdpAkSZKkXeV6Phs78wzmKjQlwuhDOaps18PzxG4PBVaqLulCld50mT/+fRXFigNAUzLMjI4ksbDB6s4ctuNxzNwJnDhvIvFofVM5bFa1XQplm8Z48JyFsk3VctF1jbamKJPb4oTN/SbEGBf7zdOnUiluvfVWvvGNb3DZZZcRi8U4//zzueKKK4ad5/s+njd8tUU+n+e6665jcHCQtrY2zjrrLD71qU+hqqNH05IkSZK0LUIIKpYLQDS8ZZpJX7rCYM4Z1ksFYOramL9tHdfnny908tzrfXT2FRFbvdbREuP9iw9mxsRk3XupbMcjXw7WDgZZ4VV8X6CoCo7rUyg7NMRDpAtVQkMJRmdNbiAWMYiE9Lqkc9jf7TcBFsCsWbO45ZZbtnvObbfdNuLYl770Jb70pS+NU60kSZKkt4p8yWZTX4Fy1UUBmlNhwoagUPGopsskE2ObT/RmvekyL60e4PEXu8gWtqRjiEcNoiGDQ2c08d4TZ9QyudeLLwS5ooUQ0NYYRVVgIFelUPFQlSCzOgRb47Q3R1nXnadQspnekaQ5JRdUbG2/CrAkSZIkaU+xHQ9NVWpzh4plm7VdOSzLIx4z8H1BT7qMZVl0pW2mRBjz9i2lqkOxbJMv2Tz8zEbe2JCpvdaQCPGuY6dy2MzmcVlxuJnleORKFsmoyeS2BKm4iaIotDRG8TwfbWjrGt8XxKMmmqowoyNJueqOa732VzLAkiRJkqSteJ5Pf7ZCz2CJcEhnQlMUx/HpSZeo2u6wnpqwqVOpQCak0pDY9flOtuvx8NMbePTZjXj+lgFAVVWYM7WRebNaOHpuWzDMWCdCCPIlG01ViEdNPM8nWwoyq3c0x5jYGq8N+wHEI9tebW/oGql4/ep2IJEBliRJkiQNKVUcOvuLDGQrREM6+YJNrmDh+YKwqdOUGJmrSVEUNFXZqXlQhaFesGkTk3QPlLj70ZUM5KpA0PulayqHzmji3cdNo2kn80JtT9VyyZZsQoZKLGygKAq5YpVYxMD1BH2ZYDeS5lSE9uYoyZi5z+/xt7+QAZYkSZL0llSxXEoVZ2hPPpWBbIWNvcG2Lc3JcG1o0PNFXeZVZQpVbvzdC6Tz1WHHUzGTc99xEPMPaql7cFOo2ExsiWE7LuWKiy8gFQ8xbWKQ7qh7sEQiYtKcCm8zjYI0NjLAkiRJkt5ShBB09RfpzZSpWsFmw7GIzqa+Eqau0vKmydq7E1z1pcusWJfGsl2efbWXdL5KyNSwbQ8UeNsRk3jvwumExzh3a3uqtoupa7Q3RYmEdCzHQwiBaWjoQ8HUrEkNdb+vFJABliRJknRAqVrusIDF9wXpfBXT0EjGTAplh87+EiFTozlpMJirMJAN0hFEwrv3tei6Pis3ZXljQ4bXN2ToHigNe70pGebyfzsCQ9dAiHHLUwXBpPz25hixoTlUY52AL42NbG1JkiTpgJErWmzsLTCpLU5jIozjenT2FekaLNEYDxGb2kimUMX3fWLhYI5Ta0O0LsOAf3+uk8ee76Zqb8nFqKoKs6c00JQMEw7pvP2ISTQkdn/Fne+LWq6piuVSrDpsTpKlIBAEE/BbGmTqhL1FBliSJEnSASOdrzKYr+J6Po7j058tkyvaJGMm2aJNb6bMYK5CLDy852hXgquq5fLK2kFmTWqoBUsb+i0eXNYHQDJmcuiMJg6e3MjsaY3bXYU3FrmiRdX2iEcMNFWhbDlMbo3Vkp66nkDXFCIhfVgiVGnPkgGWJEmSdEAoVx3S+SrNiTDFqsOariy6qtHSEEFVFCzbYzBbpWp5JBp2fWjO9Xz+8XwnjzyzgVLVJWRqnHHSDKa0RvjHywUA3r5gEuecPAt1nFbilaoOvoCp7Ql6Bsu4nsfU9gQdLXG5+m8fIwMsSZIkab9ULNt4viAS0jF0lVzRwrI9UrEQIVPD98WwlXGJqElftkwsZOxyMLKuK8ddj6ykezCYUxUyNCzb4+6/raqd05wKc8ZJM+oeXPm+wPMFpYqDJ3ymtSdrc6sqVYeJzTK42hfJAEuSJEnaL5QqDvmSTSJmUq46bOwp4Hg+IUNDUxVcz69N5FYUBU0bHnSoqjK0/cuOgxEhBGXLpWq5/P25TTz+QheCIOnmGW+bwdGHTODxF7v45wtdZAtB2oV/O2UmplG/pJtV260lBFVVlXhEp60pSuNQLq6mZBiSu58rSxofMsCSJEmS9nmO67GhJ89grkrI1PF8n7Cpk4ia2I6H5wtUVSW2g1WA2wquXNfnlbWD2K5PsWzz1Cs99KbLw8457tAJnPX2WbVVeScfOZmTj5xMpVJhzbq1TGtP1OVZbcejWHEAmDIhQWMihKIochPl/YwMsCRJkqR9iu8HGcYtO0iMGQsblKsOmYJFW2MU1/NRFKW20fFYc0jZjke+ZFMs29z16MoRKRUADE2ltTHCOSfP4uApjaOWoyjKbg8Lup5PseLguD6GrtKYDNHaEK3LikNp75ABliRJkrTPEELQPVhkQ0+xtrKvxy/j+z6NyTCqqmCquz8M98LKfn770OvDUirEIgaTW+MoChw+s4WjDmkbl9xRpaqDOtQjtTmwcj2PhniYpmSYWMQgGtblvKr9nAywJEmSpL1CCDEsiKhYLtmCxaa+IvGIMS7BjRCC+x5fyyPPbgSCHiqAuTOaOH/xwSTGIfGn5ws838fUNSpVF8vx0FWFQjmYX5WImUxoStKQCNdlSx5p3yADLEmSJGmP8TyfgVyVQsmiYnlEQhqaplKuOlQtD8vx6h5c5YoWr6/PcMj0Jp5e0VMLrk45ejLvO2nmuAY1vhCk8xVUVUXBwfV8pk9M0pgMUyjZhEyNeNSUgdUBSAZYkiRJ0rjKFS1UVSEaNtjUX6Srv4iuqRiaSrbg4QuBoamETZ1UfOxzjnwh+NuyjeiaysJ5E9EUhadW9HDvP9ZQtT00VcHzg3Tn5548i0VHTq7XI25TNm+RjJm0N8foGSwRMnUmNMfQVEVuXXOAk++uJEmSNG6KZZs1nTkczycZNUnnqzTEQ3VNZ7DZn/+5hr8t2wTAo89uxHV9ypYLQCJqUCgHK/NOOXryuARXnufTlykHKSIUBVf4REydqe1JElGzFjzK3qq3BhlgSZIkSePCcjzW9+SxXY9ExCRftEnF6hNc9abLvLCyn+MPbycVC/HEi1214CoRNcmX7KE/Gyw+ZiqLFkyia6BIJm9x2Kzm3b5/oWzjev6wHrdsyaa9JUUqblK1XKJhg2jEqG2Vo2+V9FQ68MkAS5IkSRqzUsUhbGrDMqZbjsdAtsxAtkqp6tCSCraqaUrVp9eqa6DIj3//AqWqy+MvdnHItEaeXtELwGknTOPUY6ayYu0gsbDBzEmpWu6oyW0JJreNPVeV5/k4Q6v+QoZGJKQzmKtgqD4Vy6dFV5nUFq/73oPS/kkGWJIkSdKYVC2X1ZuyRCMG09qTGLpK1XZZ25Ujk7eIhnRakpG6bB3z6tpBHnxqPa4nyOSrlC0XVVXIl+xacHXK0ZM57fhpKIrCEQe37vY9t5Yv2Tiuh2GoNCbCTGqLo2sKm3qL9GfyCAHtzVEZXEk14xZgvfDCCxxxxBHjVbwkSZK0F5SrTi2reKZQpVhxKFYcPE8QC+sUyjbZohX0Wu3mXCMhBKs7c/zj+U5eXDUw7LXJbXEuOfMw/vLEOtZ25Tj35IM4bObuDf35vkCI4fsXCiHIFW0UFQ6a0kAiamLoai29xKzJKVqSGlR6aWuM7Nb9pQPLuAVYH/zgB5k2bRpnnXUWZ511FlOmTBmvW0mSJEnjzPcFA9kKm/oLmLrGlAkJ+jIVoiGdSEgnV7TIFKpoikJzcveCq3S+yvLX+3jqlR76sxUAFCXYmubgKQ24nmDOtEZChsaHTztk959NCAplG8v2UBSIhg1iYQPX9UkXqsQiBlPbE7U9ALemKAqmoWFuFXRJEoxjgPV//+//5d577+UnP/kJN954I0cccQRnn302p59+Og0NDeN1W0mSJKnOqpbLpv4i/ZkKEVOjULbZ1FekVHFoaRiaX1WHTYdfXDXAfY+vpS+zZQ/AkKFx5Jw23n5EBx2t8d2+x5tZjkeuGKRSmDohiet5dPWX6MuU0TWVtsYIHa1xomE59CftmnELsM4880zOPPNM0uk0f/nLX/jzn//M1Vdfzbe+9S3e/va3c9ZZZ7F48WJMs/5ZcyVJkqRdt3VmdSEExYpDoWQzkKtQLDs0JcLouko0bJDOB71XY5lfNZCr8Nu/vk48anLm22bQnIrw1Cvd3PnQGwhAVWBGR4pjD21nwcGthMz6p3SAYLizbLl0tMaZ1BrD0IP7xKMmjutj6iqRsCHTKkhjMu6T3JuamvjIRz7CRz7yETZs2MC9997LvffeyxVXXEEikeC0007j7LPP5phjjhnvqkiSJElDRtumZmNPgVBIo7UhwmCuSs9gGc/zCBk6rQ2R2vmqqtDSEB3Tfdd157n5Ty9TrAQ5qVasGSQS1mtpFU44fCJnvW0mkfD4fD3ZTpDY1PMEVcdlWnuC9ubYsLYYj+1ypLeePbqKMBQKEYlECIVCtX/cjzzyCL///e859NBDue666zjooIP2ZJUkSZLecrIFi950iQlNMeJRg3zJprOvECTiVCCdq1KxXJIxk7A59szqQC2YMXSV3nSZn/7xRSzbY1JrnGhYZ+XGLE7JRgHecfRkznzbzHGby1SqOlQtF8NQEQKmThgZXElSvYx7gFUsFnnwwQe59957eeaZZ1AUhUWLFnHZZZdxyimnoKoqDz30ENdddx1f/vKX+d3vfjfeVZIkSXrLqtouG/sK5IsWuZJN2NQpVxx0TaW1IVgFV7FcmlORMQ+NCSF4afUgjy3fxKa+Ao7rc+K8DlZuzGLZHjMnpfjE2fMwDZVNfUUAmlJhYuM4z6lUdajaLtM7UjQmQvi+IGRqMriSxs24BVgPP/ww9957L3//+9+xLIt58+bxla98hfe+9700NjYOO/c973kP+Xyer3/96+NVHUmSpLeEXNFiIF0iV3KxbI/o0Eie7QQbKfdnKhTLNm2NUWwnSJzZmAwPC6Z2Z0J3Olflzkde540N2WHHH3+xC4BU3OSj7z20Nq9qyoSxJ/58M9vx8H0BSrDqMUi7AFXHxTQ0pk5I0NYYkUGVtEeMW4B1+eWXM3HiRD760Y9y9tlnM3PmzO2ef8ghh3DmmWfusNzVq1fzzW9+k+XLlxOLxTj77LP53Oc+t8PJ8plMhuuvv56lS5eSzWaZPHkyH/7wh7nwwgt36bkkSZL2VZl8lbXdOXL5Mp2DNs29BZLJOLbjsWpjlnLVwfMFjYkwiqIQMjVCjH0C+bLXelmxNk1LQ4RU3MR2PB58cj1V20PXFE45egpHzWkjX7K5+28ryZVsPvreQ0nEdn+OkxCCdL6Krqmk4iEqVZey7WLqKgKBpqrouoqmKjQ3RGhpCMuVgNIeNW4B1q233srxxx+/0+fPnz+f+fPnb/ecXC7HkiVLmD59OjfccAO9vb1ce+21VKtVrrrqqu1e+9nPfpY1a9bw+c9/nokTJ7J06VL+9//+32iaxgc+8IGdrqckSdK+KFe0WNuVQwhobYiQT2tkCjb9mTLFsk2x4tCcDO9WfqpcyeL51/tZMKeVcsXl1399PegxepNp7Qk+/J65tSHH9uYYV158bLAyr06bPGcKFpGwge14FCsO5arD9IlJWhujgEBVVbn6T9qrxi3A2pXgamf99re/pVQqceONN9ZyaXmex9VXX82ll17KhAkTRr2uv7+fp556imuuuYbzzjsPgIULF/LSSy9x3333yQBLkqT9muv5dPUXcV1BUypMtVpFVRXCpkb3QImq7dIY373gqmewxE33vES2YLH0+U5iEQPfF8zoSDKhKUqx7OB6PrMmN3DKUZOHZUOHLQk5x8IXgqrloqDgE/zZ0FWmT0xSqtis6crRlAjT1hSVGypL+4xx+5t4/fXXc/bZZ2/z9XPOOYcbb7xxl8pcunQpCxcuHJao9PTTT8f3fR5//PFtXue6LgCJxPCx/ng8jhAjf/uSJEnaHwgRzDPqz5TJFi1SieEr/uIRA8f1iYdNdH1sH/ee5/PES13ccNfzZAsWEGRa39hbIGRoXHT6XD74zjl87KzDufTc+bzz2KkjgqvdIYQgnasEqxGFD0BLQ5QZk1IkYyZtTTGmTkgyZUJCBlfSPmXcerAefPBB3vWud23z9ZNPPpm//OUvXH755Ttd5po1a3j/+98/7FgymaS1tZU1a9Zs87qJEyfytre9jZ/+9KfMmDGD9vZ2li5dyuOPP853vvOdnb6/JEnSvqBUccgWq2TyFp4vsB2faGj0hJg7m2Hd83yyRYvmVIRSxeFX969gXXceBQXL8QCYPjHJB06dza1/WUFvusx7T5ox6vYxu8MXAoWgx8sfmmcVj5rMnJQiNNQDtnUAp6lKXSfKS1K9jFuA1d3dzdSpU7f5+uTJk+nq6tqlMvP5PMlkcsTxVCpFLpfb7rU33HADV1xxBe973/sA0DSNr371q5x22mm7VIetCSEol8s7PnEnVSqVYf+Xxpds7z1Ltvfu2Zw7sFC2WdddoGJ5hAwNTVVQVdAUnWo1CIQsyxr2/x3Z1FfkrkdX05+tMm9WE4O5Kl0DWz7bYmGdU46exPGHtqFrKp8691AGclU6WmJUq9W6PaMvBOlcFQFEQjpV2yURNWlvNMB3sCynbveqJ/l3e88az/Z+cwLe3TFuAVY0GqWzs3Obr2/atIlQaPcS2O0sIQRf/vKXWbduHd/97ndpbW3liSee4Fvf+hapVKoWdO0qx3F49dVX61xbWLduXd3LlLZNtveeJdt751Udn1zJpWoLVAXiEY1sycV2BYmIRmEH13d1j/wlVgjB2l6LNT0WnYM2rifw/C2vv7Q6DUDYVHj3kSlMXSUZ1dC1Chs3rh9W1tribjyb7VO2PBIRDWNo+LJY8QgZKvGwSn+vRyysEvYM1lf2j8nq8u/2njVe7V2vLfzGLcA67rjjuPPOO7nwwgtHTD7v7u7mzjvv3OWJ8MlkkkJh5EdKLpcjlUpt87q///3vPPDAA/zpT39izpw5QDAJf3BwkGuvvXbMAZZhGHXNPF+pVFi3bh3Tp08nEonUrVxpdLK99yzZ3rumVHFY31Mgojk0mjpCCGzXpy0BjfHQdn/LtiyLru4uOiZ2EAqFyBVt+rMV4lGDh57exIp1+RHXzJvZxPGHtfHg05vIF20uPn02HS2xcXk2z/PJFG2aUyEGs1ViEQMhoMH1mDUpSUM8hO146Jq6WxPz9xT5d3vPGs/2XrVqVd3KGrcA67Of/Sz/9m//xvve9z7OP//8WiCycuVK7r77boQQfPazn92lMmfOnDlirlWhUKC/v3+7ebZWrVqFpmnMnj172PG5c+fyu9/9jkqlMqY3SVEUotGx7ce1PZFIZFzKlUYn23vPku09usFcharlYrtB8s9yxcEVGpMnjH0rl1AoRLEquPHuLXv/AWiawqIFk5h/UCvJaDABPjmUm+qwWRPqNkxSqboIxIj8U/25ChPbUszsSNE9UKI/W0ZVFNpbI0xsjQefrbt99z1P/t3es8ajveuZhHbcAqyZM2dyxx138M1vfpNbbrll2GvHHnss//3f/82sWbN2qcxFixbx05/+dNhcrAceeABVVTnppJO2ed2kSZPwPI/XX3+dQw45pHb8lVdeobm5Wf7GIUnSuBNCULU9IqGRH7v5ks26rjyO66OqCpqqoGkqzcnwTn/ge76gL1NmQ0+eF97oY0NvnkOm+WzoLVGsOERDOo7r09oY4YJ3z2FK27Ynhu/ul4wQgmzRQlUUBOCULFKxYEpIqeoQ0lUmtcYxdJUpE+K0NQXb8uiaKrOsSweMcd2L8JBDDuH2228nnU6zadMmIJjc3tTUNKbyLrjgAm677TYuu+wyLr30Unp7e/n2t7/NBRdcMGwYcsmSJXR1dfHQQw8BQWDW0dHBZz7zGS677DLa2tr45z//yR//+Ec+/elP7/6DSpIk7UB/tkJXf5GJLXHaGiP4glqamM7+Aq7v09Iwtl/2etNlfvqHF8kWh09qX/b6AACNiRCfu+AoElFjXAIYIQQVK0iH43mCiu2SiJlMnZDA8wXrunOkc1WSMZNSxWFGR5J4JOjVUhSFsDnu2+JK0h63R/5WNzU1jTmo2loqleLWW2/lG9/4BpdddhmxWIzzzz+fK664Yth5vu/jeV7t53g8zi233ML111/Pd77zHQqFApMnT+bKK6/kIx/5yG7XS5Ik6c08z6c/W6nNI9rYU8DzBWu7suQKFhXbRQiBaWjkihZNybEFV47r86u/rCBbtDCNoGdoZkcC3S/SXzTIFG0++M7ZtSHAeqvaLoWyQyQUbJxsGCrtLUmaUpFaWgVdU9nYm6c/V2FCU5S2RjmMJh34xj3A6unpYcWKFRQKhVGTep5zzjm7VN6sWbNGDDm+2W233Tbi2LRp0/j+97+/S/eSJEkaC9vx2NBboC9dRlHA0DWEEDQlw1i2R75kY+gqmqJSqQapCHZlW5d8ySadr5LJV3lhVT9dAyXiEYMvfORoUrEQ1WqVtevW8o7jZhAO1zdPVaZQDSakJ0JULJeq5TKpNc6E5i1Z1N/8LMmYyUFTGhnIlIONpWVCUOktYNwCLMuy+NKXvsRf//pXfN9HUZRagLV1F/WuBliSJEn7GiEErudj6BqW47GuK89grkJTIoyqKdiOV+vNCZkaIXPLljGRnfgYzuSD4TXb8bnjr6/xyprBEed86LRDavOcxku2YGHoKqah0Z8to6sq0ztSTGjacY9UyNCYtJ15X5J0oBm3AOt73/seDz30EJ/73Oc48sgjueiii7j22mtpa2vj1ltvpa+vj+uuu268bi9JkjQuqpaLqg7fV68/W6F7oERzMkyp6pLOV2hORWo9OWOdY+S4Pn/4+yqefLmbaFjHNDSyBQsFSCVCNCZCNCXDzD+olbnTd38axtZsxyNbtDA0FdPUqFgupq4yoyNFOKSzqa9ALGzQ1igXCUnSaMZ1q5zzzjuPT3ziE2QyGQAmTJjAwoULOfHEE7n44ou54447uPrqq8erCpIkSXWVKVRZ351HCEjETCa3xlFUJdhQ2XLZ0FdAAZqSkV0a8ttMCMErawZ5+JkN5Es2vi/IlWwAylWXctWlMRHiY2cezqS2+G4/j+cFKSHCpo7nC4oVG0NTCZs62aJFe3MU1xOUqw4TmqI0JcOk4kEv2axJDbt9f0k6kI1bgDU4OMj8+fMBanMAtk5rf9ppp/GjH/1IBliSJO3zPF+QHQqufBEMd/Wly9iORzRsUK66tKR2PqXCsLI9n+fe6OelVQNs6iuQKQxfCRiLGHzktEPQNIVNfUWOnTuBeHT3J6z7QjCYrxIyNfIlG0WBRNTEcjxy6RItDZHaBsqeL+RGypK0i8YtwGppaan1XEUiEVKpFGvXrq29XiwWd3qfLEmSpPE0WmJNx/UpVRyqtstgrkKhbGPoGg1DPTghU2MwVyFftIlHdpz+IJ2rYugqiaHVfI7r8/QrPTy6bCPp/Jb9/Exd5e0LJnH4zGaqjseUCQliQ4k6D57SOKbn8zy/NrE+GjFQFYV0vkpDIsTUCQmKFQdVVWhKhqlaLv3ZCq2NUQx98ypAmZtKknbVuAVY8+fP57nnnqv9fMopp3DzzTfT2tqK7/vccsstLFiwYLxuL0mSNELVdrFsj2TMRFEUPM8nW7ToTZeDbOZRE0MPemz60mWKZRsBmLpGY3z46jdVUWhORXAcf9ik9a35vuDlNYMsXb6J1Z05VFXhmEPaUBSFFWsHKZSD7OrxiMFJR3Qwa1KKyW2JUZORjpXtemQLFk2pYAVjOlcBBSIhg6kTEsSj5rAesTf/LEnS2IxbgHXRRRfxwAMPYNs2pmny2c9+luXLl/Nf//VfAEydOpX//u//Hq/bS5IkDZMv2WzoyVOqujSnwkRCGum8RXGoZwoBg9kqIECAaWo0JSPb3QtPVZRRg6vugRIvrOrn6Vd6akN+ihIEXE+v6K2d15AIsfjoKRx/WPuwSfP1UrFc3KpPR0ustoKvVHFQFDANra6BnCRJw43bv65jjjmGY445pvbzxIkTuf/++3njjTdQVZWZM2ei6/IftyRJ46tQtsnkLfozZTxfkIgYDGYr+ALCQ0HUWCakjyZTqPL7R1eyYm26diwW1lk4r4OT5neQLVR58pUeIiGd2VMbOXhKQ93mNvm+wHY9wkMbQxerHrbjMXNKAxOaYrVAsSExvqkcJEkKjEuEU6lU+OIXv8i73/1uzjrrrNpxVVWH7QUoSZI0nvozFTb05LFdj3jYJBIOPvKaU/VLLfD6hgx/WrqaQtmhYjm4nkBTFeZMa2TBwa0cMbsVc2guU0MixPSOVN3uvZkQgsF8BVMPJqzbtoWuKsyYlGRiy+6vNpQkadeNS4AViUR44oknWLRo0XgUL0nSW1jVdulLl2lKhofNFSpXHSqWG2yYrCj4QrCxt4ihKbQ21GdrlmLFIVe0SERNMoUqz77ayz9f6Bp2zvSJST74ztm0N8fqcs8d8X1BuhAkIp3UmiCdr1IogumatQn5kiTteeM2Rnf00UezfPlyPvCBD4zXLSRJOsD5vkCwZesV2/FY312gP1OmP1uhvTmKqeuULYeBTAXb9QCFzfOowiF9tyZsp/NV/vlCJ/2ZCn2ZMn2ZyqjnnThvIifO78DQVFoaI6h12FDZ80XtuTdPzg+HdGzHo2K5KAoIgnlg8YjBtIkp4hGDVNykVNJ5vdi923WQJGnsxi3Auuqqq/jYxz7G9ddfz4UXXkh7e/t43UqSpAOQEIINPXlyJZtYWEdVVSzbJVOwaG2MUrVdNvQUUFBAgXjYqCXB3F3FisOLq/r50z/WYNnesNdiEYNyxcE0NQ6Z1sjxh7Yzd0ZzXe67WbZgYbku8bBJyAiG/Rriwd5/uq4ya3IDhq7iusEKxmjYwNCDuVyKomx3Yr4kSXvGuAVYZ511Fp7n8bOf/Yyf/exnaJqGaQ7/TVJRFJYtWzZeVZAkaT+WzlfpSZcJGRrZgo1ABKkRkmE0VSEWNmr5ocaiYrm8smaQgWzQ89XWGCVTqLL8jX76t+qpmj4xydGHtNGcDDO1PUksYuD5AgV2O5ARQpDOVxFAKhZCUSBftDFNlQnNSboGihQrDhOao8yYmMR2fXRNqeWnkiRp3zVuAdZpp502pqzGkiQdWDxfUKk6jLZWTghBtmgRCxuYhkYmX6U3UyYWNkjnq5i6RqIOOZlc12fp850sXb6JmZNSHHdoO797dOWwBJ9v1toQ4YTDJ/KOoyaPCKR2ddWh5/nDcmhtli5UiUUMwqbGYK6KoihEIzpT25MkogaqCtmCzeTWOJqmEpHZ1CVpvzFuAda11147XkVLkrQfyeSrbOor0JIMPm5cz6/NL8oWLFZ35oiFdZobImzqLeC4Ptl8EGw0JcNjvq8vBEuXb2LF2jRdAyVKlSCp5/I3+ln+Rj8AjYkQc6Y1YegqvekSpq6xYHYrh05vrq043F2VqkuhGuwnaGoauq6CEJRtl2hIZ/rEJNGwQWujjaYqRMJGLYDraInT1ihqw3+SJO0/ZCIqSZLGjRja765QdiiVK+SyNt66LKmkQ1tThE39xaAXq2STLztoQ9nRd5fleNzxwKu8tHqwdiwZMznl6Cm8uKqftV15DpnWyEdOn7tbw4zbYrteMDcMKFZtprUnMHSNbNGiagUT8Se3JWhKhGqT8EebP6YoCoYuRwIkaX80bgHWPffcs1PnnXPOOeNVBUmS9pBi2UZVFaJvClbKVZdCyaY5GSZXKJEuuDS3CjKFKsWKje14tAwFVLbrE9qFbOb5UtDjEzI1nny5m+ff6Oewmc1Mbotz999W0Zsuo2kK7ztxBjM6UkxqjWPoKouOnEQ6V6V5jJszb80XgkrVDeqtQLHs4LgextBzOK7HhKYY7c1xNFWhrTGKEAIhdn/+liRJ+7ZxC7CuvPLKbb629YeaDLAkaf8lhGAgW2VDbx5NVZgyIdiOpT9bobUhgu0E2cQb4iESUZNUTA/mHIXDVKousfCWTZJ3JrjyfcGy1/t48uVu1nTmADANFdvxAVg9dAwgETX4X2ccxow3JfZUFYWWhvokGs0VLHRdJV+xEb4gGTNpbUwSHRpetB2fWMQYNmdLURTk9FRJOvCNW4D1yCOPjDjm+z6bNm3iN7/5DV1dXVx33XXjdXtJksbI83wczydsjvx4KFcdetNlTENFU1VyJZtsoUpI1/B8wapNOXxfBKvhSjYRUx+1HGCHc5zS+SqPLd9EpeoGk7/DOm9syNA1UAJq2a6wHZ9E1OC4Q9t5YWU/A7kqxx06gbMWzarL8F+56mDZHoauEg7pta1tLNtDEKwyNAwNz/OJR81hwVR07FPIJEnaz41bgDVp0qRRj0+ZMoWFCxfyiU98gttvv52vfe1r41UFSZJ2kRCCTf1FBrMVkjGTeNREVRXCpo6qwPqePLmijRKknkLXNBIRs7ZRse14aKqCpqmUqw75klUbAtwZ5aqDoWvYrsdP/vAiA9mRiT0jIZ1Tjp7MsYe2EzY0BnIV2hqjmIbG6SfOoFixScXqkw+rYrlUbI+WVJiK5ZItVtFUFV1Vqdguk9riNCRCcsW0JEkj7LVJ7u94xzv4wQ9+IAMsSdqH5Et20EOlqcEGydkKoKAqYOgqtuvT0rDtTOXmVsN80bAxYk7Wm+VKFvmSzZS2BKs2ZvnZPS+h6yrJmMlAtkJjIsRJR3QgfChVHSIhnZOO6BjWMzW5LVH7s6Yqux1cVW2XQsVBQ8ETgmntCSa2xPAF5IoWvekSvi9oSMZob47J4EqSpFHttQBr48aN2La9t24vSW95Qggs2yNkaiiKguv5dPUXQTBiexnPFziuRyJq7nJAUaw4KAq8eYZVoWzz3TuWUSg7HHfoBF5eM4gzNDxZsYKJ4/9+9uF0jNNmxUIEe/gJX2AYGrqm4nkCx/PoaI4BAl3TakGUpkBTMrxbqSMkSXrrGLcA65lnnhn1eD6f59lnn+W2227j1FNPHa/bS5K0HZl8lb5shWI5WOHXlIrQM1giU7BGTZOgqQraNuZSbc/arhw/vvsFXE8QC+uEDWh91eak+ZN46pUeCuUgN9XTK3oBmDohwbuOn8ora9IcM7etLsGVZXu1ffsqllubjF4oO0RDOk3JMPmSje36aJrClAkNtDTs/grD8eCVcqCqaJHEjk9+C3HS3WixFGqoPpt6S1I9jFuAddFFF436ASWEQNM03vOe9/DVr351vG4vSW9ZW2cN9zwf2/UJD/VSAfSly6zryaMICJs6XQMlBnNVbNerbUNTD1Xb5Y4HX8P1BAClqkupCoOFLK+tzwKgaQpnvX0WDz29nrChcclZh5GKhTh8Zstu3991fdKFKiFzqO9MQDxqoKAwmKsQMjSmTEjSkAgxiaCXDiFGzbi+r3Dzg8MCLN+qoJjDg0EhfITvbauIA47wXNxCGjRNBljSPmXcAqxf/epXI44pikIymWTSpEnE4+PT7S9Jb1UVy2UgWyGdr9KYCJOIGvSkS5QrLqlEkCbBdly6BsqEDY1YJJjHFApp2La3Wxsl+0IwOHRvCPJfLXu9j8FclcZEiM9+8EgGs0VWrt1I2Yvyr5d6cTyf9504g0ULJnHS/A6EELUVemNRtYLVhiFTqwVXbU1ROlpiqKqCEBA2NXxf0JgMoSoKDYktzxwElvter9VmQvh4dhl8gfAchO9j92/AaJqIFk3WznNzA7i59F6s6Z4lXBvhVPErRUi17e3qSFLNuAVYxx133HgVLUnSm1Rtl9WbshTKNmFTp7O/gKooKAR72w1mKwxkykCwSfLWKRJURSEcGttHwaa+Av98oYvnV/Zj2SN7TRTgw6cdQioeIqQLrGKIGdOnsviYafRnK8yaFOSoGktwU6w4lCoOqqaAEJi6huP6CAwKZYe2pigzOlIjeuQ0LUj4uTU3P4gajqKa9cmPNR6E64DrIFwH36ogXAevlEGLpWoBlvBcnFw/XrkIb5FOLN+x8V0HqiWE76GociNsad8wbgHWxo0bWblyJYsXLx719UcffZTZs2czefLk8aqCJB1whBDkijaFso2qQDik0xAP0TNQolC2aUlFUBSFRNSs7fcHbDMX1U4pDkAohquGuOex1diOx8FTG3n+jT5WrN3SU2JoKs0NYdShXqSWVIQFs1uZNblhRJGpeGi3eswc16dquczoSOJ6At/3aWmMkslX2dCTJx41mdQa36nhTq9SxO7fALpJqG3qPju/Sbg2wnODnqxqGd8q4js2bjGL3jABRVHwSjn8ahEcC8UVe76OQiCc6h4NVIVrg++DayMcC0UOE0r7iHELsL797W9TLBa3GWDdcccdJJNJrr/++vGqgiTt9yqWixACRVGwbI9soUpfpoLni1p/T2MyRKZgkYoPz8c01rlUVcvltQ0ZOvuKNCcMJmmDTGpv4bfP5Fn2Wh8Az7waTEpXFVgwu40T509k+sSRvUW7y3Y9KlU32NtPUTB1DUWBiu3S3hSkSdh6y5nIUE9cPGLU/rw9QgjcXH/wJe25WD3rCE86aJ/syRKODcJHNUy8YgbhVNEiSYRdQTgWGCZOrh9V0wEHxSnu8Tr6lSJOuguzfQaqbu74gnrc0yqjGCa+5+LbVTkPS9pnjFuAtXz5cpYsWbLN1xcuXMitt946XreXpP2W7wt8IejPlOkeLOF5QSDjeMEmwYmoWdtWxnV9MgWLsKFh6rs3NCKE4LHlndz3+JraxPTNIkaOiiNQFTj20HY29hZob45x2gnTRgy37Q7X9SlWHRIRA8fzKZRtGhNh2mNRPA9KFRtfCBLRCB2tw4Mr4XuoUNuuB8B3bYRtoYajKKqG8D2E56IaQe+ZXy3iFdOokSSqYeLm+vHK+e0GWG4xgxaOo+g7zhLv2xUU3dzmsNXmHh9FM1C07X8c+64NAhQjgnCqCMdCS7bgFgbxrQpYZfxKHi2aQnE81KEhs9r1jhXURVHwygXcfD9m6xQUrX6bXQunGvSilQuoyea6lbvN+wmBXy0Fz+D7+PbIxLSStLeMW4CVz+eJxWLbfD0ajZLNZsfr9pK0X3BcD8vxiYV1hICu/iLpfBUBlCoOsbBBNKIFQYVujkjwqevqLmVK38x1ff7yr7UUyg5nvG0Gmqry+0dX8sLKfgBaGyLMnJQik86xvr9CxQkCrg+8czbHHzZxS0G+D54LowUHvgeVHESSoG77o6ZiuZhG0DOVLlZJRk0yBQuAKW0JOlrjO9wY2Xdt7L71KKqG2TYNAGewC7eQRrg2erIFPdmMk+lB+B7hiQeBpgW9V56HZgS9LYoRxs0NoCdbRg2KvFIOu3cdetNEzMZ2hOfglXJoieYRq6bd/CD2YCdavBGzZfKI171qCWewC79aRG+ciNnUvv1ntMoouo6iG3jFDGooWD2ooOCVMniVYi1QU8wweDZ+OYcr3OD1cgGzZTJaohEn24Ob7UPRTcyWXZum4RazIHz0RNPI9rEr+HYFtzCIlmga91QXwrURro1ihED4QeAYyuKVc5hNHTsVBEMQnAvf22O9btJbw7gFWBMnTuS5557jQx/60KivL1u2jPb27X+gjGb16tV885vfZPny5cRiMc4++2w+97nPYZrb/ofx1FNPcfHFF4/62owZM3jggQd2uR6StDs8z6ezv0Q6X8FxBa0NYRRVoau/SMTUUVUlSJmwvVV1dgWED6Ft/yIzmnzJ5v/9+RXWdecBeHXtIEJA2XLRVIWzF83ibUd0oPge9L6BK+Ks7Kmg6Saz575plVZxAOwSNE8D5U11reYhvQFiTZDqwC6XcMtFRDUPhgaaQaniYDkehbKNAqTiJrMmNVCqOnieoKUhgoKP1d+JFoqhj9Ir4jsWdt/6YKm+oqAYoWCyd7oHLRxFicRxsr14pSzCc8D3cfIDqHrQY6XFGmplqeEoXimLXymixVK18oXroBgmdrobv1rCyw8iUq24hQzOYCch3dwy0Vz4OJk+nMGNgIqb7kY1QhgNW9pOCIGb6cEtDKKoGn4lDwz/PBTCByGG2lUEvTNasDm2nmqptbdihPBKuVogCaCoGgoCp38jiq6iKCooKvZgF4bvBgFaJIGb6UGLJGrP6pULCN9F0U20cKxWD2FbqKEIwvdw0t0Iu4KiarXrNj+TXymhhmP4lUIQEKoaqOouBS5Bri8NLbLjleab56Wp4TggEHYFu3tVMOldUUcNbEfcr5zfEnh3HIyi6QjPBURde/ekt55xC7DOOOMMfvzjHzN//nw+8pGPoKqb8/J43H777fzlL3/hP/7jP3apzFwux5IlS5g+fTo33HADvb29XHvttVSrVa666qptXnfYYYdx5513DjtWLBb5+Mc/zqJFi3b94SRpF+SKFr4QNCa2ZADvy5TZ1FcgHjGIhjS6BksIX9CQCNeG/3ao0A9OBVpnwna+CLJFi1Ubs4RMjXS+yoNPrqdiuYRNjcZkmO6hzZM7WmJ84J2zmdY+tOTfLoNbRY82MHdqGMpZKGcgPpSjSvhQyYJVCoKoyJYv22BvmzQg8PP9VPJ5nHKBaLGX8oYqNE1Ab51O2XKZPjGJ5wkyBYtJTWFMYRFODX25+x523wacTA/eUC+TGg2GADd/aTuZHtxCGj3RhHAdnIFOhPDRYw21Hgwl0YxwbbRoEt8q42Z6QNVRjNCwoTlF1UAEw4BqJI5wLKzedfjVEmooglcpoqda8Uo53MJgELhVirj5QbRoMqjvYBdOugstFEMNRfCtMs7AJlQjtCVos8pBz1c0BcLHtyr4rl17Jq9cwB7YiPA9NDOC3tgOroNihLfUc4gaiuCVC2jxxmHvux+Ko4YiGLGgvYQQuPlBnFw/KCpaOIZbdLAHuwiHogjfC57VLqHqIULtM9FiKbxSDifdTWjCDIRr41cLgILVv4GwfhBqKOhBFUOTzIP6FHEGO/GrJbRkM6HWqUN18INgbxt8u4LVuw4UhVDbNFA1/GoRLd5YG9bd2uZ5aYqqgmLiWxXUUAQtFB0KHuPob2qXYfezyljda4YWD7h45TxavAG7fwNepRhcn2xFi+6bCx+kfdu4BViXXnopy5Yt41vf+hY//elPmTFjBgBr164lnU5z3HHH8clPfnKXyvztb39LqVTixhtvpKGhAQgCtquvvppLL72UCRMmjHpdPB5nwYIFw4794Q9/wPd9zjjjjF1+NknaWeWqw9quHL4v0KYEe+yVKg7dAyVikS179bUaEYRgh0NhNY4FVj7oxSoOQCoYtvN9QT5XwBE6b2zKsvz1PtZ05njzerJJrXEuPn0uTckw/3ihk7Cpc9xh7VsmqTvWUICkBD0lCmCGIdcNRhhC8SAAs8uAgOIghBNberGsMk4hR0GYaKqKqTi0T2hGVV0aGydQzWfI92q0TmijSS2hGSrNuofIraeaE0QmzUHRDZxMD062Fz3eiO9YWD1rgoBI1YbmD+l4+QG0aDLotRlKKqpo+psCJzUYNgPUUBS3MIhw7FF7xNRIHCfTi2+VgzatFNCiKXynGsxv0nRQVLxCBlEtoSeb8IoZ3GIjXjGNk+1Di6ZQNweEoSiuk6kFMopuBL1knoNhpBC+j18tIewq6Ca+XcHu34BvlVHNMG5+AEGQpiHoqRlOUTX0eMPIvyOKOqwHRlEU9HhDENgNna/Fknj5QZxcH8Jz8a0yerIFr5DGLWWDAKuYCdJYbJ6XJkBLNOLmB3AyPZgTpqMoylBvkoMajqFF4njFLKhq0Csm/OCvRc9a9ETTqEGPEAIn24dvV1E0DatnTRB8OhZ6qpXQhOkjepR8u8rm9B6Kog4rV9hV7IFOVDOCao6+vVGQ7qKKnmzFLWZx8wMAuPmB2nCxV8yiN3VgNLZtNzgcq83zyNTwyH0thRB4hTSqGUYN71pPtbT3jVuAZZomv/zlL/njH//IQw89xIYNGwCYP38+7373uznnnHNqvVo7a+nSpSxcuLAWXAGcfvrpfO1rX+Pxxx/nvPPO2+my/vznPzN9+nTmz5+/S3WQpJ3l+YKu/iIVy0VTVDb05GlpiJDJV4NNk7falFhRFIZ9tvouKBpsa3jDCpbiE04MpVGIs7Lf5TcPvkqm6Iw4fWpzCHwXx4eTZsdZeFAcNSZAVznl6Cng2mAVwAtW01HOBL1jW/dKmVEo5yDbFQwJVotBT1UkBdUcIt9Lrqqgaiphv0y5ajNhUiuJmIGpa3iuTSat0NocQ2uJUUynCdldOH0Cd2gvG8UI4bvVoPcgGsctpFGHghJNN4Ymeovgy7NvA2ooOjSHaktbbuvLdGtavKnW7m+mGiGUhB4EPb5Xm1+lbTWfRw1Hh3JnxVCNME65iDPYhVfJo8cbR0xY12IpvPwgdroLLZrCzadrAYuiqsGXrF1FDcew+zcGPWXJ4L6KZuAWBlCGzt0diqYPCyoVRUWNxHEzvSB8tGgCRVGCodJCBi82FJBFE7j5fhTNqAUCWiyFVxjETzYHvXdb9SYpZhjVDA/l7CojbCsIlkpZbKuCGoqiGqHa8GMwDGvh5frRosGCA69aQtHD6JFE0HaqhtEwoRZouIUMbra31oM24n2MJoMeu3QXZusUfKuKYpjDesK8SiH4dwZBUFjKIVw3GP4MxyAcC3ogBzeihSK1HsjR8m2ppUyQIiO6a4s+/EoBq38DZtMk9MRWAaLwcdI9OAOb0OINhCbO2qUcX0L4wXsXS+1yYOhVSwjXGT1w3+F9g1/ntrWTC763wwUdB4pxfUpVVXn/+9/P+9///rqUt2bNmhFlJZNJWltbWbNmzU6XMzAwwJNPPrnLPWiStLN8X9DdX6QvU6FpaPuZdL5KoWQRKvXS2PKm3lbXgkoeXAfcCjg2JFog0TqibMt28XNpwpoeDBk5Fg8//hr3vRT0uKgK6Cq0pQyOOqSDBQc10FjZONQTpQRBUTUHJTOYv2WVgrlSzlYrsDQToo0jA7xIMgi+MpuCQEwPgaqBHqLYvZ7o0JY8lYpDU2sLrY2RWq+Y524pxgiFaWhtDeZMvenDVhSCBJooIKxyLRiCLcOCGCHcYgY334ce3/XVajual6Oo2rDs6G+mGiGIN9Z6qbRoIuj9STSPGgQpiooaTeGmu3EzPQjfD+ZRbX5d0/ErRTxVrQ13bq6johtBbi7f3+Xn3BmqGcG17aCOQ8GHYoTxKoO4+cGgBynZEsyrcmyMoXZRdRNXlHCyvaiR+FCP3/B2VXQDv2QH88eEH2Sgd12cwU4U3cQr5xF2Fd9zggBSN7e06VY9Nlq8ESfbXxtWVYwQbq4fFGWbaRk299g52b5gCNYqoyeaMNtnoCgqwvfwKoVggjzBe4AQeOX8sCBUDUXxrDJeNZiX55XzQd40RUWLN2A0TsSvFFBLgzgDnfjJhhFzznyrgvDcUYca3WIGr5DBQUGNxPCr5aCH067il3MoZgS3mEYvNtXm2O0Mv1wI2lkztjufbethWyF8nGw/broLVB0tHNvphQKb2QMbg2Ht1MjPLq+Uw831E5o48y2REHbcAqxsNktPTw+HHHLIqK+//vrrtLe3k0qlRn19NPl8nmRy5IdeKpUil8vtdDl/+ctf8Dxvt4cHhRCUy+XdKmNrlUpl2P+l8VWP9u5NlwmbOqm4ie149KYrRMI6juOxqTdLQgfXUXGBWEiBShHV6sdNuziNU2oBjJLdhFLoA1VHqBqKEAjHQigh2PxhbRV55uVu/rQsjesH88TfM99ncqPBX4aCq+On6bz3qGZCuoJSySCiNthp7EoJEW2iNlaogpLtw9diKKUBlEoeEW4YHlDZI3vCANCiKLl+EGAbcaxKEc8TGKEE7a1xQqZKqeoSC+s4tsXmUizLGvb/Gscd9qOPipXuRy2X8W0HzbZHr4ceQaghPNcDdy+lLfeqw+rjbquum4UStd/wPWvLub4vsHODkM+AD57tAG9ufxWqVXbGNtt6W/QgyHC2Kt/zPJzsAMIXeJYFqgkhE2+rc4RqYA10YbkiCLA8H/dNdfRsBy+XBsfCczzUcAyrdyOKogZpI4wQirklAHC29YyhOI5TRQz2BL0guoEaSWz7/FodTZxSEUU3sPq7sLUIWrwBv1rCLuZRw3GUoTKEEQmCrDe9j74PzmAvTigIkr3sYLCYIjuIbjlUMgMgfKq5AdTONegtk2tBi29XcfrWgwJmx8FBcCd8QEE4Vez+bhQjgp0dwHJ9/HLwXaZoQ3ME0fA9Bad7LXrVQjHCI/afHPHMwsfp2YCX78cNJdHElqBfOBbC94P5gXYVd3AjWrJtaDg4i9OzBsUwEU4BLzN8EciO+NUSdl8najiGoUdH1NHJ9ONlenDM+LAFEjtD+H4wY0FRx/W7cnPewXoYtwDrmmuuYe3atdx1112jvv61r32NmTNn8q1vfWu8qrBN9957L4cddlhtXthYOY7Dq6++WqdabbFu3bq6lylt2662dy3xp+Ozsd9GUWBik0G26JEpuUGMIgRNfhpXVLCibXhGFIRPuNiD4RQRSh+VwQKeEUVzK4QLXfh6CLE5nYEQZLIlNr5SZOrEGCGnwPNrqzzTvWV4w/Hg3uV5IoZAoHBIm8/xU20GB7qDE3wPva8XoRoIVcPPDf8wMqwCTjqPYRdxjCioO/5lwfEEFcvHUAWq8PHUElFTRVWBkEZvd6Z27uA2yujq6tpRA6NUC6AZCE0HLbvDeu33fB/FLgW9POEkKAN1KXaHbb3dOrmo1QJ+OAnqtt5NwHNQNm4CRUXoW/1CMESxy4jeARTfRShqLZirj11rJ8UqIXoH8Bo6UKwSWq4bEdmJL3rfQ3EqeP15tGI/QtFAN1GcKnR1g+8hzCi92RJK/3P4kbX4sUYUz0Utp1GreYRm4KYroJmo+SBRL6qGVk4Hbew5qJs68c3IyEUrQqBYJRArQdPwjRgikkCY0ZGrdwHFKqJlu1CEj5et4Cfba+VouW4Ut4ofbUKxiqiVHH4khZeaiJbvCd6vUBylWsAfLGy51vdRC32ISDK4r+eglnOIcBxhhEEI1EIvWimD0E3cgdLwvwvCR09vQLFKeAN5/NQ2sgi4Flo5gxdvCdK7uBZqOYfqlPFDMfxYS+0XwfH6rtxeVoJdMW4B1pNPPsmFF164zddPOeUUfvvb3+5SmclkkkKhMOJ4Lpfb6Z6wDRs28OKLL/LlL395l+49GsMwOOigg3a7nM0qlQrr1q1j+vTpRCL7XibpA81Y2judr5Iv2Uxpi9OfrWBrRRRVIRI28AybKVND6JqKX86hZ6ogIghDQySbUHwPxSwiQh0oVgERiSPibSjFfpRIKyKyZf5Fd9bhricHsFwPfVUeRQHHC76YTj00zjvmxnn45QKPvV6i4ijEwyofWDiBaOhNH7auFcyvCo+yCsq1UOwSQk2N8rqgVHXxfYFpaJiGiu8LCmWHmakwlu3ietDaGCYV27kPI8uy6OrqoqOjg1Bo+1+yXnlz2oGRwwwHKq+UDeYuGTueQ7Yju9LW9SB8P0iYakZGTtR2bXzbCr6QYw27PY9sdwjh4xXSaPEIqHH8htBO99C4+UH0ZDNuXhmW98yvFLAdl+7BLB0dHZiaEiSrDWkI14NYI2psOl4xg9k+FcWMYHcF+0qCQJlw0C5NYBeuHfQW+j5KxAjykWl6kANNN/CtCm62F5HUUYYCHHNSkH7CK2ZweioouoFwbAQNaLHp+OUcWkMKL2ShRqcFQ9Z2FeG5hCbPQtFN3Gwfbn8JLdWC0TYNN9cflBXS0JIpFFXDTVuokzvwy3mM9inBPLhcf7DC13OxwzaKbiI8F7Nj+oj5c0L4uP0b8HIORvsktEQTTt963KyNajYiXBejvR1bi4zbd+WqVavqVta4BVjpdJrGxm0vj21oaGBwcDu/FY1i5syZI+ZaFQoF+vv7mTlz5k6Vce+996KqKu9973t36d6jURSF6C5OaNwZkUhkXMqVRrez7W2VCmR7+yiWbHKJGCULUskYsbBBJpOjNWESMrVgoriTg1AIwslgblWhM/hNMxSGSARX07EKOSJuBRUPO9LIi502r3dVSUU1nltbwnIhbEB1aKRoQsrg3fNSHDUj+DA++1gTRdN4elWRC09soTE5yhdzaNvBjzANyj6EIzE0fXMaFQEKFCs2kXCISFinXHWo2j6eL5jQHKejNQ4oCCHQt5enaxtCoRDh8PaDCBEKBb+178Uv4z0uvOt5AXdkZ9q6fkb/NyRECNe3QDcx9oHPNREKBSscEajxJGpo59rH8+IgXIxYAm3rL/VwGLVahcFsrb1FLI6wqyh6sjbH0PVtdGGjKiaKpqI3TRrj5tRhiAcpQfxKET8b9FIqqhbMYXMtTEVFa2wDBF4pR1hXUU2D6kAOLRpDi6WCLP+KgqKoeHjgVNAjEfRYvNZObmEQ07dQhQKVDFokhuJVCakCxS6iJxtRNA2/OIhQIByOoMWSuHjowkaxi4hiP7qpB4tPdA0j1YST68f0qhiR4clo3UIG7CJ6OIzmljHVRvCqmE2tqEY4WJRQHCSUDOawjsd3ZT2T445bgNXa2sqKFSu2+forr7xCU9PITMDbs2jRIn76058Om4v1wAMPoKoqJ5100k6Vcd9993HcccfR1ta245Olt6xCySK7YSWxlg5STQ1QLdD/xgqsvgyJcJiezhiOHqE5pqMWemiuDkBFBF3Xm2dzR1PBz9Gh3lXfA0UlV3a54cE+BovBcKKuKnh+Ef9NuRTakjqffU87mZKH5wumNJvD/vErisLZRzdy5lENIzK874x8ycEww+TKNqauYbteLbFp2NTpaIkRDRu4nk+56lK1XFKJEFot6Bm/LN2Komx7BaW0X1EUBVUP7fJk6fGiqBp6snlY3rGdEaT3GNipXlVFUUdsOq0aIbxKEd+2UDbvHLAbE703J3rdXILwvSCVhxkevnDE9/HtcjCZvpxHTzSPuLcaSeCVc8MWdgTvm4ndu34o+aqDnmzBzfXjZvuCHGfxBhRVG7HQQDXDeOUC+NlgC6psH2okXmtvLZLAGewERcFoag+CvFIOe7ATRdVRQ9GgZzDbh+9YtYUVWiSBW8xi96xGzecR/uwxt9+eMG4B1jvf+U5+/etfs2jRIk499dRhrz388MP84Q9/4IILLtilMi+44AJuu+02LrvsMi699FJ6e3v59re/zQUXXDAsB9aSJUvo6urioYceGnb9ihUrWL16Nf/rf/2vsT+YdECzHS/YrqZvAL+vC5FxCLd5xCp9lLJFjIY2Ql4Rr9yHGW9BTWegWghW46k6ICCkjx4cqBqW43Pz3/sZLAZBmBDBvCaAxpjG0TNilG2fkuVz5pENREMa0dD2P4R3JriyHR/H8wgbwT/5iu2iawqTWuJUbZdMwaY5FSYeM0EIdF3DHOrV0rUgf1dyJ4cC38zJBKvM4MBfNbS3CN+n9OrjGC1TCE2YvrerM8L2VmTuLbu6LY6iGxiNE3d84rauN8L4xQxCtdAi9W+PrfPADaNpQcqNUjZYgTnaKldVHTU3mRZNBhPyPQ80rfYcXjkf9H5tI0BUjBBeeQBFM9ATjbjFLH45jxoZShI8lErFGdgYDI3rBn4pyNe3Oa2EX3KhnB8RvOnxBhyRQ61sCHLHse8mgR23AOvTn/40//rXv7j88ss55JBDOPjggwFYuXIlr732GrNmzeIzn/nMLpWZSqW49dZb+cY3vsFll11GLBbj/PPP54orrhh2nu/7eN7IVUX33nsvpmly2mmnjf3BpAOG6/oUKh7dfVl0tUgoFmMwVyFXtGkQFcyQj6dVqFTL5Ab6EEqIhKkBSaKlDJSGhv1ijaNONIUgF9bq3ipTmkN4vuC2fwywcdAmFlL59GnthA0Fzw/isVRUG1NP1I7Yrk+p6hAN6RSHxhsNXaG9KUY8ahKPmjQlIzuf5HRX7t23nv77fozZNo3EqZfUvfzdEQyxFHZpldSeIISgtOJx1HCU6Kyjduqa8qpl5J66Fy2WYsIHvrLt89Y8j6JqRKbPG1PdnGwvheUPEz/87ZhD2dmlnbM53xme2KN5oFQjSFa7Ob/YrlIUNcj7srm8cBQ3N4iWaNjuNXqiKUjhQpDQ1rcqw3KQqWY42CbKsYKtl0IRtK3mH2rhKF6lMGq6h+3tXLEvGbd3OZFIcOedd/KLX/yChx56iAcffBCAqVOn8qlPfYqPfexjYxo7nTVrFrfccst2z7nttttGPf6lL32JL33pS7t8T+nA4vuCbNFi7aYc3b15QpXXMTVwExNRYw20JAzU/gKEE2iuRdzLgykgmhjqmVK2JODczgel5wt++fd+VnRWMDSFkK5QtHwMTeGSd7QyITV+HxK+L7AcD18ILNujrSlKW2MEyw5+8TANbdj8qTcHV0GSwvyYEg1urbjicRACu3cdXjmHYpUoPf9XtDnHYTTWb86RVylSWfM8kZkLajl/Nm+zo5phjKaRPQ/5Z++n+PJSmk75CJEZwxMOb94rUE+27PGhLavzDXJP/QkUBXPCzB2+B0IIii8vBahta+ObUYze1yjnVmGbJokjTsUr58n8/deAwoTz/2tEFvvSymcpvfYkDSeei9k8adR7FV96jMraF6hueo3m0/492M5G2mlbJxLdU9RQBMUw65Z3SlE1jMYdT7EZtpPC0NZMI84ZSiA8GjUU3WaOs/3FuIbR0WiUz3zmM7vcUyVJ9eJ5Pr4QgILjelRtj/5MhUyhil8u0iIGSRkNmOEouH0gVLD0IOlmtAE8J9gORn1TVvUd/AZasX1+/9QgKzqD1AiOJ3A8QVtSZ8miVjoa67MMuEaIoK66SdkK5ktFQjqGrpKMmrQ1RtBUlWh4ZE+bb1dQVH1YIFF84W/kn3uQxnd8iOjMBTtVBbeYpfzG01jdq1FUjdQJZ1FZ91LtdadrJeG1y6lmNmK98RQNJ51PdNaRCOFTXvUcCEH0oKOGfREI39/hRHffsRl88Bc46S7Kq5fT+r5PUnzpMQqv/ANhBe9d63s/idm2pcdFCEFl7YsA5JbdT3jaYbX7Wl2ryD17P87ARvTGdlre84md2nj4zay+9VTWvIBwqujJFuLzTxk2h87u20Blwyu4+QGSR5+GkWpDCEHh+Uc2V5LyG0+TPOrdw8otvf4UlbUv0njyhWiRONam13GzvVvuu+k1rEwfkTXPsTkxhzpsQ3BB6Y2nSR1z+rD2KCx/CK+YYfDBm2l93ydH7TmweoJFRsKxGHzwF7Se9WmM1K7NZ7W6VyM8l/DkObt03YFgbyXXfCsk9dwXvTXy1UtvOYWyTW+6RKni4vk+qlvFxcDxQVdVGuIhvGoZ27OCBJvhULCvX2YjGEO5ZRR1aHuYTLCZ8Q683l3htc4KG9M2a/ssfBFkVb/kHa1ETZWujMMxM2OEjPqvjFOW3w19qyjOOx+apzG5LU7DsAnpQbDiFTPDei68SpHeP3wHRTNoOe1jGI3twRDVymcAKK9+jujMBRSef4Ty2hfwqyWMpg4aFp49Iqt05rFfY/euq/3cf++NwcT+Idbq59AznUFdXIfMY7+hsuZ5BAJr42sAFF78Gw0LzyU86WBKr/2L7L/uofFtHyBy0FFk/v5rrO5VRA8+Bj3Zgt27Llg+Xgi2Q4FgTkff//xgS8ChqOB7pP92Oy3v+yRiKCu5V87jlbJBG+QHKa9eTuzgY3CLGQb+enOt3m6mh4EHfkbL6ZeihWOUVy/H6lpF6rgztrlFCwS9Qdl//j7Imj9EizUQPeioLa//Y0uOQCfdTdtZn8YZ7MTu29KGpTeeJrHg1C3BX+86sk/8AYSg9OoTJI96d633Sos14JWylFc/h5sPVmjrrdNw+9dTXr182BZC5ZXPkDzq3bVy3WwvXjHIYeZXiww8eDNt514xfFuZUhavkA4mJrdMwenfQOmVx2k48dxttsOb+VY5aF/Ppe3sz2E0d+zwGiEEdt96tGgyGHYaUt34KoWXHqNh4bkYjaPvQytJe9O4BliWZfHggw+yYsUKCoUC/pu2elAUZa8kGpUODI7roakqqqrguzZePsiubAuV9RvTFCsukUSSkF2AXDfhaAqteXLwpeJU8coZPD20pWfKjAQbGdvlYDNjCBLlxVthKFCp2j4hQ0FRFNb0VXl2TYnJTSZr+iyWrS0Nq9+ElMH7FjRw2OSgm3tG2xiXy3e9EvSoTTkKqnn81/5OuXEWXutswoZOyMmidAcJb+Ov3EPq9MtJpCJ4pRx9D/0/ItPnkVhwKrmn/kTp1SdILTyX+NyFAJRXPouwygig/76f0Pyu/4UaigRfpIDdvRo3P0j+ub+yOQ281fk6fX+8noa3vb82R8jNDwbBlaKQOvZ9FF54tLZZcuzQkyiteBx3cBMKoLdMITJ5NoUX/kZ141CiXk0PVlnlBxh8+P/RtOgCck/9GYQg98yfQVWprH0BCIapRlA14ocvovji34aCK4XUCWcTnbWAvntvwMsP0nvXNQBEZi4g1BHMCQ22Dgp6jaKzjsTuWRMkaG1sp+HE80g/ehtupofcE38ktfAcsv/8PcJz8KtFmt65ZNQ93oqv/DMY4gPCU+ai6CaVtS+Qe+bPhKfORVF18suCKROhyYfgZnrw8gMMPHgzfqUIQHT2cVQ3vIJfzlPd+BqRaYfh2xUyj/0m6K0kmHcVmjQbq3sVKCqN7/gQA/f9GDfbF7wn8VYa3/ZBMvd8B2dgY22eoGKE8CtFqutfqQ2NVjcE74PZNi1YbVZMY3WtJDLt8Npzbe69MponkTzqNAYf/DnlNc+TOu6MYb2fvmNRWfcSoQkzRgxDVje9VltlW3jxUZpO+cjI93Lr8zvfIP/s/cGWL2aECedegRZrwLfKZJbeiW+Vyf7rj7Scfmmw4bTnMvDgL1AMk4aF5446cXtbvHKB/LL7iR58DKH2mTjZXpyBTURmHvnWShci1c24BVidnZ1cfPHFdHZ21hKEplIpCoUCnufR2Ngocz1JY5YpVNnUVyQWNuhoiaJkOnHS3QhFpTdbxSpUaI6FUPxIkGxTV6GShnIM4i1QyaF4Nr72pqE6RQlWBG5t6MP1ta4KP3+0j+NmxTnnmEZuXTpAvuINu/S4mTFmtIWZ2RaiNbmTc3d8DzYuh8YpkHzTb+LdK1CX/wEA0fUKFAfQ7TLJnleg+RLSTiPmumVb6uBUqDz+a+JnXk7p9Sdx0l046W7UcIzSq/8CIP/sX4hMOxQ1kqD0+pPBI0bi+JUi6b/dQWzOcbXyhOuQ/dcfAYHRMoXUcWdQWP4QVvcqMv/8PUbzZIyGNiprngcgNPEg4ocvwmybxsADP0cxwySPPp3K2hfxK0GS4PBBx5I89AQis44k/+wDeOU8DSeeh55sIv3oHVidr5P+2+1bmqdaIrP0zuDa6fMQro1wbELtMxCei5PpJTb72FqwUHrtSRpOOLvWW9R0ykUM3PdjhBtsf1JZ+0KwCgqIzT2JyprleIVBrM6V2P0bg/t0HExownSa330J/X/6IZV1L+LbFYQXLBKobnyV7ON/wGybhm+V8Ep5zJbJoGrknroXgPi8d5A85j3g+ziDnbj5AXJP/RmjqT1I7BhL0XzqxTiZHvrv+zFO/4bgvQhFSSx4J2ooEgx1vvAIofYZpB/7DV4xgxZvxLcreMXM0JwqiB58NKEJ09EbJ+Jmgkz+dsfhqJE4oUkHY216PciknWwhPH0+xRcfpfjqE4Snz0NRlFqgG5l1FG6mm9JrT2L3rB0eYHUHAVaofSahjlm1HrPKhldqw8jlVc+Re+Y+/KE9/hoXXUBk2mG1MirrX9ny57Uv4RzZh9EQDDF6lUKwbc3QLzzFl5eSe/o+Ngf2wq6QWXoXze/5d/LLHqwF8HbPGqobXyUy9VDs/o1BkAz09VxP46IPDrv/9uSX/5Xyymcpr3mexLx3UHzpMYTn4JVyJI5YPOxc4XtY3asx26YN6+WrF+H7waq/eGNd8zJZvevI/P3XpI4/i8j0w3d8QR155QIDD/yMyLTDSB79nj16771l3AKsb3/72xSLRe666y4mT57MiSeeyPXXX8/RRx/Nr371K+644w5uvvnm8bq9dIDyfEHvYInO/hIgKJSqVPs7aVEyxBuaGCi6pG2fVHMKRRHgVoNhPt0MeqayXcGQn2sh9DDUZqmMLld2URWFaEjlnmcz+AKeXFWkP++Qr3ikohotcR1VVXjvggamt+76h62y8h8oq/6B0AzEMR+ElmALJz/Xi/pC8GUtACUdfAGj6uC7aMvvpum4i/A7g54d48gzcF95BGewk8q6lyivfn7oDiIYVgruhnAsck/eS3T2sXiFNIoZpu3c/6T/f36AV8pSeOHR4EwjhHAsrM43AIjNPpZQ+wzM9/w7g3/9f1idr5P95+9oee8nKa9ZDgS9QxD0hEw4/0ugqqiGSXjynKC3TDMxpx4a1DfVRvOpFw9ri6Z3XEjfn34Y1EszSBz1LvLP/AWEjxqK0njS+dsdmksdczrJo08b1rNkNnfQ/sH/BiD9t9uxulbWvoTDU+YiXJvyG09T7Xoj2MQXMFqnDF07iehBx1Be+QxW10oAogcfE3wRv/E05Teert1n6/7L2CELSR5zevDlqKmkFp4b9PgMDb0CxOcvRtF0zJbJNC++iMr6VzDbphKePBctmiA290RKrz2FM7CJnruuDTKlawZN7/gwpZXPUH79qWCYU1FJHHHq0PMcQjHTjRpvxG0K5pxFZx0ZBFhDzxs75HiKrywNApN1L2FOnIXdv772um2GKb32JFbvWoTvUXj+YbRoqtZmZvtMFEUlevDRwdDxymeDYeQX/07+2b8ED6fpCMci/citNLz9A8QOPgbhOrV66Kk23FwfhRcepenkC2pDpomj3k1ywTvJP/dXCs8/HNR/9nFEDz6GwQd/jtW9iv4/3VAbEg5NPAirexX5Z+8nPPkQnMFNQ3/Ng33+0n+/g9b3fQrfKlN69V/4VhnFDNH4tg+ghqMUlj+EGooSPehoKqueC6713Nq9AQovPEL0oKNqq03d/CDpx36D078Bo2Uyre/9JPamVwmvWY7f3gJbJXZ1BrsQgNHYvsNeMK9cwCtmcAsDFF4IemJTx59F/LC31c4RQ7n0dibosvs2IIQ/LG1HeeUzeKUs+c3zDvdgrrnymuW42V4K+QHihy/a5QnsvlXZ7r/9fdG4b5Uzf/58stls7bhpmvz7v/87q1ev5lvf+hY/+9nPxqsK0n7Et8qgqMPmiWx5rYKT6cYql+jLVhmsmsRiUcIG+HaGUjpDdzhKQrEZzFWJR8No2tBqP3Orf8RmFBwr6NESAowIkBlxv82eX1/i148PogALpkfpzW3ZfHd1X7CJ7nnHNjF/6k58UPStQln3dBDohZOIZDs0TwcErAl6lhTPgWd+A4k2cKro5aBuXsMUcjMWk1zzCEaiiZaF7yN9/014xTQ8+kNUQERSNM07ibKoUnj+YXJP/xm/nEfRDRTNCNpX02k65cOkH/kVlXUvUln/MgDRg45GC8dIHPX/t/feYXJUZ77/95yKnXvyjEZZQkICgSSShEBgwGAwazmRHMC+uxj8gL3Aeh+bvSy7vrb3er2+DovX67W9Ttz9gQ14HS7Bi7FBGFjABJODIoqTp3N3hXN+f5zqmukJmhmpR5oR7+d5ZDPdVdWnT1XX+dYbz1dxQUH8UWL1uUrcAADXQgsRYxzpDe9H98//D5zunej7zfeVW0rTa56KtehQfZroslNR3PIsKnOOC9t3jAW3omg672MYfOwexJavQ2TpWpR3vgKnewcSa945qRvsWG676n6xlaeHQglcCyxQRSWwdr0WxiENL0GQXHs+Stufh/RcGC3zkT7jEphti1B+6xVI4YEbNngkjtKOFyGKWVhzlyO17j01i5fdeQzSZ16K7NP3qgKNsRRiy04Zen/eCtjzVtSMWY83oPnCq9H7wPchnRLANTSee2UQrC9RfP3JYG5PCWOT4sedAT/bB2PJSRgMWkva849X7Uk8B/b8ldDjDUisOhu553+LwSd/pUo2SAmjsSPIWFQC3+3bi+IbTw0F3avZDRfs6NKTkXv+IVT2vIne+7+rXJVQwjFx4juQffo+FF57Apn//iWsjiXwBvZDeg54NIWGsy5Dz69uQ2nb8/BWnxt+Ru5Pv4PZ1Incn9TfyZMvRHzV2WCMIXXqn2Hw8Z+rApUAIotORPr092H/Xf8Ib7AL5d2vhRbIxInnwu3bg/KuV9H7wPfU/A0j88QvYLYvCj+3tONFVUizoV1ZZLe/gOiyU+AN9sDp3oHMU/ei8R0fhpcfQPev/jk8ntu7Gz33/gvcvr0wAWQe6oV10TVKkPbuRs+vb1MdCQwb6Q0fQHTxiTXjUK17BpB78WEl1mVtteH8q48htnIDKrtfQ+6Fh+H07oIeb0Trpr8M3bJ+uYDi608ismQN9HgDpO+pDNmXHwW4hvZLbw7rkLm9au68TA+c/dtgdSzBZKns24rKvq01MYFToSquIXwUtz2P+IrTJ72vEtwPIbHmPCTXvHPKn32kmDaBVS6X0dmpUn3jcWX2Hd5HcM2aNfjHf/zH6fp4YhYhhY9K904ADFbH4poCgFJKuAP7Ue7bj66cQCZfRtoEtLxaRLlmINHcjIIj0DNQRDxqwjxQELlhAQisTBWn5i3Pl7j/T4N4cVcREYPjrb6h95/aquwTF69J47mdRezpd7C0zcKqeZN4onLLYH/6JZgz1EyZAZBgkJEUmPDgpuZC6jbMvi1ARrl4JFSQcuOZH4ItLcRXfBJRW91Um867CgOP/hRun3qSjx27HrquIbZiPXIv/B4icIHZ84+DPX8lBh65A8k170Rk/nFInfpnyD5zP6TnAowhtnwdACC6ZC3yLz4Cb7ALekMHYstORfaP9wNSwp63ouaJU483ILXuPRj8w93hwmrPWwFujj0fVttCNF5266SasxoN7Wi5+Lrw78bzroLbuxtW56FXbbbnroAWb1B94ZrngRsmrDlLATD4WdU4mNsxaMNid7RYCsmTL0Lu+YdUvBFjiC07pUYgAUDqlHfD7dsDo3numAtQ7JiTEVlwHIpbn4fVvmhStZDM5nloueha5P70O0SPOTnMvDNa5qt4qWxvaL0CVKXrxnM+gnK5DGzfrr6PYaLxnI/Cy/TAbFctxRInvAPFbc/Bz/ah8MpjAIDI4jUAVCHH6hxlnr6/ZjxGY3t4HejJptCaN1xcpU5W7p/U+k1w+/fC6d6JwUfvCl3tkfkrYTbPgzV3OSq7X0ffQz+Bnwvapvke+n77Y0BKRBadiMQJ7xiav2PXQU81wy8VwDQNVucycN1EdPFqFF57ApXdr8PpVRYss3UB4sedie5f/zP8IOA/uuxUmM1zMfjEL9QDxltD7spqckb8uDMQPeYUpE57D7RoEk7fXvT86psobf8TnFVnobzzJUinBL2hHfHjN2LwD3eFv0GpGRDZXvTc929o3fRpFN/8YyiYpFvG4BP/CXvesfCyfci/+DC8TDe8TI/6HVbPXywNZkZgz1uBwiuPws/2obzzZQw8ckfonvYy3Shuez68/nLPP4TCK39A4bUnkD79A8g++0A4JggfpR0vIr5yA6Tnwh3YH35W4fUnwQxTlTKx4zAa2mE0tKHStQPZZ38De+6xiB+/UcW2SYmBzXfCL2SgJRoRO+ZkuJkeuD1vwcsPQFRKSjxbMRjpVkQWr66x2Am3EsbwAUDxzWcmLbCc7rcCwa0yXfVkE1jHsZPa90gzbQKro6MDXV0qk0fXdbS1teH555/H+eerlOMtW7YcliakxMxA+h7cwW7V2mFEPRS/kFExMVLC7d0DGU1jcLAAO5lG1BAoDfaiv2Jg0PGRamgKrFO1xGwNMXtq9YoqroAXhFBt7y7jnqf6sWfArdnmzOXKCvPo6zk0xXVsXJHEmoUxPPp6DhuPTUzKxM62/EF1qI81Qi44BV6uD3xwN/TcfrDSoIowOe5daOicB7d7J4r5IkoekOiYj7YO1VR2pGwxGjvQuukGuP374A52h4UjtUgC0SVrQ1dUZPFqROavRGT+ceETb/y4MxBbfhoq+7aAGXaYgcU4R3r9e9H/8P+H+PFngltRWO1LUNm3ZZSYAIDYMlXLqvjmM3D79yK5+rwDzwPnB9X+RrNj0OqU0s84R+LEczD42D2IBNYEzY7BaO6EW12cW+aPOq/xlRsQX3ngdlxM02FOUBeKm5EwwWCyGI0daHzHh2s/izE0X3QtpO9PqnikPXc5MGwOmW6gYcMH0ffgD6GnWhBbfhqiw2LvzLZFKOUHIN0ywDgaz/0oCq8+EYrxKukzLkFsxeko73oV3IoiNmzRZIwjfcYl6P7lN0IBBgB2YOVMnHhuTYmJqrsPUoDpBlKnvnvU97A6lo5+be5yFF57AqWdL4VxfkbzXHArgqbzPo7ccw8isnBVaIH1cv3Iv/gwIHyY7YvB7RjKO15UrsLFa8AYCy0+ZtMcRBadiNK255F/aTMq+5VoTa4+Tx3P95B97kHYK89El4gi9fp/wc/2Iv/yY2FSRuN5H0PmqV/Dz/YFLtWnIcrDHMqMw2xbiOTaC2C1Lwpf9gsDKG19DgOblbgymufBal+E/EubUXjlMUSPORkAUN71SrB9Bn0P/gCAsgRbHUuVkNzxAuIrN8Ad2KeyWrmmhNf2P4Wxk1X0hnZ1PqSEs28rpFNCYu0FcPt2wy9kAAClbX+C1b4Y3b/4+lBbsBE4PW8hvf694d+VfVsA4YNHEhDlAtzeXXAHh+LvqozszSh9DwN/uAuQElosBb+QwcCjdyF5/tVjfu5MY9oE1rp16/DQQw/h+uuvBwC8733vw3e/+11ks1kIIfCrX/0KmzZtmq6PJw6Bg2tAOrSvdB0IpwzhFMHNCLR4Gk7/Pri9u8CtGLSGDpjJRjBNh+u6yOzfA6cooEWi0Lr2oD+3Ddl8BSyShGXbEIUBlLQEUnF7THE1pfFJiV19Dh55NYvndxYBMKSj3egvKKUVszg2ndQAQ2dI2BqWtCmX5SlLYkhHdRgaQ2Ncx6aThmUn5XsBtww0zK39sHIO6NsJ7FBxOnLF+SinF6HiCcxpjiFW7kLu5ceBhk40LFuqSiokjoUQEmXHg2loEwo4o7FjVBHN+PFnorjlGXA7Bjuw+owslsl0Y5RLCgCsjiXouOJvw78bzr4CXqa35sY/HLNl/qyr6B1bfhrseSuD9j0Ka84xocAyZsn3YVw7pPpGVscSzLnyi2O/174Ipa0qJimy4HhE5h+HyPzRweKMMZjNc1WA/xgY6Vak121C/sVHoDd2wJ67PBRJVttCFf+1byvAGNJnXoLMk79GeedLSKx+56Qr7FsdSwCuheJKizeGD3FGunWUOE2ueSfKu1+HKGbQcMYl4JE4colGWO1LxiwqGz/+TJS2PR+KEWZFYQdxhLFj1yF27DqUy2XI7dsRPeE85P/758g996CKG7RjsOcuhyjlMPjYPUrYQQmZ5EkXQE+1Qk80jnkeo0vWorT1udDClTrlIugN7ci/+riyDHbtALdjKuOXa6pP4GAXzPbFaDzrClXrbccLcPbvgF/Mwgncg1bHUohyPnC1Mlidx0B6DpyeXfACC5fZvgjO/u3I/el3qi9gZcj6Xtn7prJs+x60eAOsjiUqOUHT4RezKL7xFAqvPoHI4tXQk82Qvhe6ByMLV8HPD6C861XkX9qMhjM+CADwgoQNp3snwDXY81ag8awrkH32N/AGu8DtOFo23YCBR3+Kyq7XUHzuN0DH5LocHEmmTWB94hOfwIsvvgjHcWCaJq699lp0d3fjN7/5DTjnuPjii3HzzTdP18cTB4mXH4Tbvw9GY/u4Kc5S+KobPWNhPI303aC2UBbwXQjfBWTQ4yqlGoRqsTSy2QL6d7+A1rZmRBuasacrg+y+vfCtBJAvQecmPKEh2ZwGyll4hTy0aBoNpjXlVi4lR2BnbwXtKQNgwO9fVqJqeOafBoH57lYYeiMWLZyDd52YQiqiATv/CNbTC9l8HqAZmNcUWFsH94Jt/2+gZ5uKlTIssC4VBC7WfgDoUDde9G4De/pOsCCeSTYvhte0BKWSgznNMTQmbSC5YMxK2Jyz0BV4MBgN7Wj5s+vBzcght+TQIglokUPr9SUqJfiFDGS1+v0MYHh8GKBipPIv/B4AYAYB7m9nzGGCOrZi3QG2nJjY8tMQW37amO8l116A3ge+i+iStdDjDWg463K4vbthto0t6MeCGxastkWhlWw8sVeF6QZa3/MpSCFC61/qlNHWsipm8zyYbQtDN2J0yZpxf1fmwlXQXn44LHMSWXQiGNcQXXoSss/9FqKYUbGQZ394wtpd1pylYXavNeeYMF4qumQtim88hfzLj4YWU6t9MRrPvRJu3x6YrQtD95zRMh9uz1so7XgxdBuazZ2ILF6NwutPIrr0pHC+/FIepe0vQE80wJ63ArkXH0H26XuRffa/wO3gYYRxQIrQOpc+44OwqyVPqkiJ4ptPo+/BHyoLqJRhiRB77nKAayjvehXFN56CnmoGt+NhbCIAQPgo73wJPfd9R5UXAZDe8AFodgzpde9F155/gte1HVps4hpqR5ppE1hz5szBnDlDE2BZFr70pS/hS1/60nR95FGDFCJ0mdUdxlXbBE2HdMoQTgleYRBMM8BNG27fXgi3DOlWAN+D75RUPA/jYIYFLRKHlx9UwcCMhQHFUgowcHDLBrOi4JoOxhiEW4bbvx/cisKRGroLDAURgejJIDIwiEymjHgyCS0ShZQSvgA0bijLTbwBmpRTdiuVHIHNr2XxyKs5lBxVe40zQATTaeoMx8+NYMNSC82v/xzpwi7lpjOWQ5bXA/veAn9NZdLBLUOufq8aw75XwJ+9Z+iD+nfWTu2L90KmOwErDvbS/WDCh4w1QTQvQnHe6agUHTSnImhITn8mzESLzOFEuBUwXaspOjrTMFsXgkcSkL4Hs/nICywpBUS5eFAV5A94XN+Dl+tTLYAOYP3Sky3K3ScFzPbJB0JPFattITo+9HdgQW85rpuwgjixKR1n7vJQYBktE1/7TNPBpmD8ix93JvoDgRU7ZrS7PDwu15QL+g93AwAiS9aEn5c6+UIMPHY30qe/f1KFURnXkFzzTuRfeQypUy8eNpYzUHzjaZR3vhQWpbXnrVBCc8TcRRadALfnLRS3PBvGcBlNc2E0tCO9rtaDpEXiiK8ccvHGjz8Tpe1/gtu7WyXUMI74qrPCBxGjqXNMl23q1HejvPvVsKabqjWn3L5m+xJww0TypHch+8wDQ0k0wfEazrocfn4Qfb/9USiuYseuD0tt6IlGxFduQP6lzbD2vgg5orbmTIMquc9AZKWAyuDesG5PfQmsTlwDfAfCc9XTmJTBE50FI9UKv5BBZf9Wtb1hA/AhKiV4mV4wroVmbSl8tc2IFORSxUN/tgzH9cE1G5oj4XoFlB0PjakoMgUHBUci3pSEFjQSZYxBH3nTm4K4Kg8TVsVAWCUiGvJlH0ICS1otvOO4JJZ3RKBzQDxzD/TCLkjGwaQAul4H63o9PJ4EwPa+BJmeA8w9EexlVRxSti2DXHgakO8BK2chO44De/FesMxe4Jm74Kc6oRf6Ic0Yyqd+DAWPIx410JqwkYyZ0KahqTKgFk/wid2K0430PYhyATwSV4u48MB0GxijAftMgWk6Wv7sekCImkzFybTqmQ5EuahKCujmpBv0SiEgfQfcGL+grXI3MUjPARsnIQFQv8XhMTT1RAoBP9cHLbiH1KOOlD33WGSfvhfA9Dxc2POPQ3TpSWBWZMLq89Ela1Ha8SKYbta4z6NL1yKyZM2Ufp+xY9cjdmxtzJ7R0I74CWcj/8LvQxFjzxs76Du66ARkn3kgFCuAik+bDIxxpE79M/Te968AlJUstvy0UGDFV5015nfhVhTNF1yNyr4tqtCuYaH81ivQU63htRw/4R3wi1kUXn0ceqoFkSVrkDj+LDDdgJFuQ8PGyzHwyB0wGjtqxCUAJE48B4U3ngYvZ1UrrBkMCawZivScUa1I6nJcKZRwEwLMjkMbx9StxVKTWlwcDyi7HjxfIGJq4Jwhk3fQny3D9XyYugYpASElGBiSUQucMaRjJoTAQcVUCSnx/I4i3thXgutLFZTKgZd2lUJh1ZYycMEJKZw4P4qyK1B0BJoTw9xu2/4beterkGBwTngfjFSLcv3teVFZnpacDmnGwF59EPyV/4Lc+UewSl4Fqq/5gOpF2LwQVRujf+J7oT32fbDMPuhBFmBp0UZUpI72pgia03ZN25p6I6WEm+mBFonXuPSk70F67gHLG1StJdyO1dwwD1Q6Yzz8YhbSd8F0C6JSghaJK6Gq65BBFqUU4pDi/KaLkS5xLz+ofoeplsMuWoVTBo/E1W91kgJLlHMQlRJYenzriBQ+uGFBjiN2hVMC04wDupb9YgbS91TG20GcQ+k7kJAQTnnMBsAHg55uhdm+GH4xOy0xdIxzNGy8bHLbajqaz//zsd+r03WUXHs+Kvu2wu15C1qyedy1Qoul0XDmpWFBWm7HoMUm76q32hchsvAElHa8oMpAJBqRWHs+RDEXJtaMxcjY0JEu4qqAV6VXoqPmJbr4RFjti9Q9acQ1xq0okuf9Ofa98WJNHOVMhATW2wzGeGCRmsS2gSDwhUDfYBkCQHPKBmcMJcdDJldBpuDAcdXNWtM4NK6aKkdNA/HE+HFEjDFoU7w392RdvLKnhCe35LFv0B1zm9akjgtOSGN1cxk8FgE4Q9TSELWGfVi+F+x15QLs7TgF8ZalgGVCnvBnwLJ3QBYHwoB16RSArY+DFVRMhb/yQrg+w/DDFSseKojBOvljsHf9N/T9L8NsmY/02g0AGGKRg4+nAqoxbwNqQdN0SClVbZ3hgs33oFlRCLdSI7BEpaAWXdMe9+YuykVItwTJOdiwUgyiXBhTYAnPUYvwiONJKSE9B2b7ImXtHOxWQorxYdZOQBQH4XsWpJTQoglww1KtjgqD0GMNYwYajz0vAtKtHFLxQb9cUO7xESJGVIpgnIOZNqRbAZuCyDxYqhYrQP32uGGFFecntb/rKGvQAVyx0vfATRtiRF2oKn4xB3AO4wAPd9J1wWNJ+Ll+dU1O8nwNjcEHN6MqDKFOAosxFrbLeTvAuIbGd3wYmf/+VdixYDyii1fDL2SQffpeWHOOmfIcNZx1OWIrN8AM6p9NlC08FQ4ksKuZnGO+l2yGnxjdjHymQQJrliCEhOsJMM6gBy4mCQnPl2phC0wpjAEMDIyzoNYSggW59niMMxia6qnnCwHPk3A9H4wzcMbg+wK+BIQvkSlUkM1XIAEUSg44YyiUPUghELENxGwVb+X5Er4QiB+CoJBS4o/bChgoeDhpkWqM/OreEp54M4/tQXFPALANhvXHJJCMaID0Ma//SdixODpWbwDf/Rz45nsh562BPCEwL/se2Ku/BXq3AW4JTPjwmxYh23AMap6B7Lj6F+Adcw5K8YWIv/UoWNMCZCJzwBwXXFPnIVt0oHOOua0JxOxG6CuWgAn3kDO8hqPajtjwSzno8QaIYgbCdWpSnKXvAroB5ns1lkfpeeBmJLAqjW0JkW4ZWrxJlY8IBJaUAmAccsSF45dykJ4LKQW4ZtQ+DfsemGZAiyTAmAZP7oP0PTBNVyJNBCndEjBb50N4Dty+vWCJRlVfJ5aGVxiEkRq6cVZrdVUtKsPdoH5+UB0sECNSSgByzEKj485tuQimaeDGUBNhKXz45QLM1oWQThFern9KVrwxP8cpgRkHELluGcItA+UCmGEqS0M0CS8Ilp4I6bnguqHOWSCwWKUAP9cPt2KAW1G1mAkfzDCBanzMyGMYJgAVOzmWq1EGMZFGug2+YcHL9I7qNzghwgMzI5BOeUq7Sc8dJeak76nrYwa4xg83erwBTeddNaltE6vOgj332Jr6bpOFafq4WcTEgSGBNYMRQqJYdpErucgXXXiegOq8wZRwgoQQgBAIF0IGBh4UMa/ebmT4P0M6izNA1zkYA3xfwvclPF8dH4xBiqGllXMgGbPAOFAsqUUyZhvQR7j3dI1Bn6pZCioofd+gEm6bX8viuR3KlXT/nzI123EGbGzpxzprC9LL18DqaFALxnM/B8u+BmQBkeJgW/6gdtj1HLDoVMCMgv3xZ2CDe8JjScOGs+JdwEAOB6JQdmG2LMBAqhO2qcOUErGIgYFsGRrnMHUNna3x2hpcfHIunckghQ/hezCTzXAHuiDcirIK6XqNm016LpgdAwKrDgusOlJKMMNUQkU3lUWEa+GToxQCYAxaLAlRLoTtKKTvqcVsWByg9D1It6IyvBjgdO2sFXNVkaebYIYPME21d9EtcDumFmfhA5oGLZqErpsQ5SK8wR7waAJGuh3SqcAv5QHG1Fh0HdL3VLq38OHl+lTcjhVTwiiqLClMN+Hl+gCpCmAyxkILl/RdFQ82QnhJIcC0Icta+LpbAbdjMNIt8PODcDM9ah4PcgFXblMPzHPHfCqXUsIv5mA0dkC6FXiD3TAbOpTrhHOVQDKBaBROCcyMQgovsGBxQPrQmzph6BxepgcIzgFjfOjmMHwcvrpGtEgC7mDX2LFcVcEcXF/uYPeU50b6PjjXAc4n7Sr2S3mIch5aojEsRCylhJfrB9ONKTV1PhDCdVS9plnWkmUyVAPrRaUIKUTdEyiI0ZDAmsFk8g729OYhpIRlaLBMFc/kB5kTGuPQDQZtxM1NILBoSQwJrcCyFW4jJDzfV9XCGYduccS4roSbUKJqrJtmPHpo7q7hbOsu477nBrG9pxJm+AFKSC1osbCjW1nN5jQYOGF+FBujWxB94zdgBQE8+5rK2HNLofsOAPhrQ209GAC8eB9QzoKVMpCGDXnchYAVBWLNALcBjBZYvpAq61CoeUonLYisRKHsorMljlTMQrHsQvhAR3NsygVOp4Io5aFFkjAa58AvF+Fle2E0dkCUCzWBytL3oEcSkJoBL98/tEAwgOsG/GIOUkYhPEcV7asKLLcMZkSgJxohPRdO7x61r++pOLNhAqtqXdJTzUrQabqyjHEVpCw9FzySUALItMAMC6KYhdHcAKaZ6nwIZeViuhn04etExXdhNLRBTzRAeBV4fXsA3YTRNAdcN4Iq/wgrRTPdgJ8fhNm2AFokAT8/AD8/EFjfGEQpC6ZbqnmwFQ1rJGnR2tiTqnUNUtSIBCVgLfU9InFw3TxoN6FwypC+ByPdBmdgH/gYhRRFOa8qYDe0K3EkAT2aBDQdTDMgPU9ZnYbh5QfBLTsUQcJ1YDZ0wC8MhsVBAYBZEXBDgxwQ4fWgMvbYKGEkPQc8loKeaoGf6w9cjrWfO1xEczBlOfQcsCkEqssgkUBUihMG2wOB69kpQUs2QZTy4PFAYDklcCs6ZUuYqJRUJvUYwk6UcpDSP6BLfbYjKkVICRJYhwESWDOYTLECBqAhPvLmdeCnWW2sx9NRG7ExW8owdYC64AuJsivQm/OwpauMrfvL2NZTgW1wzGs08fLuUmglS0c1cKYqsr/35AYsbrWRC+pVJZAHe/W3YK+risUyPQfI7AstUpJrkGs/CLb9KbC+7aoFzepNYM//EmxAZc/IWCPkyZcD8WHujMroLM1i2UXFFZCQ0BhDNKKjMakC1AdyFaQTNkydo6NJBW8nopO3VolKSaWHjxGzIpyyctUNK64ohYDwHdjpBUF2TSukCBbrvj1qYQk+Xkqp4m90Q1krgKH4J81UBWC9ihILwgvFhaiUoTe2KddeLA02sC8MjGdWBJJxZeWSApxr0FOtygKim4AeWMaCxVX6Hngg3FTZjwj8QkbV49IN5drzHLV4BS4/LZKA3bEkFC9GqgWaHQtreIlKEVwzlFsyEFhm63y42T4YqVZlDYulVeubxjkAY6js26LKLbTMV1aoQhblfVvGEDeuEjFSKkFZPS9CgOlqfNywoEVTSrROUWAJ14FfzsNsVmnxfqUIv5gL+v2p4ooMAAwLZuOcMJvOmrNExaxJGfYQHB7oLqWAdMuQDIBhB+eSq4SCShFeuQDJuSqtwvUgXi6w2DEOZgXzP/w7AxC+B8OOQ7NjYFXhMlJgeS54VIloGBzcjqlMtikILMZURXtuRVVx0AkElqgUwawo9HgDnEImtHr55SL0ZCN8d/ICS7iOSt5wSmH/xprvJyW4YR/QpV67/YGtiyqpyK1LpmQ94Zo29IBxGBHV30C69agVsMMhgTVDcTyBctmDZc6sTKuJKFR8bNlfxuNv5vHmvvLI0C8AQMX1kSmqINtTl8Rw/qoUmkYGxAsfid2Pg3W/AWT2g0mhhNOyjcDSM4FCP+TALtXAOdUB2AnI1BzghV9BNi8COlcB/buAt56BbFoIufaDY9zIZWg5k1KqeCqNY25rHOWKh0zeQVMyAo1zNCQsJGMmdE3dTJOxqbkBpZTwy3kADEZKBRCr+lAmIKWytuhmTeyLqBTB7UQY56TF07B0E1o0Aa0YhxsEQKsFJ6hvxrhye/meel3TlejJANKpgNkxMN9TWWp2FBIiDIrnVgTMsJUb0vfADQusUgKEDyl9gOvhQsEYg2ZG4OWHN8uWNQuJFk3Az/cpa5CmK4ElXDCrNrB1eI9DxrWaIH0WiEbhOSq4Op0ANyOwhqWaGw1t4HYUWrBgGo1zwE0bWkK5CrV4Glo0Bb+YrXUl+R5Y4DYLXaIIFs1hi6sWS8HN9gx9S+GHxROr7lHhlFXdqkSDqv/mlOGX8zAa58BoaAfjmurztvdNFWsVzKHZvhhaNFkj/Kr/zRgDj8RVI+3h+D64aYeZgCo2yQI3bSVUhQ9IpuZbVwH8TNOVFY5r4GYU0PSa71wz31DZZl5ptHVX+h54cP4YY9BiKXi5/lHPZOp8OaOsJCpOjqlxReLw8qP3Hbm9rBRhtC5QlcozvSpuTjfAdRVbNtk4NUC5a/VkI/z8wNjuSabmQDoV5VIv5dXvYIyHIi83AAgXWmL8GDRRLqpkkXh6UiJruGAb6c4Ptxlj3H5hEFKIMUXjmBiWSog57AIrCEFwyxNaLkft61YAsEmXLZkJkMCaoVQcD47HELVnzinyhUS25CMV1TBY8PHgixns6nfg+RKuL+G4AvmKACBxrLEXF9i9eLSyHNKI4pTmHE62tqHd3Q1fMnSzFvjz1mLh0jGylYoDYM/+XNWVCpCN8yGPuwBItqsX4k211igAsOOQp35oaJ/j3wU5b7XaJ1gIK44PzxfwhUSp7KBY9lEouyh7ErahYU5LHFHbgJQSqbgF21Lzr2p0HfwTl/SCDC8plYAJLDKQOYBxaLE0uBVRRVlTSmBJpwyjdUH4lMm4FlYg56aNsJGs7yorhaHcWjAjEE5ZmQo0XVmENAPCKcNqmgMpBJzeXYDwgkrt8WHHTwYLulRZiUXlMpG+D+i6chsGcDsKGQgPKQXCGmsBzLDBrJgSfrpK/ZeMH7BO00hYsMB4uX6lGca4KWvRZE1s08g6SErctMPp2g432wstEg+sFMqtKhCUpKh2fBR+WPiy+j2V+HXANB1etg9cNyB8H1pUHcsv58ENW9X/MlVCgtkyH0Zje7hgarE0jKZOOL27wKSE3jR3wtghzYrCG1FMUVneTEivWvbCC0Us03VIyCCujANcV+dEMyDccmBZtALX41DSiPRccG1IQGumDU+OVcSxVkSrODEtyEpkoZVPlPKAlJAjxYnwwTQtLGwMIHRVevkBQEjoySGRIIpZMDse1t3TUy1wundCChd6olmJU7BRliThVgAplAUv+HxRKYIbJoyGDkjPhSgXaq6boQcV5V5mngXpVuC7Ts2Y1LFK6ntEE+raNMd2t6lyO03KWplsPqDVRlSK8Ev58KGLGaYqdRLGS/rw8xlI4UGLp8NYNAAQngdumOrBKcgSHavchhR+kBRiqoxRxGremygerprpejCWLyml8gzYUfiF7LiN4cfDL2aDc1yfzNPDwcxZvYkaShUPjJkH/kEKif6CB9eTKnuQMWV+D+Kuqn9X61DJYYHuUZMjanGVTVcpwdPVRWuVusF8BzLdid68wPaeCrI93UgNvo7fDi5AtxuDZVQzBkePabm+F5ck/ogWNggAeFfzW5BzTwR7czNYeWiHBeiG3PIGZPpyoHnhsC+eAXv8h2CVAqQRgTz2HKB5MRBJTVh0VATZktW5EJIhZzQDJQ9RS0eh7ELXOEyDI25oaE4aQGUAhs6h60PiCsHcHWp5heHIoK4R0wy4g10AA6yW+fAKqlie2dihennl+pU4AsAME3p87Jo1TLeCZAQRxuhUSydo0SS8/v1guqZiokw7zDDkVlTdvKH2VZ879D01Ow5X7ANjXN0AOQ+C0Txws7a59XAxJT1lDRkeK8Qt5QbiVcuabqoFf4pPoNyOQ/bvBzctcPPgXC16PA2mLYWX64fbvw8sqRYxbpiQIgpZGEqokEDNAsIMO3SFSa7m1GpfBC/bC7d/PxDj4JoBPdEIp28PhFOCkWqB0dBWs+gzxlQguxAQ5dzkqnlbUTArAi/bCy3eoFyHvqdKrQSnQtWkUtcJ48G4hQ+p6UowaEpkiWIWPBFV4say4VWGGg5XA9yrFix1bmvjtFRCBB9xjqOqXlcQawZIlbUqBfRYGn4hCy2eVhmqpq2uNa4ryyqzlcu66o4Tfo3FW1RKACTM5rmhqNMTjUqYcU1Z8QLRC98H9GHWxEAIiEoxSIjQVWZoyzxokTj0VDOcfdtqv5/vgXEdejQJP9sHUchCS6QDUTMsoUQI5fptmQ890YCy58LP9IGVs6pGmGkOJX4IoeL4PBeimK3JupWeC68wCC2aVCU5ykUVX+mUAeFDizfA6X1LbStlUJy1CdL3Qwvb0IUCZRHM9kE4ZXX/qxQBcGix1LBEFB+M6+BWDH5ucGiu3TL83AC0eMO4rnDVYSQHZlihm1vtWwkKnkrVE3G8FmtBiIIWTcHLDUwpOUJZ9i1oiUa4A/sh2eyQLrNjlG8zSrteQ3nHi4iZMTjdwLbuCnb3Oxgs+GBcRWBxzuB4AlPtFLDPT2On34xmnsPp9ps41dyKBC/jLbcNWWFjraUCigdEDG86nXCkjrPt12EyH0uir+Eb2QuxCD1YFXkLC+wcYlEbhaZjATOKeGYrYj0vAQCkbgKaCVYcAHvjYfVa6zGQnavUTXrnM2B924Gn71ClFOYcD/iO6t9XKUAmWiBPuUIJqwmQUiJf9OAJH5wxCKlEpi8kEjEThsaQKbiIRQy0N0ZDEVUul9FvK5egaVpTcsdWWzRMtsq38FwYsZSKS8r1qWDidBu0ZLOyekSTShwlm+AN7If0fRXkPc5TXtUqJH0X0nfVTTS4WWl2DC4E4KnFTmXdRSCkDILfmbLKRBKjGupyKxKm+zMjsHS4ZXVjHnHjZboSTlL4w4Kfh1l+gtYd1XExMzJkUZkC3LDANK1GABwMWiShrBP5QRVfxJiKPTMlvGFLOwNqXXaMqRISgSvKbF2g4pQA+Ll++LkB6A2tMBo74JcLkG4FRuOcMa0BjHGYzZ2A70+qfpRmx2B3LIHTvxderh9G0DyX27qae6nSiKvXCdN0VZ7F9yBHWOG8QX/IBWhGarInVYD7UOHQajut4XFaylJae/4Y12B3LIWEhNu7G162Ty3gmgEtnoZfzMLL9UKLpSEKWcDigKYFAfyacse5DiTX1DXHAisL40rEtC6oWcyZptdmYgauZyl9MFTH6YFbEdhzl8Md7IbTo+IwjXSrSiQAoEVTYFYMopgJfwMySOzg0aQal+9AT7VCeF5YNBeAymaMJmGkW8A0A3b7IviRNPycD2ZGVCuiWFp9R8ag2XFwMwqnewe8bK8KzBc+hFuBHm+Alx8Ei2tgGoeebArfl54L1h9kuQoBplswm+fBy/fD7R2WER1Y3vREE0RFPZxZrarYqtO7OxyvGrwHcF1ligZZnGAcfjEHLdUMUcyNL7B8R43NHbJ8ikoJolKE3tgOrptw+/ZAeE6NdS3c3ymDR5JKxA10jekmrIZNjBReolKCHm9UfUKlhLN/F2YDJLBmGLw4iNzmb2P4MrIy+IfoiI0P0hWdERGkeG2hwaVGFwDVr68sDTTwAs6w3wjfF0xDs5bHF1p+BVZ1LUgABSBeqL3Y5cJTIZedDfgO8PQdQK4b8thzgUXrQiuUbD0GePZusO43wZ7/BeS2J4ByHswpQFqxSYsr35fIFiuI2gY6G+IwNGVdyxVVAHtrQxS6xtBY8WDqGgx9tCDShAOtXIJXlkEKemzCxc/L9YNBhu0+DoQKNmfgpnra15s6ocdSYa2salYUAJhNndBj6aBUwPhZPkw3VQC0UwaqlqkAbkXANQN+pRhaGzQ7HsRnqe9ltsxX4mvEjYyZNphhB3FIBrhuqqDpYY1xh8ZghJmE0nOhxxtGBfyOtHhJw56ye4GZNphuQrNGV3WeKlw3VUxV/15wwx4mFoasNRJQraSG72fHwDUdYBx6YIXgdgxaohHS64Ieb1JZkS3zgvNxoDY0PLS2TGrMdgxGul0JQ+Grc2FaECVNWW6kHHIja3pg5SrWWDiU1YcPxdBpRk0qjPBcGMPipZhuAoGAx7C+pdyKjhLITFfH0mJpuIPdyoJi2tCTzRClPIRTVokZlZLKBkw0BtcFA48k4PXvg+TaUON4z1EWqhGWkjHRNFXuwfeB6k9W+mCGstQZDe2hO95onhteP9ywYLXOR6V7J7zcAPREgzpvQeHbqpjSYmnoThlO91vha9KtwGjqHOqfaMegCQYZScFsXwItux+ilAstZ8wwoZkRcMOEO7AffrkIaDrMhnZodhyiUoQXFBJW3RRUYV4BgPHgHAihHmAMUxVpHea+rVreuB2D1bYguIep+4HheyjvfRM8KKciha8sssF5lK4DKVRcnR5vQKWQCd2tUgr4+QzAGPR4Ooj1MwHph7XwRKUIo2V+TQkIL9MHnhwdCxY+ZBqWsrJne2seIL38oHLrauWajF8phbLSxtNgTFnkwHaOOv5MhATWDENEktBWbETXtu3Yn1NP1bbB0BDTEbN46PKTUFYaQ+eTyRkMDu4DA7uQgsre8xoXw+lcA5Zqh7nrabDSIArzN6BsN8Ht24JYpRtaOQvZshhIz4V8/Idgbkk9bS44BbJhLlAcBNv/ihpUog1y3olAY9CqwrAgz/gLwC2rYPThaDrkSZdAbn0MbMtjYFkl8KQRgbP6EhR8G3rJhalrqLg+fCFgGhosQ1N1wKSE4wgUHRcNCRutjVFYxtCiODIIfdxSCr4LWSlC71gIrunwSzn4xQwgAC2eGjuV23XAdQPMjsHLDUCzo6rtRyQxpjBTKf4RFUTOGMxhLSRGUo2DmgjGlBXKzQ/CaGyvMcszwwYzI2BeJVwE9GQTpBjaZrzPYIyDR5OQngqIZoZy3Qyl9w/btiryPGVF4/bIJ4BatFgKfvQgCh3qpmogXqe0ci2agjuwT1kYgvNVtdZITQsK9Y5szxFRYzDtGjFrpFrUzT+IjatX65eRqAQEFRMEhrD8hBRe7bnhmgpuByD5MDenZipBGYjkapkCtVD6gagYuiZY4IITxVzg+lOuWrXIjX3H4XYsiEPLw0wvUrFvzXPVomnYYIPd8Ae7oA+LwdOsKNygAwCPJJSAdMoAU9a2ibpOMMZVfFxl6IFR+kOWOsa10OoxUthrsRSstkWo7NuiGtz7XrjgG40dysIZuNy5rqsaWZBB0/sExoJpurLc5QYgNCcsaVGdH7N9MRAU8Q0tzskmiN490JONtS5lTVmEpadqm1WzN7kZuFaDwqtVy5tKaKi18GqxFLRoEqKsypQod7IVJBnE4Gf7wTQNZksntHga7kB3kD1qqXtbJAFRzgWZqw60RCNESSVxCLcCo6kjcIWr76Inm5WbsprIoSl3qcpY1MLfjp5ohJ8L3JmGBT8/oFyPySa4vbtrMhxFpaSyToPfP7djYMbsqFNGAmumwTjMU96Pu998Dq/mJTYsi+P9pzSCH6BB8FiZeuPiOSr7LtYELZpGeJmmLgAAxIN/SK0adWy57qPAvldU4PiwhVIuqW1GOvL7jBJXVbgGHLMRsvME+D3b4dsNKEVaIbmGxoSFsuvDcX1EbR22qSNbqCBfciF8ATDA1DW0NcYOus+f9D0wpwgt3QazuROMceiyHaKUhzuwL7BSqQBaPdkULrqinIeeaITRNAcVoQLAeSQBv5wfM/5AVEoqLbnOGTtaJAm0cJhNnbUxQ0F2l6wUhlqvaAbYJI0/RrIpzFBjuhE+0Y4cf1XkOd27oKdaJqwSzXQTmEKA+/DPMRs7Dsk9OBweiYGb0aFgXcYATVkKGFONy0e6fhnjMEbEqwFK6NgdS+oyrgPBNB1aJA4v0wPONSWgh2UGDrdggVf/Df16uWEqSyCvWl3i0BKNQUkPBj3VMsrqxq0YvGw/wAC7fTH0YRX2x4IbFrRYEtIrh5mGwxd8PaGy92qC5E0bXNMgnDL0xg5I31PZi1IOs3RNMDeGCTks41FKUeOiOpDVU4smwKMJFWcVBJar7z7cIhyFlmyG179PWTCTzQe0UFaL4EqnBD3ZMsrdPPKHaCSblWVvhGhTVu8gU3d49qZpDWUB6oZ6L5IYs1wE03QY6TZVpiRwJzNdzb/ZNBcy1aqshUE/QC2ehtu7GygX1D2usQOVfdsCt6BQVmTNgLNvG7gdhTEicJ9HEtDiaYhiFmCacjnaceWmTDaF86bFUtAbO+D07gZKeWiROMzW+ap0R7kAPz+o6ug5ZXBNg55uC88p103wcQTuTIME1gzEFxLb+9XN8eTF8QOKqymjm0DLQS4IyTbI5MSBuWPh+RKligo2rzZ49nzVnqciIkDTSpgGR8zQ0ZC0kYwakBJwPQHTUE97LQ02Ko6vWgYxFhZfnSpSCkinAlEYhIikoTcMZXqpJ9YEuBWBnmgCIOH07wsb01ZT9LVEoyoXMGepattSzKG8d8i8XkVlbo0f+Hko6MmmcduUcCuqSjIchKirLZugK5eLbowSF4CK5dHiaZgt86a11s9krHqTpeomrLqrGddUBlalGMb0YIx5m45zOBW0SAJu3z6wiLJgMNOGX8wq91/VElcVW5oGOWy9ZXpgwaoKMcagp9vgF1Tj5rHS+6t9DXl0dKzeuGOMpiAq5TEFiGbHgkSPYQ8Dpq1qaFWtR74LTwhIKOvWZGC6heHBqEyOtrYeCD2WhpfpCyyBo+MulMCfo+KNioMTPkiochlBrOUEVl1A/d6s9iVj/laZFQEyPSqDNiyRwqFFE/AGAqv/BC5pFURvq8B4SBVjGYwTI+Kt9GgSfkRlbRrptkDYJ+BlewGmLNqarjJRtWRzzb0inKuW+Sp2j2twB7vgZ3qgp9tgDnPRAlDuW6cMSAmjeW4Y+2U0tEM4FTDOYbbMhRZNhfX1wjmLpoApnOMjBQmsGcjOriLKHhAxOeY3zZ6aH4DKbOScQUgJ1xXwfBEIIiBiG8gUKrAMDY7nQ+MaDJ2hKWkjETMRsfSwzhSg1r/hAkrjHFE7KHzJMGGBP9UQeVhhSSHgZXvVIqQb0JrnQbh9Y9/YND0UL34pH7YaUbWpYuGCX32q0iKqPpN0ymHDZCkFRDEHo3nulDrY1wMtEgdEy5QDykfBNfXEHWR+jfqcWBrcis26qtBGug3D7bPMikIWs2DVTLmDsIhON8yMgJkquQFBSQXpOcAI0cINS52zYc9lTNNhNs0JWygBSvBoqWaIchE8OtoiwAxTPWikWibd0FkJVz6m2GZWVC2Wwxb1ahkOeC64aUF6HGAMPGi0PRm4bgT1tRSSYVQM3QH3t2NBNunoumDhOHUDVut8uIM2tOiBr3XGNWXFKecmbXUd70GI66Z6aON6zbE0KxaW0RhueRtv7Fq1nARwQGHCo0nYHUtrBJsWS8Id2Aduq5Ik4Bxasjms5zfqGIYVFp41W+ZBxBuUW2/EOWFcCxtID39PiyZhz12mHurGucdzOwqpz6zirWNBAmsG8spOVUByWbtdX+vVISKkRK7ggDGGeNSAEKryOQ8aS1dcHxpXWXyMSRi6sjClEhbiEQNRW0dfpozBXAWtDTGk4ibMIKZqsqj+Y30Aqj3nxv4BVp/MhzcOFk4J3I6HgaDwAewfGHP/4WiROLzB/cExKjBb20ffLHSVNeUN7A+f6kQxCx5NBYv54UUJxLFvgFM7TtC0WhvbqjPWU/BsYJQ7zLRUyYugTtBUFujDRbUQbDWWT5W9UHXFamJ3zCDrcsRPY6QVAADMxjnKVT7G74gbtsp2nYLljmm6Chgf6z3Gwuy2ms+JxFWNMcMCgiKkqDYInwxcD8XkUPeCyS9t3IyEbqwD7cetKKxAEEyEZsfh2/Exs+mmAtONwCo5ugQK0wwVFzaO5a1mPNEk3MGuoLL/+N+RMVYjwtVnqdhDNqym2WTnQVnbxrc+j+e+ncgaznQTfrw5fJidqZDAmoG8/JYSWMvnjL7BCClVjKRKwoHnSfhCoBrqXq0ko4GpgoMYHaM1XM5wMDDOwLlqEj1S0KkAc9ULMV9yEAkKnw7kVLPjZMyEEBK+kGhO24jYhurlB8Ay9VFZe60NUTQm7RpL1VSQjgp4ZIap0uOHWZlEpahcHUGtIK4bYSCo2lfFeYQ/+GJxUp+pygtoYTzAeNYaPZoKSiyooGDp+zAb2if99D8TYVwPXGjWUd3agmmG8i1JAaZZB7SOHikY16AFWVhANWNQH10+QzPUNcsmbiFTzWQd8z3dgN2++NAHPgFaNDUkEg2VvaiZ0UlnjKrSFCxoJi5qYtImix5Pwz2ABWuqcDsGPdl8UP0rh1PN1K3WuQtfD1zz7mAPmMYnHDe3ouBB7byDyuI1o2Eix4xhjHIOMw0SWDOMsiOwfZ8qALi8Qz1J+ELFLzmBhSgsuCkldI0rq1Egp3iwMIjAZB4WHMUYwfBSQkBC+ALCBYQQwX5qeyElTF2DpjHkChWYpoaOphh0XUN/poyIpSERNcH56MaxB2Iq4qpGIEkZFAucDy2WQmXfNniZXtU/zIpAi6cgKgXVNsSwVKFBtwxNN8K6VfpBxPLwoHSBXxiEFm8cN66CR+LQk81wB7vVk1s8DW2cQqGzBi2oT3QQwemzCaYPZdXN5ADaar9FoJplpo/OHIsmofsS6N99JIY4ZYa7lBjjqrvAFCwTqjK8pgqVChX7w7SpWSC1eFplOtZJWDNND2tuHdJxgir8qnzDsJInjEFPNMHL9E5olQKq7uVIWMtsSmNgXHUkONRwg7chs0pgbd26FV/84hfx3HPPIRaLYdOmTbjhhhtgmhOf+K6uLnzta1/DI488gmKxiM7OTnzyk5/Ee97znsMw8slTqAgICbTFGRrjOiqOauUSjxpoa4zCMjVwpgSNlICuc5g6DwUVD36EQwKLjelmrO4vISEE4AvVPkYKCQHA95Rgi9rKClUoe6r5cVDuoL1pdHBjvfHLBdXOIhJX2SWVIrgZUcX4DAv2nCUQlSKE60CPpSAqRZT3bQMTQtVkMm04vbtVqrFTUqUSJhF0OpJqfzy/MDgqlXrkdmbzPEjfgyhmVZDoDLSETAUVrzZ6ET/aUK4YIxDoM9fiWBMgrulKFIxYMLlpg0emWIF4BmE2dQ49RE6GoD6ZDDJ6lXt0iiJCM6BFZ955rxYJHiuInUfiqqTKJCxv1QxBvzB4UIkvRzrBY7YyawRWJpPBVVddhYULF+K2225DV1cXvvzlL6NcLuPWW2894L7d3d247LLLsGjRInzhC19APB7Hm2++CcdxDtPoJ09TQsdNHzgGfvcOZbXyBDqaYmiaoBSBNuKGNPLvkVTb6AAMGgeMkQEbI0hG6/P0In1PNTGVMgi+HN+iJCpF6OkWeFkVcyWcEszWBeFiz61obRZLELchygVosfSQ60CIwD3YPqXsouFodgxaJAntAMU/AbVQmy3zVaHBOma+HSlULaypFwedbYQ1h4oe+CzITgKUwOJBtf2jiSlbWKpZn8IfKjI6w11HU8Fo7BhTQDGuwUi1qL6Jk3iQ00f0LySmn1lz17zzzjtRKBTwrW99C+l0GgDg+z4+//nP45prrkFb2/iBxP/0T/+E9vZ2fP/734cWmI7Xrz9A7aYjzLHzEtibYyg7HtobY2htPPKBfMJzVKupSfaRk1JAlPKqoF1QvE9KAS8/CCPZBJg2/MHuoMfUGLFmjuo9ZaTbASHg5fphNs+FkW4d9zOrvaogJbgdDTNvVMVgW7WvOEh4JA4t2TSpoEpu2pMP0J0FmE1zjnr3QLXmEHjQymUWwHQDeqr1oKyyRxPVGEFRykEKUbd6aTOFAxWv1RKN0MZJKhgJNyNTbrBMHBqzxn+xefNmrF+/PhRXAHDhhRdCCIHHHnts3P3y+Tzuv/9+fOhDHwrF1WyBAbDt6dXA0vfg5Qfhl/I1rwvPgXBK4TZ+IaMamcqJXQ/CrcDP9gG6oVx4lZKKnypkoEXiMFrmwWqeCy3ZBL+YH/sY5by6eUTiMJvnwmpfpJ7kJnhSM5JN0NOtKhA+sJBp0SSsjiWHVEuJmxFYzXOPqifjycKt6FFvwQKCYF6ug022IusMQI+nD7l90NGAnmiE8FxI4b+trDTKEzFrlvG3HbPmrrlt2zZ84AMfqHktmUyipaUF27ZtG3e/l19+Ga7rQtd1fOQjH8Fzzz2HdDqN9773vbjhhhtgGDPXvG66ORgVwPPq+APiXLm5OFeuOkjViLVchJvpUT2oIJWbhDHVh06qliC+Uw5iolQQsHBKqoZOJBFatqTnwi/lYDR3wki3wcv2w+19C7JSADejNQUpjWQz/Fz/KCuW9FwwroXFD0e5Ag/09awozOGtTJo71etvo5sucXBww1JFGEmwzDp4UIdOlPJHncuUmL3MGoGVzWaRTI62QKRSKWQymXH36+3tBQDccsstuPTSS3H99dfjhRdewD//8z+Dc46/+qu/OugxSSlRnGSq/2QolZTFqOwDZbsZRlQHSybh1e0TVKmCSqZPVWiOpaGlWoBIAjJagZ/tVW0TzAiEaQNSwhvYpzJPoo0QLAe3azuY5wc1YyxVw2awV8UIcC2Im2oDsxvgOx6klYBIzwUYIK0oKtCHlUdgcI0Y/MEu5doL8PMD4LEGSMHB6jW/zuhZrM539f+J6WWmz7dwPbhCQlQq4Lx+v+sjwUyf6+nA1SPw/SxkxYFWx/vyZHg7zveRZDrneyoZ8RMxawTWwSKC9PzTTz8dn/vc5wAA69atQ6FQwA9+8ANcd911sO2Di5dxXRevvvpq3cZaZdeefdg16KBF+HC7But7cCnBXAEIqVonDO4dY6NhgjXoX4XsNkB40Af6AH8/RCQFETGAUhms7EEr9qiyD4YN4USA3tcnNRzmFKAN7IG0BgDGAeGDOUX4aR9yYOI6PvVgx44dh+VzCMWMnW/PgZbvgT/oArOgSvRkmLFzPQ0wpwie74UoMsgj1Az47TTfM4Hpmu/JVCaYDLNGYCWTSeRyuVGvZzIZpFLj1xqqWr3WrVtX8/r69evxne98Bzt37sTy5csPakyGYWDp0qUHte9YlEol7NixA/Pnz4eVdDG/LYFUfGa5tkRpoWplMSKbTrWmAaod6CeL9D04e9TNkFtR+MUsmBmB2bF02tuVVOd74cKFiEQo+HO6menzLaWEyA+Ax9IzslXOVJjpcz0dSCngZ/ugxRsOe8zg23G+jyTTOd9btmyp27FmjcBavHjxqFirXC6Hnp4eLF48frXhiQRQpVI56DExxhCN1j+Dx7ZtpBIGGhsSsIwZFg8yDd9Xb2qD198FzTTgORx22zzo8cPX2y4SiUzLeSTGZkbPd2z8jK3ZyIye6+kgdmR7Yr7t5vsIMx3zXc9EplnzmLZx40Y8/vjjyGaz4WsPPPAAOOfYsGHDuPt1dnZi2bJlePzxx2tef/zxx2Hbdl0tUPXCNjU0piIzT1xNE5qdgISAX8hAjzdAi6eP9JAIgiAI4pCYNQLr8ssvRywWw3XXXYc//OEPuOeee/CVr3wFl19+eU0NrKuuugrvfOc7a/a98cYb8bvf/Q5f+tKX8Nhjj+E73/kOfvCDH+BjH/vYjHzaMA0NrQ0zb1zTBberfbKgqp9TFhdBEAQxy5k1LsJUKoUf//jH+MIXvoDrrrsOsVgMH/zgB3HjjTfWbCeEgO/7Na+dc845+NrXvoZvf/vbuOOOO9Da2opPfepT+MQnPnE4vwIxDtywoMWSKoPxKKh+ThAEQRCzRmABwJIlS/CjH/3ogNvcfvvtY75+0UUX4aKLLpqGURH1wGjqBOP8bVnIkyAIgjj6mFUCizh6OdqbCRMEQRBvL2ZNDBZBEARBEMRsgQQWQRAEQRBEnSGBRRAEQRAEUWdIYBEEQRAEQdQZElgEQRAEQRB1hgQWQRAEQRBEnSGBRRAEQRAEUWdIYBEEQRAEQdQZElgEQRAEQRB1hgQWQRAEQRBEnSGBRRAEQRAEUWdIYBEEQRAEQdQZElgEQRAEQRB1hgQWQRAEQRBEnSGBRRAEQRAEUWdIYBEEQRAEQdQZElgEQRAEQRB1hgQWQRAEQRBEnSGBRRAEQRAEUWdIYBEEQRAEQdQZElgEQRAEQRB1hgQWQRAEQRBEnSGBRRAEQRAEUWdIYBEEQRAEQdQZElgEQRAEQRB1hgQWQRAEQRBEnSGBRRAEQRAEUWdIYBEEQRAEQdQZElgEQRAEQRB1Rj/SA5gqW7duxRe/+EU899xziMVi2LRpE2644QaYpnnA/c455xzs2bNn1OsvvPACLMuaruESBEEQBPE2ZFYJrEwmg6uuugoLFy7Ebbfdhq6uLnz5y19GuVzGrbfeOuH+F1xwAf7H//gfNa9NJMwIgiAIgiCmyqwSWHfeeScKhQK+9a1vIZ1OAwB838fnP/95XHPNNWhrazvg/s3NzVi9evX0D5QgCIIgiLc1syoGa/PmzVi/fn0orgDgwgsvhBACjz322JEbGEEQBEEQxDBmlcDatm0bFi9eXPNaMplES0sLtm3bNuH+v/71r3H88cdjzZo1uPrqq/H6669P11AJgiAIgngbM6tchNlsFslkctTrqVQKmUzmgPuec845OOGEEzBnzhzs2rUL3/nOd/ChD30Iv/jFLzBv3ryDGo+UEsVi8aD2HYtSqVTz/8T0QvN9eKH5PnzQXB9eaL4PL9M531JKMMbqcqxZJbAOhVtuuSX875NPPhkbNmzAhRdeiH//93/H3//93x/UMV3XxauvvlqnEQ6xY8eOuh+TGB+a78MLzffhg+b68ELzfXiZrvmuV/LbrBJYyWQSuVxu1OuZTAapVGpKx2ptbcVJJ52El19++aDHYxgGli5detD7j6RUKmHHjh1YuHAhIpFI3Y5LjA3N9+GF5vvwQXN9eKH5PrxM53xv2bKlbseaVQJr8eLFo2Ktcrkcenp6RsVmHQ4YY4hGo3U/biQSmZbjEmND8314ofk+fNBcH15ovg8v0zHf9XIPArMsyH3jxo14/PHHkc1mw9ceeOABcM6xYcOGKR2rq6sLzzzzDFatWlXvYRIEQRAE8TZnVlmwLr/8ctx+++247rrrcM0116Crqwtf+cpXcPnll9fUwLrqqquwd+9ePPjggwCA//f//h9+//vf46yzzkJrayt27dqF7373u9A0DR//+MeP1NchCIIgCOIoZVYJrFQqhR//+Mf4whe+gOuuuw6xWAwf/OAHceONN9ZsJ4SA7/vh33PnzkV3dzf+4R/+AblcDolEAuvWrcOnP/3pg84gJAiCIAiCGI9ZJbAAYMmSJfjRj350wG1uv/32mr9Xr1496jWCIAiCIIjpYlbFYBEEQRAEQcwGSGARBEEQBEHUGRJYBEEQBEEQdYYEFkEQBEEQRJ0hgUUQBEEQBFFnSGARBEEQBEHUGRJYBEEQBEEQdYYEFkEQBEEQRJ0hgUUQBEEQBFFnSGARBEEQBEHUGRJYBEEQBEEQdYYEFkEQBEEQRJ0hgUUQBEEQBFFnSGARBEEQBEHUGRJYBEEQBEEQdYYEFkEQBEEQRJ0hgUUQBEEQBFFnSGARBEEQBEHUGRJYBEEQBEEQdYYEFkEQBEEQRJ0hgUUQBEEQBFFnSGARBEEQBEHUGRJYBEEQBEEQdYYEFkEQBEEQRJ0hgUUQBEEQBFFnSGARBEEQBEHUGRJYBEEQBEEQdYYEFkEQBEEQRJ0hgUUQBEEQBFFnSGARBEEQBEHUGSallEd6ELORZ599FlJKmKZZt2NKKeG6LgzDAGOsbsclxobm+/BC8334oLk+vNB8H16mc74dxwFjDGvXrj3kY+l1GM/bkun4ETHG6irYiAND8314ofk+fNBcH15ovg8v0znfjLG6re9kwSIIgiAIgqgzFINFEARBEARRZ0hgEQRBEARB1BkSWARBEARBEHWGBBZBEARBEESdIYFFEARBEARRZ0hgEQRBEARB1BkSWARBEARBEHWGBBZBEARBEESdIYFFEARBEARRZ0hgEQRBEARB1BkSWARBEARBEHWGBNYMYOvWrfj4xz+O1atXY8OGDfjKV74Cx3GO9LBmPT//+c+xfPnyUf+++tWv1mx311134YILLsCqVavwnve8B7///e+P0IhnFzt37sStt96KTZs2YeXKlbj44ovH3G4y85vL5fA3f/M3OPXUU7FmzRp8+tOfRnd393R/hVnFZOb7ox/96JjX/NatW2u2o/k+MPfffz8++clPYuPGjVi9ejU2bdqEu+++GyNb99K1XR8mM9+z8drWj8inEiGZTAZXXXUVFi5ciNtuuw1dXV348pe/jHK5jFtvvfVID++o4Pvf/z4SiUT4d1tbW/jf9957L/72b/8W1157LdatW4f77rsP119/Pf7jP/4Dq1evPgKjnT28+eabeOSRR3DiiSdCCDFq8QEmP7833HADtmzZgr//+7+HZVn4xje+gauvvhr33HMPdJ1uU8Dk5hsA1q5di89+9rM1r82dO7fmb5rvA/OjH/0InZ2d+NznPoeGhgY8/vjj+Nu//Vvs378f119/PQC6tuvJZOYbmIXXtiSOKN/5znfk6tWr5cDAQPjanXfeKVesWCH3799/5AZ2FHDPPffIZcuWyb6+vnG3Of/88+VNN91U89pll10m/+Iv/mK6hzfr8X0//O/Pfvaz8t3vfveobSYzv88++6xctmyZfPTRR8PXtm7dKpcvXy7vvffeaRj57GQy8/2Rj3xEfuITnzjgcWi+J2ase8Ytt9wi165dG54Hurbrx2TmezZe2+QiPMJs3rwZ69evRzqdDl+78MILIYTAY489duQG9jZg165d2LFjBy688MKa1y+66CI88cQT5KadAM4PfPuY7Pxu3rwZyWQSGzZsCLdZvHgxVqxYgc2bN9d/4LOUieZ7stB8T0xjY+Oo11asWIF8Po9isUjXdp2ZaL4ny0ybbxJYR5ht27Zh8eLFNa8lk0m0tLRg27ZtR2hURxcXX3wxVqxYgXPPPRf/9m//Bt/3ASCc30WLFtVsv2TJEriui127dh32sR5NTHZ+t23bhkWLFoExVrPd4sWL6TdwEDz11FNYvXo1Vq1ahY985CN4+umna96n+T44nnnmGbS1tSEej9O1fRgYPt9VZtu1TQ7gI0w2m0UymRz1eiqVQiaTOQIjOnpoaWnBpz71KZx44olgjOF3v/sdvvGNb6Crqwu33nprOL8j57/6N83/oTHZ+c1mszUxclVSqRReeumlaR7l0cUpp5yCTZs2YeHCheju7sa///u/4+Mf/zhuv/12rFmzBgDN98Hwxz/+Effdd18Y/0PX9vQycr6B2Xltk8AijlrOPPNMnHnmmeHfZ5xxBizLwo9//GNce+21R3BkBDE9fPrTn675++yzz8bFF1+Mb3/72/je9753hEY1u9m/fz9uvPFGnHbaabjyyiuP9HCOesab79l4bZOL8AiTTCaRy+VGvZ7JZJBKpY7AiI5uLrzwQvi+j1dffTWc35Hzn81mAYDm/xCZ7Pwmk0nk8/lR+9Nv4NCJRqM466yz8PLLL4ev0XxPnmw2i6uvvhrpdBq33XZbGAdH1/b0MN58j8VsuLZJYB1hxvIN53I59PT0jIrNIupLdX5Hzv+2bdtgGAbmzZt3JIZ11DDZ+V28eDG2b98+quzA9u3b6TcwDdB8T45yuYxrrrkGuVxuVKkXurbrz4Hme7LMtPkmgXWE2bhxIx5//PHwyQcAHnjgAXDOazIhiPpw3333QdM0rFy5EvPmzcPChQvxwAMPjNpm/fr1ME3zCI3y6GCy87tx40ZkMhk88cQT4Tbbt2/HK6+8go0bNx7WMR9tFItFPPzww1i1alX4Gs33xHiehxtuuAHbtm3D97///ZraeQBd2/Vmovkei9lwbVMM1hHm8ssvx+23347rrrsO11xzDbq6uvCVr3wFl19++aQuMmJ8/vzP/xynnXYali9fDgB46KGH8LOf/QxXXnklWlpaAACf+tSn8JnPfAbz58/Haaedhvvuuw8vvPAC/u///b9HcuizglKphEceeQQAsGfPHuTz+XDBOfXUU9HY2Dip+V2zZg3OOOMM/M3f/A0++9nPwrIsfP3rX8fy5ctx/vnnH5HvNhOZaL6ri9M73/lOdHZ2oru7Gz/84Q/R09ODb37zm+FxaL4n5vOf/zx+//vf43Of+xzy+Tyef/758L2VK1fCNE26tuvIRPP9wgsvzMprm8mRtjTisLN161Z84QtfwHPPPYdYLIZNmzbhxhtvJAvKIfLFL34Rjz76KPbv3w8hBBYuXIhLLrkEH/3oR2vSeO+66y5873vfw969e7Fo0SLcdNNNeMc73nEERz472L17N84999wx3/vJT36C0047DcDk5jeXy+F//+//jQcffBCe5+GMM87ALbfcQg8Zw5hovtvb2/G//tf/wuuvv47BwUFEIhGsWbMG119/PU444YSa7Wm+D8w555yDPXv2jPneQw89FFYPp2u7Pkw0377vz8prmwQWQRAEQRBEnaEYLIIgCIIgiDpDAosgCIIgCKLOkMAiCIIgCIKoMySwCIIgCIIg6gwJLIIgCIIgiDpDAosgCIIgCKLOkMAiCIIgCIKoMySwCIIgCIIg6gwJLIIgiGnmtttuw/Lly9Hf33+kh0IQxGGCBBZBEARBEESdIYFFEARBEARRZ0hgEQRBEARB1BkSWARBHDV0dXXh5ptvxumnn47jjz8e7373u3H33XeH7z/55JNYvnw57rvvPnzta1/Dhg0bsHr1alx77bXYt2/fqOPdf//9eP/7348TTjgBp512Gj7zmc+gq6tr1HZbt27FX/7lX2LdunU44YQTcMEFF+DrX//6qO1yuRw+97nP4eSTT8ZJJ52Em2++GaVSqb6TQBDEjEA/0gMgCIKoB729vbj00kvBGMOHP/xhNDY2YvPmzfif//N/Ip/P42Mf+1i47b/+67+CMYarr74afX19+PGPf4yPfexj+OUvfwnbtgEAP//5z3HzzTdj1apVuOmmm9DX14ef/OQnePbZZ/GLX/wCyWQSAPDaa6/hwx/+MHRdx2WXXYbOzk689dZb+N3vfocbb7yxZow33HAD5s6di5tuugmvvPIK7rrrLjQ2NuKv//qvD9s8EQRxeCCBRRDEUcHXv/51+L6PX//612hoaAAAXHHFFbjpppvwrW99C5dffnm4bSaTwX333Yd4PA4AWLlyJW644Qb87Gc/w5VXXgnXdfHVr34Vy5Ytw3/8x3/AsiwAwEknnYRrrrkGP/rRj/DpT38aAPDFL34RUkr853/+J+bMmRN+xmc+85lRY1yxYgX+4R/+Ifx7cHAQd999NwksgjgKIRchQRCzHikl/uu//gvnnHMOpJTo7+8P/51xxhnI5XJ4+eWXw+3f+973huIKAN71rnehpaUFjzzyCADgpZdeQl9fH6644opQXAHA2WefjcWLF+Phhx8GAPT39+Ppp5/GBz7wgRpxBQCMsVHjHC7yAODkk0/G4OAg8vn8Ic8BQRAzC7JgEQQx6+nv70c2m8VPf/pT/PSnPx13m6pbb8GCBTXvMcawYMEC7NmzBwCwd+9eAMCiRYtGHWfx4sV45plnAAC7du0CACxbtmxS4xwpwqrjyWQyNYKPIIjZDwksgiBmPUIIAMB73vMevO997xtzm+XLl2PLli2Hc1ij4Hxsp4GU8jCPhCCI6YYEFkEQs57GxkbEYjEIIXD66aePu11VYO3cubPmdSkldu7cieXLlwMYsjRt374d69evr9l2+/bt4fvz5s0DALzxxhv1+SIEQRw1UAwWQRCzHk3TcMEFF+A3v/nNmGJnZIuaX/ziFzVxTw888AB6enqwceNGAMDxxx+PpqYm3HnnnXAcJ9zukUcewdatW3H22WcDUMLulFNOwT333BO6FauQVYog3t6QBYsgiKOCv/qrv8KTTz6JSy+9FJdccgmWLl2KTCaDl19+GU888QSeeuqpcNtUKoUPfehDeP/73x+WaViwYAEuvfRSAIBhGPjMZz6Dm2++GR/5yEfw7ne/OyzT0NnZWVPy4ZZbbsEVV1yB973vfbjsssswd+5c7NmzBw8//DB++ctfHu5pIAhihkACiyCIo4Lm5mbcdddd+Jd/+Rc8+OCDuOOOO5BOp7F06dJRJROuvfZavP766/jud7+LQqGA9evX4+/+7u8QiUTCbd7//vfDtm1873vfw1e/+lVEo1Gcd955+Ou//uswOB0Ajj32WPzsZz/DN7/5Tdxxxx2oVCqYM2cOLrzwwsP23QmCmHkwSXZsgiDeJjz55JO48sor8c1vfhPvete7jvRwCII4iqEYLIIgCIIgiDpDAosgCIIgCKLOkMAiCIIgCIKoMxSDRRAEQRAEUWfIgkUQBEEQBFFnSGARBEEQBEHUGRJYBEEQBEEQdYYEFkEQBEEQRJ0hgUUQBEEQBFFnSGARBEEQBEHUGRJYBEEQBEEQdYYEFkEQBEEQRJ0hgUUQBEEQBFFnSGARBEEQBEHUGRJYBEEQBEEQdYYEFkEQBEEQRJ0hgUUQBEEQBFFnSGARBEEQBEHUGRJYBEEQBEEQdYYEFkEQBEEQRJ35/wGK/iku22uuiAAAAABJRU5ErkJggg==;" parent="1" vertex="1">
                    <mxGeometry x="110" y="200" width="600" height="400" as="geometry"/>
                </mxCell>
                <mxCell id="4" value="" style="shape=image;verticalLabelPosition=bottom;labelBackgroundColor=#ffffff;verticalAlign=top;aspect=fixed;imageAspect=0;image=data:image/png,iVBORw0KGgoAAAANSUhEUgAAAlgAAAGQCAYAAAByNR6YAAAAOXRFWHRTb2Z0d2FyZQBNYXRwbG90bGliIHZlcnNpb24zLjMuNCwgaHR0cHM6Ly9tYXRwbG90bGliLm9yZy8QVMy6AAAACXBIWXMAAA9hAAAPYQGoP6dpAADEr0lEQVR4nOy9d5glR33v/amOJ58zcWdzkna1WoWVUEQggUSwiALLRmCDfLnXlgm+NjY2XK5ffLF5jfFzMTbCJhm/skUSNiAMWDISQTIChJCQtMqb0+zEk0PHqvePOnN2Z2c2anYV6M/z6NFOT3d1dXVP17d/qYRSSpGQkJCQkJCQkLBgGM90BxISEhISEhISnm8kAishISEhISEhYYFJBFZCQkJCQkJCwgKTCKyEhISEhISEhAUmEVgJCQkJCQkJCQtMIrASEhISEhISEhaYRGAlJCQkJCQkJCwwicBKSEhISEhISFhgEoGVkJCQkJCQkLDAJAIrISEhISEhIWGBSQRWQkJCQkJCQsICkwishISEhISEhIQFJhFYCQkJCQkJCQkLTCKwEhISEhISEhIWmERgJSQkJCQkJCQsMInASkhISEhISEhYYBKBlZCQkJCQkJCwwCQCKyEhISEhIWFB2b9/P2effTb333//M92VHldeeSXvf//7ez/ffffdnHfeeZTL5ZNyvkRgJSQkJCQkJCwof//3f8+5557LC17wgt627du385d/+Zdcd911nH322axfv569e/eeUPtbt27lxhtvPOHjAS6//HJWrFjBZz7zmRNu40gkAishISEhISFhwSiXy9x6661cd911s7Y/+OCD3HzzzbRaLdauXfu0zrF161Y++clPsm/fvqfVzpve9CZuueUWms3m02pnPhKBlZCQkJCQkLBg/Pu//zumafLSl7501vYrr7yS++67j29961u89rWvfYZ6N5tXvvKVBEHA7bffvuBtJwIrISEhISHhGeLGG29k/fr17Nixg/e+97284AUv4JJLLuFv//ZvUUqxf/9+3vGOd3D++edz2WWX8U//9E9z2giCgE984hO8/OUv56yzzuKKK67gr//6rwmCYNZ+X/va13jb297GpZdeyllnncWrXvUqvvSlL81p78orr+SGG27g5z//Oddeey1nn302V111FbfeeusxXdOdd97JOeecQzabnbW9VCqRy+WOqY3vfOc7vPGNb+S8887j/PPP57WvfS3//M//DMDXv/51fv/3fx+At73tbaxfv57169dz7733AqCU4h/+4R+4/PLLOffcc3nrW9/Kli1b5j3PwMAA69ev53vf+94x9et4sBa8xYSEhISEhITj4j3veQ9r167lj/7oj7jrrrv41Kc+RalU4itf+QqXXHIJ733ve/nWt77FRz/6Uc4++2wuvPBCAKSUvOMd7+D+++/n13/911m7di1PPfUU//zP/8zOnTv5h3/4h945vvzlL3P66adz5ZVXYlkWP/jBD/jQhz6EUorf+I3fmNWfXbt28fu///tce+21vOENb+BrX/sa73//+9m4cSOnn376Ya8jDEM2b97Mm9/85hMei3vuuYc//MM/5NJLL+W9730voOO3HnjgAa6//nouvPBC3vrWt3LzzTfzu7/7u6xZswag53b8u7/7Oz71qU9xxRVXcMUVV/Doo4/y9re/nTAM5z3fxo0bufPOO0+4v4dFJSQkJCQkJDwjfOITn1Dr1q1T/8//8//0tkVRpC6//HK1fv169ZnPfKa3vVarqXPOOUe9733v62279dZb1RlnnKHuu+++We1++ctfVuvWrVP3339/b1un05lz/re//e3qqquumrXtpS99qVq3bt2sNqenp9VZZ52l/uqv/uqI17Nr1y61bt06dfPNNx9xv3/8x39U69atU3v27Jnzuw9/+MPq/PPPV1EUHfb42267Ta1bt0799Kc/nbV9enpabdy4Uf3O7/yOklL2tv/N3/yNWrdu3ayxm+HTn/60WrdunZqamjpin4+XxEWYkJCQkJDwDHPttdf2/m2aJmeddRZKqVnbC4UCq1evZs+ePb1tt99+O2vXrmXNmjWUy+Xef5dccglAz20GkEqlev9uNBqUy2Uuuugi9uzZQ6PRmNWf0047jQsuuKD3c39//5xzz0e1Wu319UQpFAp0Oh3uueee4z72xz/+MWEY8pu/+ZsIIXrbr7/++iOeD6BSqRx/Z49A4iJMSEhISEh4hlmyZMmsn/P5PK7r0t/fP2f7jIgB7crbtm0bl1566bztTk9P9/59//33c+ONN/Lggw/S6XRm7ddoNMjn872fFy9ePKetYrFIrVY7putRSh3TfvPxlre8hdtuu43f/u3fZtGiRVx22WVcffXVXH755Uc9dnR0FIBVq1bN2t7f30+xWDxiXw8WZAtBIrASEhISEhKeYQxjrkPJNM159z1YvEgpWbduHf/rf/2vefcdGRkBYPfu3fzWb/0Wa9as4f3vfz+LFy/Gtm3uuusubrrpJqSUx3Tuo1EqlQCo1+sndDzowPNbb72VH/3oR9x9993cfffdfP3rX+eaa67hox/96Am3ezhm+trX17eg7SYCKyEhISEh4TnKihUreOKJJ7j00kuPaIH5/ve/TxAEfOpTn5plLTvYhbgQLF68mFQq9bQKgAI4jsOVV17JlVdeiZSS//N//g+33HIL73znO1m5cuVhr3Xm2nbu3Mny5ct728vl8mGtb3v37qWvr2+OtfDpksRgJSQkJCQkPEe5+uqrGR8f56tf/eqc33meR7vdBg5YpA62fjUaDb72ta8taH9s2+ass87ikUceOeE2Do2FMgyD9evXA/RKT6TTaYA5sWMvfOELsW2bL3zhC7OudabEw3w8+uijbNq06YT7ezgSC1ZCQkJCQsJzlNe//vXcdttt/Nmf/Rn33nsv559/PnEcs337dm6//Xb+8R//kbPPPpvLLrsM27b53d/9Xa677jparRb/+q//ysDAAJOTkwvap6uuuoqPf/zjNJvNWXWvGo0GN998MwAPPPAAAF/84hfJ5/MUCgV+8zd/E4A//dM/pVarcckll7Bo0SJGR0f5whe+wIYNG3qlGDZs2IBpmnzuc5+j0WjgOA6XXHIJAwMDvP3tb+czn/kMN9xwA1dccQWPPfYYd99997wuwOnpaZ588kne8pa3LOgYQCKwEhISEhISnrMYhsHf//3fc9NNN/HNb36TO+64g3Q6zbJly3jrW9/K6tWrAVizZg2f+MQn+Nu//Vs++tGPMjg4yJvf/Gb6+/v5wAc+sKB9ev3rX8/HPvYxvve97/H617++t71Wq/F3f/d3s/adKZy6dOnSnsB63etex1e/+lW+9KUvUa/XGRoa4uqrr+b3fu/3erFqQ0NDfOhDH+Izn/kM//t//2/iOOZf/uVfGBgY4A/+4A9wHIevfOUr3HvvvZxzzjn80z/9EzfccMOcvn73u9/FcRyuvvrqBR0DAKGeTqh/QkJCQkJCQsIhfOADH2Dnzp3zVop/NnHNNddw0UUXLbjIhCQGKyEhISEhIWGBefe7383mzZu5//77n+muHJa7776bXbt2zWvZWggSC1ZCQkJCQkJCwgKTWLASEhISEhISEhaYRGAlJCQkJCQkJCwwicBKSEhISEhISFhgEoGVkJCQkJCQkLDAJHWwTpBf/OIXKKWwbfuZ7kpCQkJCQkLCAhCGIUIIzjvvvKfdVmLBOkGUUk9rtfDDtRkEwYK3mzA/yXifWpLxPnUkY31qScb71HIyx3sh5/bEgnWCzFiuzj777AVrs91u8/jjj3PaaaeRyWQWrN2E+UnG+9SSjPepIxnrU0sy3qeWkznemzdvXrC2EgtWQkJCQkJCQsICkwishISEhISEhIQFJhFYCQkJCQkJCQkLTCKwEhISEhISEhIWmERgJSQkJCQkJCQsMEkW4SkgjmPCMDzqfr7v9/5vGIn2Pdkcbbxt28Y0zVPdrYSEhISE5wGJwDqJKKUYGxujWq0e0/5SSizLYnR0NBFYp4BjGe9SqcTIyAhCiFPcu4SEhISE5zKJwDqJzIir4eFhMpnMUSfpOI7xfR/XdRPLySngSOOtlKLdbjMxMQHA4sWLn4kuJiQkJCQ8R0kE1kkijuOeuBoYGDjmYwBSqVQisE4BRxvvdDoNwMTEBMPDw8k9SUhISEg4ZhI/1EliJuYqqer73Gbm/h1LDF1CQkJCQsIMicA6ySSxO89tkvuXkJCQkHAiJAIrISEhISEhIWGBSQRWwlG58847+eIXv7igbV555ZX8+Z//+XEft379ej7/+c8vaF8SEhISEhIWmiTIPeGo3HnnnTzyyCP8xm/8xoK1+clPfpJCoXDcx91yyy0sWbJkwfqRkJCQkJBwMkgEVsKCoJQiDEMcxzmm/c8888wTOs+mTZtO6LiEhISEhIRTSeIiTDgi73//+/nGN77Bli1bWL9+PevXr+f9738/73//+3nNa17DXXfdxete9zrOPvtsvv/979Nut/nzP/9zXvnKV3Luuedy5ZVX8sEPfpBGozGr3UNdhDPt3XvvvVxzzTVs2rSJa6+9lkceeWTWcYe6CN/61rdyww03cPvtt/PKV76S8847j7e97W3s3r171nFjY2PccMMNnHvuuVxxxRXcdNNNfOQjH+HVr371SRi1hISEhIRfdhILVsIReec730m5XGb79u383//7fwHo7+/nH/7hH5iYmODDH/4w73jHO1i8eDFLlizB8zziOOY973kP/f397N+/n09/+tO8853v5Oabbz7iuSYnJ/nwhz/M7/zO75DP5/nYxz7Gu9/9bu644w5s2z7scY8//jjlcpn3vve9xHHMX/3VX/HHf/zH3HLLLYC2rr3zne9kamqKD33oQ+TzeT7/+c+zb9++JEswISEhIeGkkAisU4xSCj+I5/1dLGO8IAYjwjTUgp/bdczjFhQrVqygv7+f0dHROe65Wq3G5z73Oc4999xZ2z/0oQ/1/h1FEcuWLeMtb3kLO3bsYPXq1Yc9V61W4wtf+AKnn346oAt9vu1tb+Ohhx7iggsuOOxxjUaDW2+9lf7+fgDa7Tb/63/9L8bGxhgZGeHuu+/m0Ucf5Ytf/GKvnUsuuYQrrriCXC53XOORkJCQkJBwLCQC6xSilOJ9n/wRj+8sPyPn37Cqn4+++0ULZrUplUpzxBXArbfeyk033cSuXbtot9u97Tt37jyiwBoeHu6JK4DTTjsNgPHx8SP244wzzuiJq4OPmxFYmzdvplAozBJp2WyWSy65ZI4LMiEhISEhYSFIBFbCCTM4ODhn2x133MH73vc+3vSmN/Ge97yHUqnE5OQk73rXu/B9/4jtHZpVOOMWfLrHTUxMzBJgM8y3LSEhISEhYSFIBNYpRAjBR9/9oiO7CD2fVMrFNBZ+3bsTcREeifnauv3229mwYcOsAPaf/exnC3bOE2F4eJhyea7VcL5tCQkJCQkJC0EisE4xQghS7vzDHscCZETKsZ5VCwvbtn1UK9IMnufNCUj/1re+dTK6dcycffbZ1Ot17rvvPi688EIAWq0WP/3pT5MYrISEhISEk0JSpiHhqKxdu5Z9+/bx7W9/m82bN7N3797D7vvCF76Qhx9+mL//+7/nxz/+MR/5yEf4yU9+cgp7O5fLL7+cjRs38kd/9EfceuutfP/73+e3f/u3yWazGEbyJ5CQkJCQsPAkFqyEo3Lttdfy8MMP8xd/8RdUq1Xe8IY3HHbf6667jr179/KFL3yBz3/+87zoRS/iYx/7GL/+679+Cns8GyEE//AP/8AHP/hBPvjBD1IoFHjb297Gtm3bePzxx5+xfiUkJCQkPH8RSqmFrwfwS8DmzZsB7X6aD8/zemUJUqnUMbUZxzGe55FKpZ5VLsLnI0EQ8KpXvYpNmzbx0Y9+9LDjfSL3MWF+2u02jz/+OBs2bCCTyTzT3Xlek4z1qSUZ71PLyRzvo83tx0NiwUr4peCWW25BSsnq1aup1+t8+ctfZnR0lI985CPPdNcSEhISEp6HJAIr4ZcC13X57Gc/y759+wBdO+tTn/rUCa+JmJCQkJCQcCQSgZXwS8E111zDNddcM2vbjEs2ISEhISFhoUlSqBISEhISEhISFphEYCUkJCQkJCQkLDCJwEpISEhISEhIWGCeUwJr165dfPCDH+T1r389Z555Jq95zWuO6TilFJ/97Gd5yUtewjnnnMOb3vQmHnzwwZPb2YSEhISEhIRfWp5TAmvLli3cddddrFy5krVr1x7zcZ/73Of4xCc+wW/91m/xmc98hqGhId7+9rezZ8+ek9jbhISEhISEhF9WnlMC68orr+Suu+7iE5/4BBs3bjymY3zf5zOf+Qxvf/vb+a3f+i0uvfRS/uZv/oZSqcTnP//5k9zjhISEhISEhF9GnlMC60TWjXvggQdoNptcffXVvW2O4/Dyl7+cu+++eyG7l5CQkJCQkJAAPMcE1omwfft2ANasWTNr+9q1axkdHU3qIB0Dd955J1/84hcXvN16vc6NN97I1q1bF7zthISEhISEZ5LnfaHRer2O4zi4rjtre6FQQClFrVY74TXmlFK02+15f+f7PlJK4jgmjuNjbm/m/8d6zKngjjvu4JFHHuG6665b0Har1Sqf/OQnWbt2LatXr17Qto+FYxnvOI6RUtLpdJBSnsruPe/odDqz/p9w8kjG+tSSjPep5WSOt1IKIcSCtPW8F1gnkzAMefzxxw/7e8uy8H3/uNs9kWNOJnEco5RacGvfzHWGYfiMWhKPNN6+7xNFUc8SmvD02blz5zPdhV8akrE+tSTjfWzEUn/cmsZcIRNLRSeQWIbAtsScfWKpEIBhiJM23o7jLEg7z3uBVSgUCIIA3/dnWbHq9TpCCIrF4gm3bds2p5122ry/832f0dFRXNc9ZguZUqrXz4VS0E+XD3zgA3zrW98C4Pzzzwf0sjN/+Zd/yYMPPsjf/d3f8fDDD2OaJldccQXvf//7GRgY6B3/uc99jn/7t39jfHycbDbL+vXr+fM//3OEEL0yG3/yJ3/S2/+OO+5g6dKlp+TajnW8LctixYoVc6ygCcdHp9Nh586drFq1inQ6/Ux353lNMtanluMd74WykkipkFJhWccW7aOUIooVhgDTNHptgBYsUSSJpMK19e8a7ZAolqQcE8c2sUyDMJJ0/IgwkkSxRAiBIfTxhhAYhiDjWliWgVKKlqf3jWOJH8R0gpjIjwBwXAvHNlAKMikLxzaZqHToNHwaXkTBcegrpUm7JrFUtDohjXZIEARUpie44Jy1FAu5pz2OB7OQISvPe4E1E3u1Y8cOzjjjjN727du3s2TJkhN2DwIIIchkMvP+zjAMDMPANE1M0+xtV0qhwvktJjKOUaGPMsA46JiFQtjHL9ze9a53UalU2L59O//3//5fAPr7+3n44Ye5/vrrueKKK/j4xz9Op9Phb//2b/m93/s9brnlFgBuvfVWbrzxRv7n//yfbNq0iUajwf3330+n02HNmjV88pOf5N3vfjd/+Id/yMUXXwzAyMjIrPE6mcy4BYUQhz2naZoYhkE6nX5az0rCAdLp9GH/bhIWlmSsTy0z4y2lwgsiUo6F0bXAxFLhBxHNdshktYNrm/QVUgRhTMuLGCymKeYchBDEUhGEMW0vpFz3CMIYyzRwbBPXMTENgziWlOsesVSMDGRxbINmO0RKiWNbxLFEKshlbFKOSbXhU657hJHEsQ0W9WeRUjFR6SCl0gIrlsRSUcw6WKbBRMUjiiW2ZWJbAsc2CcIYL4hBgUIBAlC9MRAI8lmbJUM5Ht4yxcNbp8hnbLJpG8s0cB0T2zSYKHcYr7RxbYO+fIoVI3ks0+CBJ8fZvG2avRNN0q7JeeuHOX/9IgpZm/HpNlM1j8GCTbMdYdrugj/fC2nceN4LrPPPP59cLsdtt93WE1hhGPLd736Xyy+//JT2RSnF6L/8b/y9T57S887gLjuDJW/78HE9QCtWrKC/v5/R0VE2bdrU2/6BD3yAs846i09+8pO99tatW8drXvMa7rrrLq644goefvhh1q9fzw033NA77mUve1nv3xs2bABg5cqVs9pOSEhIWGiUUkgFKEUkFVGkLTOmaSClIpYK29LCZbrm0fFDhDDIZ21KORelwAsi/CDGD2P8IMI0DPoKKeJI4gWSatOn4cFUtY3nx2RSFqV8irYX0uqEBJHEDyOUAsfS1hohwBCC6ZpHX95FdsVVGEmCKMYyDCzLwAtiZDMgkgqlFJPVDpW6x5LBLO1OiDBAITAURFJhmqJ73SClZM94E9MUpGyTob4M9VaFONYWpmY70H1vB0xVO0xUOlimoC+fopRzyWcc8hmbWCr2TTZpeRG2ZWCZBpYpyGccsimb6XqHZifkzFX9/GTzGP/+X9tQ6sj3ZYaRgQymYbBvstnb1vFjfvzwfn6yeT9DpQwTlQMxz4WMyUsuefbEKs/Hc0pgdTod7rrrLgD27dtHs9nk9ttvB+Ciiy6iv7+f66+/ntHRUe644w4AXNflhhtu4MYbb6S/v59169bx5S9/mWq1yn//7//9GbiKZ4fr7+nQ6XR44IEH+JM/+ZNZweGrVq1i8eLFbN68mSuuuIIzzzyTL33pS3zkIx/h5S9/Oeeeey62bT+DPU9ISHiuEseSRjsklpJizsUyDfwwJo518onrWJiG6IqZqOdyanYCWu2QWssnivVsP2OpybgWhaxLo+0TRrrdIJRM1zpYhoFUCjEFg6U0XhDR8WPCKAYEphDESjJebhNFAbsmfUK7iuu6OLZJyrVoeRHlepV2JyKdsmj7Ed/44Vb2TTR5wYZFvPyiFfTlU71rqTcDIinZsrvKE7vLTJa1YOkvuGRSNs1OSKMd0GgHxPEB5bJ+RR+5jE2jHbJvsknbC+nLp3Adk44XUW3O9ppkUhZrlxbZtq9G24sOO+Z7xpuH/d2RuO+x8Z5da/WSAlGs6HghYSyJYkUcS4b7Mizqz+AFMVv3Vhmb1uIp5Zi84uKVnHP6IFt2V7nv8XG276sxUWljGoIVI3n2TTYJItmL5Xq28pwSWNPT0/z+7//+rG0zP//Lv/wLF198cS9z72B++7d/G6UU//RP/0S5XGbDhg18/vOfZ/ny5aes76BNj0ve9uHDugjjOO7FBJ0MN9mJuAjno16vE8cxH/nIR/jIRz4y5/f79+8H4I1vfCOtVouvfvWr3HTTTeTzea655hre+973Ju62hITnCTPuJYC2F1JvBQyV0pimoV1SYcxAKY1lzo4TiqUiiiWOZSCE6FqFtIARQmBbBh0/otLwkbGODWp1QqRUlPIuadei0vC6MUUC1zHJZxzKtQ6dIMa1zW4bIQqBa5mYBsSxwnVMLMOgE0Rs26sn8UV9adav6AcDPD+i0QmRsWLZohxT1Q6WZSAEPL6zQqXralu1uMCi/gw/uH83T+6qgKghhCDlmPTlXZYM5ti2rzbLKjPDzx8f5+ePjwOwZDDLyy9eyWSlzQ/v30vbny16Gu1gzvGObTDcl2HfRJMnd1fm/L5cn5041Ncds0Zbi7TN26Z77fTlU/TlXYo5l8FimsFSCj+UeEFEvRlQa2n3YhwrVozkGSyliWN9/6JYdkVfSF/eJYwkP3tsDKXg4o0jvPQFy7BNk0xaC17joDlo5n5GseTeR8doeSEvv2glrmNSa/psWjfE2mVFWp2Q6ZrHactLFLMujWabR5/cRtp9dkuYZ3fvDmHZsmU8+eSR3Ws333zznG1CCG644YZZrqpnCiEEwplfXKg4RkgwnNRJicFaKPL5fG9MD3b5zdDX1wfoOLTrr7+e66+/nvHxcb7zne/wsY99jL6+Pt71rned6m4nJCQcJ343DiiMJBnXIp2yMQ2BUoqOH1Ft+EzXPAo5h3zGYd9Eg3orwA9j8hmHHftq+GFMue6RzThEkexZNlpeSBjGOnjaMvR5QolUM0HXBpV6ByVh0UAWQ0BfTn8k1lvaipNyLKarbSYrHTIpHViddkzSKZt602fbaI19403sbiD1k7srVBs+tmkwWEpz5up+7n9ygmpDf/QOltK0OiGdgwSOAEYGspTyLttHa/jBgQ/4ex4ePWTEtDVtRhBs3VvrXoseM6Vg0+lDXHzWCN//+R627q2iFIxOtfjn7zzWa6Uv73LBhkWsXFwgn7YpN3w8PyKXsbW7Lu1QzLuYhmCy0ubhbVMYQpB2LZYMZilkXR27FcWkHYuBYopcRmfGSal4YleZvRNN1iwpsnppsZepJ5XC8yOanRDXNomkpJTVYy6Enr+kVERSYhlGT1gfTBDGvHjTUsp1j+H+NIv6siCg3vRptkMUYBmCSCrSronjGKhQcf6GYUpZFz+IqbcClg3nWTyYodoI2DNRp5h1MYVgotLG8/1nTSLYkXhOCayEZwbbtmeVMshkMmzatInt27dz9tlnH1MbixYt4u1vfzvf/va3eyUPZtyFz7ayFAkJzwfCWOEFMW5KzUl1V0rhhzEdLyKWCqdr7TENbTkSQtBoB2w/yIVkGtoyk8s4hLGk2RVSKcdidLKJYRgIoJRPMTrZxLEN6q2QxYNZmm1t2TrYeuEFMa5jIoTOLnNtk6yr3WCOZfLTR/fzHz/eQRQrlgxmWbushGubDPelGSyl2bxtigeemKDWmmvdOfrYSPZPt9g/3QKgv5Ci40dMVXVdpbSrRUkUS8am27P2XTyQ5YxV+iPy4a1TTNc81iwpcMYSg/VrV2DbDp0gYrLSZu9Ek8FSmgvOWETKMQkjScq1aHsh/+P1Z2GZBo12wD0PjXLXA3sp5FyuvmQVm9YNIZWOExOGYNlwHsMQveD5IJSU6x0EAiXgwg0jvcw9P4xptUMGSilc26TlhXSCiE4QMxOMvnQox9qlJUBbHb0wBqUtgbZlsHpJgWxaC+Zqd3yVVCj0PpZpEHWD6GfaNIRAKoVtmaRdi6FSmlLOZflIHtc2D8SvBTH1to9pGIwMZEm7Fp4fMTrVYrLS1u7LRUUGi2kMQzDUl8Z1THbtrxFLxdplJXyvQ7s6hm0+u2ulJwIr4aisXbuWr33ta3z7299m5cqV9PX18Sd/8idcf/31/MEf/AGvfvWrKRQKjI2N8eMf/5g3vvGNXHzxxXzwgx+kUCiwadMmCoUCDzzwAE888QRvfvObARgaGqJQKPCd73yHZcuW4TgO69evX7AaJAkJzxdm3DCtdohpCkr5FEJAEEqE0OJnJlBbSsVUpcXuCZ/YKZPPehiGtkDMuM2anbAbrC2hO2mapoFhwEAxzVApze6xOl4QMVBMYQidYeYHMdPVDnGsmK532Lq3RssLOW1piTCO2b6vRjHncsbKfu742S6e2FVhsJji3NO1YAgjSdq12Lm/zpY9VQSwbFGeRf0ZLFPwxM7KnHghgbbwjE615h0b1zZZMpSl0Qq0a03pKV8pnV23fkUfhiEII8nqJQVWjhTwgojt+2o8vHWKYs7lVS9chd+NBRoopVk1UuhZZ2pNn9HJJpWGT18hxfqVfT2h+NoXrcELYlQc8siT2zC6IrS/mGLNkiIXb9T9aHa0wMymbSp1fT/afoRrmxSzLq964WpecdFKTFOgFNRbOhbLtU1kpGhGWswIoWOUinmHXNrBtrTQma51aHRCwijGtvT5/TDC82MGCikGimkQ9ARaoxXS8kIE4Ngmg6U0ubSN1Q1cn3G9pZf34QdaYM88W6Zp9M4bhNqaF3fFvCGgr5BCKkWt6VPKubi29sakHIuUo9sd7p+d+ZdyLVYtLtBfSPVi5w6mkHU4fXlfb992Gxb3O7jOs9fTAyCUOtYY/4SD2bx5M8BhLTie57Fjxw5Wr159zPFGcRzjeR6pVOqUlSo4FprNJh/84Ae55557qFarvOENb+Cv/uqv2Lx5MzfeeCMPPPAAYRgyMjLCJZdcwjve8Q5GRkb4xje+wVe/+lW2b99Op9Nh+fLlXHfddbz1rW/ttX3nnXfyN3/zN+zZs4cgCPje977HsmXLTsl1Hct4n8h9TJifdrvN448/zoYNG35pSwfMpN8rpciktAW37YWIrntnhmY7YLzSppRzMQ2D/VNNas0AJbQlIeWYKCCKtEtKGKKXLQYQ+AET4/tYu3oVpuVo9xR6Ipypm+TYepJMuzZC6N9FkaTRCXBsg6/9YCtj022kVBRzDksGczTaAWPTLSarnWPODjscs5P7525POSavfdEazj19iIe3TlGue3T8iH2TTSbKbVYvLXLxxhHOWNmPfYx1oAD8IMboWupAu8Wmax0s00RJRang9qwxYSSRsbbczJRc6PgRrU4IaGHrOCblapPa9H7OPvN0lGFRqQdEcYwpDCIpyaZt0q5FrRmQcgxWjBQII8neiQZtLyKTssmkLJSC6XqHYtZh8WCul7kXdOOhXNskk7LnXG8stWtvZp9s2kYpuhZGc447bcaCCVqgPhfcbQdzMt8lR5vbj4dEYJ0gv0wC6/lKIrBOLb8MAssLIqJY4domsdQWH9sysC2TSt1jrNwm7E5sA8UUhmEwWWmDgIFCikLORQC7xxs0O2G3gGPX9ZZze1YVL4ioNQNiKVnUl0FBr8hjrenzX7/Yw5M7JznvjMW88Jxl7J9uUan7ILQVJIok9z0+zpY9VVKOyeolRTp+RBRLNqzqZ/O2qV5W1+HIpm3Wr+ijkHXYsqcKwLoVJfaMN9m6t8qSwSy/dtU6JsptduyvkXIsLFMHrheyDhdsWIRpCrbuqVJt+HhBxMrFBdav6EfQ7WesqLY8sq7diyE6lCCKqTd96MYHObYOdvf8iHYQQTf2ybFMwjjGsUykgqhr7YmkJJ+xGRnIMjbdot4KAdULtDd7AfwRpiEQhmDxQAbDEHi+pNH2sYSkWd7LOWefSSaTodkOqDV9YgmWKegvandd24t0qYSuJcfzI8p1j8lqh1YnRKEYKmVYubjQs/wkzOW5IrASF2FCQkLCcdL2QqaqOkvL7maXeX5EueERRQrHNrr1jCSWpV0qrU5I2rVIpyyUhLFuTE827SCA/eU2o1MtTEMLpUV9GcIwZvO2KR7qxvp0/IjhPl0p/MldFRSwbDjHxtUDWKbBlr1Vtu6pMJO9vveeXXzrnl1HvBYviHl8Z7n3894JnfGWS9v8+svWkU/bTNU89k+3ekJk8WCWQsY5rOWj3grIpW0MQ7BqcYGLNo7M2SeKtFXmnNOG5lhklNJjV2/7jAzkqDU8pmodSt3yDDPHNzoBUimG+7MUcw5K6XEt1ztkUjbLhnJk0zZxrJiqtnGdFIu67qmWF1Jp+IRhzMqRArmMDtRvexFS6bi1maKY2srlUa57LB7M0pc/8LEVxRKv0+HJ+oGxyGWceQVhNj27TE3KtVgylGOoL02l4dPxI5YMZrGtRFw9H0gEVkJCwi8tbS9EKXoByN5BGWJKKRA6diQIY8bL2l2WSVlM1Tp4fqxjnxQIdIBMNmWTcfVyIrYpyGUM4li7BQeK6VnB5q6TYbzc5oEnJli7rMjIQJZay2f3WIOJSpvdYw227av13FEzHJx+bxqCvRPNniiaYdVInoGcZOtYSK2pY38WD2SYccApBStG8lx2zhKa7ZA9Ew1yaYcwinngyQn8MObNrziDoZIWc6uWHFhSbCb4Wteg0in2Mxa0mRgvxzZodALCMEYhsAzRiwEyhEB128mkbBqdgHjGVYkWPoYQGKZg6VCeZcM52n1p9k22qDQ8XZsKLUILGZtFA1n68gdK0BRzDs1OSC5tzxIqQ32zl7DJpm2G+zJEseyJNsc258T/AJjoTMJF/Zk5otIy58+mOx5sy2S47/lp1f1lJhFYCQkJzytiqYsatv2IjhfS8WPSronrWL30+/5CCj+I2TvR6K69ZhLFsicItGACpQSOZRDpEuBYhkG14ZN2LYb7DqxNOV5u6QKX7RBhCMIoZv9UCy+IWb+yj+maxx337qLS8DFNbZ3qK6R44MmJ3lpwxZxDrTk3Iy6fsbl442JWLSmQsk32T7fo+BGbTh8inbK577ExJisdgihmpD/LueuGyKcEO3bu4A0vXUkgDUq5w9fAGyimWbm40Pv5wjNHkErXnJqsdjCFwLENTNMgiOJexp8wwDIMchkbYQjiSNL2I5odiW0Zuohntzp324tQ3QwzXeRTMlBMU8w6dIKYWtNjquqhlGLV4gLZtI1p6jYMQ5DLOJy+3KbW8vH8uLfkyoyV7GBsy6Qvf+wWoEPrcx2J51qsUsIzSyKwEhISnvUcvDhuFMteoPFMPM9MgHirEzFRadHqRMSxxDQMTEvHJUnVzbZTiolyW1uuXIuCa+JHutzAoW4v1Q10NoTA6i6jsmuswfd+vptWJ2LZcI4nd1fYvq922L5/554dc7Y12zXoHrNkMMv+6Ra1ZoAAFg1kWDyQZclQjjVLi6xYlJ8lAtYuKwHaAtT2Ii7ftLS3cG+v/VabtqezBPtLmd7+M0HutqVdmNWW3xM+AvCjWMc/AZm0zYqRHEEoaXX0or+ubbJiUYF8RgubQ603MyUEXMfsFRA9Grm0Qa5rTQIO6x4zDL10C/mjNpmQ8KwgEVgJCQnPOM1O2E1f1xNsLm1jdAtK1lt+z3Vnd9dk84IYKbXw2T/V6rl1glBbVwrdxWqjWIuDvkJqVg2mKJZ0vJBHtk0xXm7T8SOKObfnKhzuy3Dmmn6kVDy1u8q9j+5ny+4qYXdZlhk2b5sCtHAr5fV6dbJbT0ivrSZ4clcFIQQvOX8Z560fIogku8cajJfbnLmqnzNW9VNt+ExW2ywbypNOzX4tzwjKgyumx1LR9kIyKYvpukcx6+I6JnEsqTUDOn6gU+mlpFL3EEIQxtqyZAhodrRbb7CYopB1ma7p+k/LivmeMMqmrZ7YUUqXgBAwR8wdjE7FP7FnIIk7Sni+kQisk0ySpPncJrl/C0MYSaaqHSqNsFvRWgcN+4EudDlZ6eBHMQa64rXTdUF5fjcLzzRQ6BR7yzIoZZ3eRK+U6q0xV8g6PSG1eesUt3zvKVodXTuqL+fSV0ixcfUAy0fyfOG2x6k0Dl/k1rF1LNWhj4BjG2w6fZiRgQx7xhv05VO8+LyllHLuvO1EsUQIMSv+avnwbDNMKe9SyrtIpWi2A1KuhRkHVDxdssC1DQwhiLtlGIQQrFiUZ6CUZrLSYbzcpt72AUFfwWX5cIq9corlSwpM1XX223B/hrRrYZoGfhAjpdLj1S3mONPufAghsMzEPZaQcDwkAuskMVOlvN1uk06nj7J3wrOVdlunqieLVM9GKUUQyTluoJl4op6lJZZUGj5j0y2myg3Ga3ptuU5osK27TAhANmVTPEig+GGMkop8aW6mWrnmMd4tIZDP2OTSDvc9PsbDW6cQQp+71Ylmrf8Wx4qpmsdUzeuVFAAdi3XWmgEyKYtaKyAIdeD6lj3VnvjqL6Q49/RBLjhjEcW8S6q7qPChHGxhOpiD3XtxLGdZgMJIUmv5oHSdpbYfkU3b1MoVaIyRWbSK5UsHdUxS173ZvQOYhh775Yty9BdTvfpapZyL73uMGoJC1mGgL49hGLMD7A8J5E5iixIWAiVj4mYFYbuY6ePz5SoliWqTWLl+hPX8eN8mAuskYZompVKJiYkJQC8vc7SX2MxizzPHJ5xcjjTeSina7TYTExOUSqXkfhxCue6xZ7yBbRkUslp0BFFEpe73YnxEt/p3s1ImFdXpLy1m3IR9ky1sO+zVK5oP0xA8ubfKk7sqlOserY7ev9b0GS8fuT7TDAJ46QuW88pLVvZckPumWvzooX1MVjqcsbKPt169oVfw82CkUuyfapFLzxZ+86GUYrrugVIIQ+h6S5FeU09nIgpSlokXRhiGjuPS7wKFEDBYyuDaJuW6x5LBLCMDWerjHjUvZNGgQyF/4PwzFr5gfCfk+rByfQghyKVtSM8/KT0TrjfptVBxhJktHn6f0CesTeL0L0YYyd/Xcx0Z+oRTewlrE9j9S45bYEm/Q1idQJgOVr7vJPXy1JIIrJPIyIiu/TIjso6GlJIoirAsC8N4dq+x9HzgWMa7VCr17mOCJpY6SNz3AqTjsK/d7C1PknJMDCHo+DpmSiDpo4Gp2nhxQMY1CSJJs6OF0kAphWkY7B5v0OqESKkYnWqyfV9tVsmEgzEEDBRcVBxR78QEMQyV0rzo3CXkMg5xt5TCcF+mV2ag3zbpL6RYu6zEi85dwlSlw2Bfuut2UzQ7AU53DTV9DsHSodys887EQvlB1KtALoQWPLmMw+KBLNWmXpS3lHdJu7qwZtuLqDZ9lvXlKeVdwujAEiOObfYKiC4ZzHaXtBFgeqQLBq4RcSgq6BA3qwBYuWfXRKSUIm6UCab2gmGQTm1AmPNPM7LTIKrsx3RSWIXBY2hbIkTyXjwWZBQgTPuUWiaj2iRhdQLDSRG36ygZH5dwll4T2aohsyVIBFbC0RBCsHjxYoaHhwnD8Kj7dzodtm/fzooVKxK34ingaONt2/bz1nLld11hh6aoz2TNAVhEBB2PuifxpKWDv/vTel28qXFKoo1ZXA3GQVaosAMIsFwQgonRMT773VEEsGQ4ZumgyeCw4HP/8dgR459Ax1OdvXaQxYNZ8hkbP9QuyXWLU6TreyAOkDKmlV9Jtm9gVhD7DLFU1Fs+KDBMQdbV663NrIXWaAV4YUQ+4xCEMY120LMuFTKurufUDvGDCNMyuovY6kB0Qwjq7YC2F7FiUZ5s2mawlJ6V8ShDn4FilmXDuaPWSppxHcrQR3pNhOUQt2qovhHiZgXptbAHlxF3msigAy0DGfoY9vwWNhF6RLVJ/JaBle/HTGWPeP6FIG5V8cd3IAwL5XeIO02sXGnefaNWFRX4BOX9GOn8Ya8DIG43CCtjuItWHdV9JP02UbOKXRpCmMfnaorbdVQUYhUGjuu44yWojGG6GcxMQcckhh6Gc+LvfBl4gMJw0sjQxx/bjl0cPqbrkH4HYTvHLIaUUshOAyUlhmVjpLIoGRM1qxhuBsNNE7dqSL+Dmc4dvUG67sFGBejeg4PEdNSsIoMOTv/iY2rr2UQisE4Bpmke00Q9s46Y67rJsiyngF/W8W52QnaO1pBS6ew6A+IYgjDCC2KCKIbII9McJeq08GKBLC4jThWot3zSZozVnMR0IvDqkOl+bcYhU7u2c9fjDRqBwfpleW5/cIp6R4/znmodsQVKD7eoNAPyGRvLFERhxPLhHH0l/TIeLKVYs7SkRcl8X+CVUQg9yPVjtCrkzQCEoFWvo+KYbKnUsyxV6p1udqCugVVrB9rilLJp+xG2ZXDasj76Cy5BJGm0AhDQ8SP2TzaIw4h8IcOy4RKZ7npypiF6sSaloRIYs9dyE0Kg4pCwNk1Um8DMlXAGlqLLVR4d6beRUYCZzqOCDiroEFbGUH4bM1MgapQx3DQy8pGd5rzCJG5WMGujhJMRhmWDkvMKrKhZ0e3ZLmamiJnRbp0TsRYpGRPVJgEwM3mi+jRxuzavwJKhj2w3MHMlZKdFWJvAGVg67zmVjAkr+4nq01j5viNau+J2HX9ilxYAcYgztPyYr0PFEcHUPlQcYWTyGNbJWXQ+bteJpvcR2SlSi9cSd+qElXHc4ZWYmcKRj/VayE4DM9fXu+8qCvHHdwKK1OLTiBpl4vo0KIWZLfYsiFGzqp/HbBEzU9BizO/gj23DzA8cs4CR7Tr+/m3IOMSwU6SWno6KY1TQ0eczTJASGbSPWWBJv4PyW5jZEir0UH4HkcoiQ19bQyMfM5U96vg820gEVkLCKSaqTx31i/1k0fEjdu2v0eyEpBxLB4KrA+vYmabAERLRGCNo1xHpPoqyCWYbmRui2QmoTuylKAIwHGRzmu9trnH3g6MoKekEcW+Zlof26NT/xSWbl52Z44HtdR4di6k0A7Kuwe/92iaG7DZM7YDiIuhbcvQLCDtEjWkC4WDHEttyoNOgJlqYlX3Y0mfa87Dy/USxXmR35eICmZSNlIpGO6BS95ierpA2BSuXLSafsQgrE9iOy1BfESEMlFKkwxrNyQlGFm0gk59dZTtulAkmdmEPr8AuDgMHRImSMcHEbsLaJIaTIizvB6VwBpchDJO4VSNqVbWgOMh9pmQMShF3mggEwnaRXpOoNkncaSAQBOX9KK+JkcqhZJO4VZ1lpZBBh7A+RTixG5TCyg9iGoq4UUH2jWDYbs9iIb0WwfhOVBwRyRjDrZBachooiT+1tytmhua4mcLaJCqOsEvDs6wecatO3Kz24q4MN03crCL7F88RK9JrIUMfK53HEAbR9CgCgT2wZI4giptVomYFYVqEtSnMXF/vvLOshUEHf3wnKgowc32ElTGE5WL3DR+TyIqaZeJ2Ta9p2K5jdIWcUkrHlIU+SsU6CPswbs9DiVs1osY0zuByhGV3xeIYKpaoqEkwuRvZriOjgLAyhpHKghCosFtw1jAQpoX09XMf16eRgYeZq+IOr0RYNkF5FNmqAopgeh9xq4aRzhO3693nYxAVhYTlUS3uGmXMdB53ZDVhZVxbSaMQM50/qiBSMiasjqNkjF0YJKxNEdantMVSygPPg2kRt+vYxWGk30Y4qTn3YMadrGSEiiNkFGJnS4ReCxl4GKksYXVcW3MNk6C8n1QqizBMVBwhPO2GfDaTCKyEhFOIikKC8n7MbAd3aPnJPZdSvUV0Cy4EQci+qnaDDRR1/FHu0MBoJaEyBlET+oaIleDeLYLvPrKXUI3ytqtW0Z6s8jcPdEg7PsVUgx3Ts19yZyxJsbTP4YGdLQppk//x0mFyKZONfS1+uMVnd83mlRvTDDkeNKb1qr6dKhSGoTtxSb+F32rhmVkipUtfCsBo7MfutLALQ3h+TDNUGEEdW0yxKBeTSueoN6fpSEGcKrFkpNALYjcMQTHnkjMDio0KhmmSc0aIm1XCqd0AmLk+nOGVCMMkr5qkHR+jsR+VWd2bVGXgEZT3I6OQsDKOmS1pq0Grhju8Aum1COtTOgDdtDBsLbKEYWIVh/Qk2NTukBkLi4wC/P3bUVEAMkbYuvK6AmKvjTAsbRVqVkCBadlawLTrOjDYcog7deJ6GRl6CCeFcrQoFHYK6U0Rt2tIYRBM7gXLBilRMsbK93cnu2n8yd16sms3kO0aKoqw+0d6k6P0O4TTo0i/rS0WuT7djoqJ6mVtzeuOk3BSxF1rirRTIATCMBGWRdyq6X8LLSQBgul92j1XHOpN9NJvE5RHMSwXI5UhblWJW3WEYRB7TeJWHTPXh923iLA2ifQ72MWuhcvNEk7uQgVdy1+riuHmsPsWzRGNMvQJK+MYTgqU1EIuWyLuNIhqU3ospM7SlP2dnlju/dlEIUZzkrg5At3Fh1UUHrjXpoUzsJSoPkXUrOjYOaWI6tMYbgarZ5nMaAum1wKl0OXyLQh9ZBRhpnNYqRxRs4y390kwTFTQxsgWdXu1SX1PC4P6Oirj3WejiWzXu2Jc6Hs9vhPpNbHyA/o5quxHhf298UCAXVqkBY2MUXFE3K4d6D9gpnPE9WmEZWM4ByVjOC6y08Kf3ENcn8LM92P3jSA7TWToYaYLxF6TcGqPFmZCYNjaiyAMg7hdR8YhUWUcM1NAmBZRo0wwvhMjnSOYHMVsTKECj2dz5dlEYCUknEJk6KNCj7g2SZzrO2YT+nyoOARFLyZl5mteSkWzEzJd6zBRbhNLRbq1HxG0CIsrGOgrYPgtsF0wbfZNNtk70aDZDrGkRy6qsmw4TxREfOnHU4xWZuIHJZ/+ztaehaoTxpRbYBrwxvOyrOlTOPk++nP6tfKa8/t6/YpjBZbLxtIELzlnHS4BQXUc4Te1EPHqELQgXSRq1Wns20ZaBPQV+8ksWoGVzSOCNpEMcAZHSGdzhFFMEEpkYwonB66RwcwUcdw20qsirAizExCGjp60Ah2vFHstHBGhIp+wvJ/Ya2kh5GaJ6tPdFPMC0mtgFweJatMYThpncJmOUauMIf0OVnGQqD5NMLWPuD6FiiN8KVFd10lPaFg2ZiZPWB5FBh6yXcfM9WsLi2Fhl4Z1P1pVzFQOJRRGSk/ShuUSt8pY+UGEYWo3nzC77bo6hmlsh06ZRGC4GezMELF3YL1CIQTCcomqU6hI18oijkDFmNlSbx8z16ev37SxioOo0CeY2oNSMU7/EhCGvvZAWwjD2iRhbVKvbqhm2igddF4Dw7TxJ3cf2IZAmBZKxbNijgzbRQiDqDah3Zv5fsxMkbA8ivI7mPl+LYqUIJjaiwo7OmvTtAinm6AkcW0KM3Pg78lw0z2rV1id1BN3o6xDBLNFVBQiLEdb7Cb3IL1WT5jErSre6FZkpw7CwEzltAUqCgkrYwDYxSFtZfQ7hJO7MJpThJO7iFwHI5UjrE9173WJqDKGCjziZgXDSffEmV0aPqi/GYLJPVqsuNmumztGxTHCyWBnD1gBrfwAKtTlPYxM8UBcmpQI09KCJZ0jblTw9j6pf05le0LZzPUTN8sIy9HPZ65E1KgQNyrodBWBQmnLVqaorW5BR7tPLbfXf8NJEXaaiCiclTEqbJe4PYUMOhhOmqi8n7hVRwbtbratCUpipLIYTholpf7Q6rYZNyvI2gSGk+5Z+s1MkahZQdUmUVEMcm4CyLONRGAlJJxCVOh3XyaKqDbRfekdf6ZP4HlU92yj48d4uaWEseoJH5Sk0/GRSlHMZ3FUQFBvgPIRnUm++KNt7Bxv85INeWoyzfd+MTbPGTq9f2Vdg5ed4bK3Bvfv1NsvPyPPaSMpdox7nLfCZXm/BabTe0keTKMdEkuJQYrQLYBh0lFp/fXupGi2I4xOgBATSLuJqo/TlzEYXrIS028gwglcN0PYqRCnDKy8/mI1u1XDYzLIsIVRGAL0RCWcFNJrE1XGteuua1mJ/DbCMDBzfag4JKpNoKTEKgwghKEtHdXx7pex6ImjqDqhj4lCotokZragBYSbIeq6dsxcibhZQSmw8v2zxsCwU6goIqqOd+NnHCBHMLWnGxDcxMwW57jSjHQW4bg9sXawKBFC9Ca1g11l82G4md54m9n541iEYc6a8IWjrU7h1D4IA0AQ1aewunE99jFk/pnZ4qzIM6UUxBFKRnOCuoVlYxUGkaFPVJ3Q8VxKHRBXgJktIEMfM1vqTfJxu6EFTBxi2sU5bdoHu1D9NuHEbiLT0m4mywZhoEIPKz+gzyP0syK9JmamOMsdqJ+HAmF5TIs104IoQLZbqFQBYVj4Yzv08VGgY51sFxXHxM2a7vdh3ItmKquf3YPj+bBhnjh9IYS+P4dguAc/HwZWYQAVR9rCdvDvDGNWLJswzFnjBHTdivuJahNo8Z7FcI05/TezBVTgzR4nYXSv1dQWMDethXnXvaviSAutrjAUB2VxC0cniljp3CwroWE73b8biNrHVqrlmSYRWAkJpxAZ+giENpE3ysjiMGY6pyceJWe7HZTqLYBrWQbtTki92UGGAbI2RlSdQJk2YiivhZqMwKshWmVKhsS0LCrxMLHySKmIR2pZvn7ffqodrcS+fn8N0OvhnTZo0pcRRMqg6gn2lgPCWHHOigzXXtRP3lGo5jQbR/KkMmk2LNUv67OXZ+ZcYxhJ6m2flK3LFChgUX+W/ZM12r6k5YUYpsXi5cvIZ1y8IMJrm4TNJkbUwBnM0jfYj2kYKLuPuFEhmNxN7DWwsnPTt41MAUOp2S9pYRzVOigsB9xs94tfH6tjlNo6TiXTjSVyUkR+i6gyhgwDEEZPCJmpLIaT6t03K3/4rC0zncNIZQ46VwqRd5Cdhv5SnyeoWghD9/MoHE2kC9PCKg0dd+C6YbuIbEm7JrsWsqdTBFIIAZathcMRzqlFSTQ3gcC0MA+d4DN5Yq91TFmShptBmDYKhWFaqCgCGWHMiKtem4ev32VYDkZxEBl6qDjGSOUwzRRM1bXQtmdKfeR7z6SZysIx9O9klFUQpnXMMWOzjrPsnivzSPfcsByY5xmdEUPAAevrQX067HmFOCUZr6eCRGAlJJxk4k4DADOd76bfWwjLRsYxcbuu4xga04SNMqlFq3svs8lqh+37DlQ7N4IWqdYYhoowZUhqYAjDb4DRATsN5b3gNcB22VMT/MeDZZ4Yn8AQ0JcxmG61ABjKW1y0NsfdT9QJY8WbLu5j0+rZcQxRrGgHknxKFwyVStGxipyzxsWcZ8mUVicklgrXNml5IYPFNC0vpNkJWDyYY1F/BoOIWsXAtQ0G+zIMFNMIIXAdk2LORfbn5tTuEUJg5kv6678rhg5FCKPrIjt+jHmsAGbXfXTwBGGmC0SNaW3tOkREHU+tn0MFjjCMIxbjXEhOtIZUb6I9xRyPKDieCVlYdu9xEbYDnFi2oGGnDliXwgPuqhMRM89Wnk/X8kyQjF5CwtNABp6uSSRjYr+NDDzcweU9c7ySsU4zRuAuXoMMPISpX+iGkyJqlLEKA0zv3U1jahK3EZHqX4xsTjM61SSdypEtlAAFUxWwInBzYFjaHafS0K5A2AaviUz38d1H6nx3c03HxQBSwXRL4piCyzfkedlZRVzb4KUbC8RS4VhzJ17LFBTSXRdMt5ZUyrGotXyyKRvXOSAqwlh2M/YcOn7EYDHNyGCGIJTUWwEDRS1i8hmH4aLNqsWFectiHC4tXgjjlFZ2FsLoBV73tlm2dmkZ1ixL2fORxoPfI5jeR/8Vbz6mmlNxpznLtfhM0XrqPqTfJnfW5SfFEhTVJsG0TqrYVFFI7DW1e+0ZWL4omNqDkcqdlGtUUUhn96PYfSPYfUcu3qziiNbjP8YeXok7vHL275TC37UZe2ILSl214P1cSBKBlZBwgqg4wh/bQdypIxRgdFP0hcAdWaNT8puVXsZUXJ+GKEB0l5Aw3DRRs8r4rp2Mj04S21nYsxs1Oo4RdjAsk2xYBm8KHBf8BmT6QQi2jnn8ZEuD8VpIrR1hm7reWido0fJ13alNKzO8+rwSKMXeSsjqIZdi5sCfvGkcWIA4jCWyu2Cy3V1YGPQafrWWTzHnMjKQod4KmKx4dIKIfNrBNAWtdkCpkGLpYA4/jHFsA9MwSLtGrzL68wHDnesOXWiqP/0mUW2S/pf+5rzWtcMRNcpM3f5Z3MVrKV127WH3k34bhDhsUctwepT6A/8JgLfvKdIrNxJ7LZAxRjo/a9KPO00mv3UjcavG0Ov+J87AkctsKKV0huQCWUWCqT20nvwZ+bMuJ2pVqf7oXwFwFq3C7ltM7d5/xx1ZQ+a084/aVlibwMyUZlktZeARTOxCRQGd7Q/R2fkwGCb5c15C/pwrZ4lP6bcxmlMoueKErkUGHlO3f45wai+gcBavZeBl1/cy66BbBHhyN+0dD+PvfRKrOEjxwldjFYfmbTNqVlGRj11adNTzK6Vo/OIOGg/eiXDSLHrDH86yrKo40qVCxGyLa1SbpHzXV0ivOov8OS+d02Y4vU8ncDTKtLbch2zXAUH6tPMpnP+KeYWckpLKXV+hs/NhjHSOkV//ABiGDokIfZqP/ojOjodIAcpvHfXankmeP2+/hITjRCmJCD29RINtHlNdqoNjpaJmmbhT13VxulYNJWOdieWksNIFgsp4N8A5IGzViaMIIUw6fkTHC6lPNmhFHRzbIVfMQWiBjMEp0fAkOxohqwoRXrnJNx6TTDTGiCTsKwfz9E67KVxLcO3F/Vyw5kAM0mDh8G6QlhcSxQrbEigF7WaEEGCbBkEY019MsXggi2UapByLbMpmqtah0Q6JohjXtnTZB0M8awRVWJvE2/kIcaeOYbu4S07vrZWWWnlWTwwoKWk+/APCyhilF75hjoiSfofm4z8me/oFmNki7a334+/fRvGSa2ZNxkcimB5FhR7uyJruOedfQiQs76f12D0A1H72bTLrLqRy91dILdtA6ZLXHfEctZ9+k7hRpt0o446sxVh25pzraDz8A5qP/QhhWBQvfi12aRH+2DZSKzb2LFD1X3y3d4w/tg27fzETX/8YKg4RTorcmZeRP+/lICXl79/cKzfReuwenBf/2mH7FzWrlH/wBaLaBP0v/U1SS9cd0r82zUf/i9SKjTiDy+Ztwx/dSuVH/0pq+QYK57+C6TtuQnYaeLsfmzWenW2/IMjtoP3Uz2g/9TPC6X04i1YRlkcJy2OgJKUX/zpmtwJ57WffofXYj7AHljD02t/rliWQTH/38wQTu2Z3QsY0HvwerSd/Rnb9xTrzb2ovnR0Pk5MRlS0/wF9zLqnlG3C77n4lJd7eJwin9hC366RWbCS1/IxZLtvOzs2EU3t6Pwf7tzF12+dILV2H9FtIr63jEFvVA2Nam8Db9xSlS68hu+6i2WO1fyvTd9yEigKsvsVkTjuPzJrzEG4a2aoRt3V2pDO8EgRU7/ka7afuA/RSTJUf/RsDr3g7YXmUxoPfw9v9aK9sRP9Lf5P0qrOQQYfpO2/SS+RM7yO14syemGtv+wX1n982q79ArwxFZ+v9dHY8RO6MS3GXrsMeWNqLRa3++OtazAKy06Sz42HCyhjNzT880JAQeEvOwUideBb2qUAo1VuePeE42Lx5MwBnn332grXZbrd5/PHH2bBhA5nMyf9a/mWnOTXGtvv/i+VLRsgMjOAuPu2IZnklY4LpUaTXxC4tIpjeBzKes6ipDD1ku0GsBJ4XIPL9+O029XqLOAwRmT6CSBHJGIeIdNzCLAyBYdD0YrKuwWQj4pP/OUbDk1y0Nst4LWTX1AFRZRpwyWk5zliSpi9rEUmlY6Asg4GcRcqZpyK2UoSRwgsiYqm6gsmk5QUsHcpTzDlICW0/ouNFNDsB2bTNcF8a8xC3mJSKjh/R7ISYhl6w+Gh4nseOHTtYvXr1HBdh3KqCEEcMLj5W/PGdTP/nP+qaUvNgZAoseuMfgTCo3PVlvN2PAZBaeRb9L3kL7a33YxWHcEfWUPvZt2k+cjf20Ar6r7iO8a9/DGRM8eLXktv4YqTfxtvzhC46OrSczNrzZ7kQg8ndTP7HpyGOGX7974MQTN3+WezB5fS/9C00N99Fe8vPKb3wjXh7nqD1xE96xwrT1qU4QE9qq8/R47hvC50dD2Fmi7q2UOhT/a+vHjjOSVF81bvZPT7N6tWrscI2U7d9lrhZnnc8hJNm4BVvBxkz9R+f7m23+5eQXn0u9ftvm7W/u/g0Yq9JVBnTWXRxBKbF8Ov+J9WffAPDzVI4/xU9N5C390kqd39F13YCMEwGrnobqeUbem1W/uurtLf8HIRB7szLUHFI3Gli5kpYuX4QBrX7vq3PBbpG1SGTt7AcVBTohA/L6Ym/+cifeyX5817O9Hf/CX90S2974YJXkT/nJTQf/zG1n9yqsxD7l2Dm+8mf/RKi+hS1e78159wAyjARBxW+NFJZsmdcirfnccLpfbP2tYpDuEvXk151Fu7IGqbv+P/w9jxOftNVpFacydR/fh7lz82UE5ZDasWZpJZv0GJ/31MgBAMv+2+4y9YTN6bx9j5J7b7v9MbqSKRWbMTM9dF67EcgDPLnvpTG5rsgjjDSeWQ3flSfXHRLY9gUX/gG2lt+TjC2vfdrd/kZDL787YSVMSa++XfaWmnZOMOrMLMlnEUryaw9n7C8n9p935l1LKbFwMt+CxUGlL//LyAE7pLT8fc9pUtKtCo6ozTXh5kp4J5zFaPTddZe8jJy/fNb8E6UhZzbE4F1giQC67lPY3wP2+//L1aedgaOKUgtP0MvHxEFKF/XfNGVghXCsHRhvMqYjtExDF0jppveDxBEkmrdo5hzsSzB6GSDasMDDKSCdFjDsFNIN4ttmVgHBYvHUvGN+8rc81ST4YKFHylq7dkFPDOOwRsu7MMQgtXDLn3ZI1uL/CCmE0Ta6oZ+Odq2STplkU/bVOoezU7IUCnD4u5CwwdztNT/4+VwAkv6bcb+9aMIw2DRte/rucb8/dtoPnI3mFbX2iCxioPkNr54XguQUgpvz+NU7voyKvSxB5fjLjmNuFnB378VYbuoMEB2GqRXn0tUm9BV1k1Lf53LuDdxC8th5Lo/ZeLWj/cm6oMndaswyMAr/juT3/7kAeGAFiXZMy7BWbwGFfo9KwtAevW5yNDD3/skoCfgmWOFkwYZo6IAZ9FqgvEd3X1ySK+Jkcoy9Lr/STC+k8rdt+iCsIeQO+ty/LEdhFN7MHL9NFZdyuJFw7R++g1dYyvXR/GS1xFVJ6n/4rsIw8RI6QSLmckTwF26Hn/fk4DQtb5qkxQveT3Cdqn++Ou9iVuYNv1XvpX6/bfpQqrdOlH6lwJn0WoM28Xb83hvbMxcSQtaw6T/Jb9BetVZxF6LsVv+32MSBPbA0gNiRQgGXvZb1H9xB1FlnP6XXU/lri/3xtRwMxQueg3Nh3+IsB3svsUI06L1xE8w3Ay5s66gfv9tCMshvWYT7ad+psXDpddQu/dbqNCjeMnryZ152eznTMZ0djxMZ/uDCFPXkDKWrGdvzWepGxHv34K394lZ4kQ4KdIrz0ZYNu2tD6DCA3XK+q+6nvIPvwhxxPA178HuX0xYHaf12I+1O9fNdMuA9JFacvqsunfVH/0b7S336XpWThrZrvXaTa04k9ILfxVv96O0tz1AML5T98VyeoVXDx7zvhe/iczpL6Cx+S7q932n23GD9OpzyJ/zUqzSMNN33tR7fmeegdKLf43KXV8BJSle/DraW+8nnN6Hu/wMBl761nnj+JRS+HufoLXl54TT+4gbZYx0Tr9nW1Vy51xJbuOLGPvqX/b6mF6zif6XvAWATrvNricfedYLrGeHPT8h4RlAhnqxYV0ssIH0WgjLwd+/vRsroJj5+hBK/2RlSzoDMAwQDlQbIYapXWP7p5pU6h71dkDatSjXA4rZ9EFZd3NjarxQsmPC5+4n6jwxql+6E3X9QhkuWPzKuSW+9rMySsENLxtmxcBR3Ji7fwFencaSixGGyUAhRTbjEMcSQ+h+zgSo59IOtaZPqZCadyHio4mruNOk8dD3cYZXkF59zglnqbW3PaiLGALtrfeTO/My2tsfonL3V7S79BDCyjh9L/71Wf2L6tOUf/ilnpvFWbyWgZf/tzmB8/7+bUzd9hk6Ox4CtIDpf9n1BGM7qP/8P3oCSkUB9Qf+c5YVZMbKJkyLqD7F1H9+Dum1MHP9uEtPp7PjIcLyqBYhB2Hm+oibFTo7HkZXhjW6y+C0tNUuW+qdxyoOMfCK/07l7q9gOCmKF72Wyf/4FFFljPGvfqTXZmrFmV331D6iyhhWYYD8ea8g064xffvniJtlso98h/ojen+rMMjg1Tfo+JkVkDvrxaAUquvq8/c9qUXRyBr6XvxrTN32WaJatxYVgvTqczDTeezSMM3H7sEZXqW3pbLErSrVH39dZ16m8zjDK/F2PXLAQiEE2Q0vpHDB1QjD1PE1Ox6i/IMv0PfiXyNu1SGOsAeWkjvrcjo7N2MVBnrjEjUrxM0q7shqChdcTfPRH1G//3by516pXXHLzkAFHQw3Q3rVOT0rYGb9xWRPv4Ds6Rf0xk27654kbpZ7lrniRa8hs/5iovoUwdj2XiyXPbiM7BmXznn+hGGSWXsembXn9bZ5ngeNHTjLTiN12iYtwrY9SPPxe7BKiyhe+Kqepbvwglfi7X2S9paf4+97ispdX4Y4wswPYHWtfnZpEaUXvmHOuWf1QwhKL3wDUWOKYGyHttgaJs7QclLLNpA7+3KEYZI94xKyZ1yiC+oa5oEPmLEdTN95EyroULjgVWROfwGghbqVH0A4Ls7QilmhE/0v+Q2m/vMfiepTpFduJHvGpTiDywgmdtF67B5q9/677puTpu+yXz1skoQQgtTyDaSWb0BFIRP//gmi6jig/17ym67EsBwyazbR3vJzhJOmePFrjzgez0YSgZXwS4NeB2wcqzCg6+wEHr2q2Katv+gQ3QVq+46Yfm/YDuW6x+hUEyUh7Vq0vJBSLqXLE7QD8tn5SxoAPLy7zU+2NNgy5hF3jRG2KXjTpQP4oWS0EvCys4uUMhYbl6WRknndflIppNTZgkbYxNj8HQSK7OQOipe8ngwC2x1BWHPFneuYDPcf3VIaTO2h+pNvIjsN8puuInPaCxCGSe3ef6ez/UFaj0HjoR/Qf+VvYh8m4FZn/jxCavtD1Hfdg3nxa3oupPaW+3r7tR7/CUYqS+WHXwYUqZXahSL9NiqOaD5yN52t92PYLoXzX9nL1qze8zXCqT0I0yZzxiX6d/NkJbqL15JZfzHtJ+/F6hth4OX/DSvXhzO0XFeP9tsY6Tytx37Ui4dKLd9A1CgTVcfJrLsIIQxaT/ykV2hy8Ff+B1ZhkMILfoXWEz/F3/sEwfQ+hGljl4bpu/w6qvd+E3/PEwBk1l1IbsMLaTz8AzJrz8csDDD5zb9FRSHZMy7FsB0Grnpbr8/9L3kLlbu+Qlge7R5/EaXL3nhg+ZrQQxi61pFRHGL4mj9g+u5/JdjzKMLNklpyGsWLXztrodyZZ1uYMPDy3yKY2otdHO6NpzOyultgEpyRVT1x4AytoP+K2YHc6bXnU//FHag4ZOAV/x1nYAlhbZJgbDtRo0x61dmz4qr6rngzwrRob71fW+O6Qe/ZMy+bI1zmI3/2FeQ2vPBAkUohEN3YufTa87TAEsZhxJFBbuOLekLAHljSvaeCvhf9GrV7/13XqrNsihe99oQzRoVhkjn9BT3RcjCGkyazZhPuktMZ/7ePdovaQnrlxuO2GAvTYuBl/43O9l9gFYdwhlYeVtQcWsrCHVnNojf+EVGjrGOxZtoUgvSqs+Ztw3BSDL/23XO2Fy98NWYqR3v7g0S1SUovfMMxu/uFZdP/krcw8a0bIY4oXvy63t9u/ryXE3tNcme8cE4oxnOBxEV4giQuwmeeqFFB2M4x18CJWzX88Z04Qyswc0WqTz3A7p07WbVuA44JKgy0Gynw5tQmCiJJqx2STunCh61OyNh0G8sUOJZJJ4hIO1ZPUB3sXlNKMVGPmGroTL6fbGny7V9Ue233Z03WLkrx4jPyLD+ahWrmWmJFo+3rJTAMQ1cP3/tzclvvnLNvetU59F/5m8fU7qE0H7lbx3Mc9JqwB5dROP+VTH/38wAIO4UKPR0k/Jp3z5slVn/wThoPHAigdhatYvBV7yCqjDFx68d1QUnD1F/hXXdVZv3FlC59w6xJrrXl5714I2E55M55Cc7wSqZv/xwYJove8IeHzaqaQUlJML4de2jFvCIsbtcZu+Uve264vhe/CWfRKjo7HiZ75guJmxUmvvE3wIGYnaPhT+xi6tt/D6bFyLV/0luiZgZvdAv+vi0Uznv5YSdIGXSIWzWs0ty19A7F8zx2bH2KVWtPJ52eP2PwSLS3P0jlh18CoHjx68htfNFh95VR0HMNHuvfolKSxgN30Hj4+3q5l1SWkV//wNMqYqrbVbQe+xFGKndYoSZDj7FbPoIKOgy+6h24I6uf1jnhyPGFR+Jgd9zgq9+Ju2jV0+7L00HJGOm3j0vMKCn1EjrdpA8VR4fNFNVrGsbzJoj4YzuI2/WuNVzofaNg3ozXxEWYkPA0UXGk1yU7KM5pBhkFBFN7QEqcwaWYhUFdEDP0tQWqMDjnmKgxrRcRDT2MKKNjrGa+5C2XuNOEKJiTOhxGktHJJtWGh2NbGAYEYYxjm72suVzaptyMkEoxmLfpBJIfPFZntBKyvxpQaWlXlyHoLWnz4vV5LlufZ1Hx8JNKFCtMQ39V+mFMsxNiBU2knaGvmKYvn8Lq1rGqPraNGHBPuxBZ3ktUn0ZFAd7+rScUTxXVp6n9/DZQivSaTdgDS2k89H3Cqb09cZVes4niRa9m4hsfJ5wepfbz27BLw7113Zzhlag4pPHQ9wEIhk/Hmd5BML4Tf99TePt0PEdq+QbMdF5bH5QitXzDHHEFkD39AgzLof7gnUSVMRoPfLc3KWfXX3xUcQXaiuEuPu2wvzczBVLL1uvYIWGQWrEBw82QP1enoRt9I+Q3vQzpNbWr7Rhwh1fSf9X1GG5mjrgCSC05ndSS04HDZxkaTvqw5RVgnjIIhxRtPVaUkhiZIjPVW92l6wirE3qpklRu1uSp4oi4Po2Rzh/XuppCGBRe8EpSKzbQ2HwXmbXnPW1xBaBCj+yZLzryskF2iqFXvxMZdI5b0CgZaxfvAsUm5s68DG/vE3pNyv7FhPWpnhvvSPcaFj5GEvTHBVIiLf+YsqoBpNcg9trYfSPamjiPuFJKItv1rviyiToNzFxp1nN+qNCNmxW9EHR3ncrZJ42Yb1muZxvPKYG1bds2PvzhD/OLX/yCbDbL61//ev7gD/4AxzlyunSj0eCv//qv+e53v4vneZxzzjl84AMfYMOGDUc8LuGZRXotgvIYruXMsSjJdkO7c5w0/sQu3G4BwJmUYRn6OANLD7hRvBZxs6rjpzpNVDqvgydnBFa3NpAQQpdgiCXj020UiqhbC6qUTyGlQkpFJmfNerntLQd84vYxYql4xTlFHtrVZn817P3eNKCUsZhu6viq15xf4qqNh5jQQw9/y08JCstILVqNH0miSK80X8jatDohw/XHUQ99B2vZmQy+7G3E5X20nvgpmbWbiCd3AlA67yqsfD8qjhj9lz9F+W3iVo1wai+NB++gePHrcBevPer4137+HyBj3KXrtFtHCNIrzmTq9s/peCTDpPCCX8HMFCle+gYqP/wirUf/a3Yj3fX9iCPskbXUV11GoX8I74kfdzPLdKZU5vQLsIqDtLf8HKs0TN9L3nxY90x69TmkVp1Ne8t9VO/RsT/CtMmfu3BFB2eyv1LLN8xb/6pw/iuOu830yo1H3Ue7scew8gMYTuq4akdJr9kt+nn0ukdH7EPgY2UKFC97A6aT0X8XjqMDkBvlWSJWejrTT/qdI7R4UNtKzposnaEVDFz51mPv2yEWkLgb0K5jwWp6/T+6SQPMFSFKSeJGpZuBuWh2uzKeY9FUUagncsPUz7xSOnYN1RO8Bz+nKo50MWHbOaaYRGFaDF19g76WTgMzndeLI9cm9aoGh7nvsddCdhqYuf4jlgtRUh6zm1NFYXfx6LzOYDxIYOlxD/Vi0rY7SxjJKMR0Ujpe8jDiKqpPY2YKOH0jCMsmrIwR1ae7H8JzhVLstRCWq5ecjqPeclFKKVTgITtNZKrYu8/PVp4zAqtWq3H99dezatUqbrzxRsbHx/mrv/orPM/jgx/84BGP/cM//EMeeeQR/viP/5jBwUFuuukmrr/+er75zW+yePHiU3QFCcdL7LWIW1XCWgojk++9sJRSRM2yXpcsnSNqVohqkxi2S1SbQpg24fQoAoE9sAQQhM2yfhGkcjqeJ+hoF9BBL8EZ94ZSiolKh6laB9s0kSiKGXdWYc6DaXox//TDCcJuoc7bH9KZPIW0ySvOKTKUt1g56OLaBhP1ED+U87oC1ePfI73nAdJAWFyGselXWTzYz2SlQ60ZkKs8iXrkO4Ai2vsocWU/5R98Qdc/eupnANiDy3sLDev154aJKmOE5VGaj/0XYXk/09/7F4Ze+26EYRJO79Njl86TXnlWLwbHH9uBt3MzCEHxwlf3XoJWcYih17yT2s9vI7V0fe9cmTXn4u97kvbW+7ULNj9AVB3XGUKtKpgW2Qtew/R0nfSZL8bf+vNetldm/cW9ukAj1/1vnRF1FEEhhCC77iLMbIn6ff9BdsOlmJlDy2UESL8FcYyRymC4mW7RTDln31n3QUmc4ZUMvf4PsPJ92tKpJIbloKQkqk3oRXwXqPCo9NtgGLpeWqhdIro8Q0p/GHQaPevAEdsJfMx0vpuhNk+8nt/uTrjmrIV/5+7Xwcjk9f3N9RE1K5ipfuzCEJ7XQoYBhu1oq0QUYmf7ZmVSHg4VR0SNaW3FO8F4GtlpIsMOojAECGTQwbAcwtokRjc7ToUBOF0R4jUxs309ESLbdb0QeNDpBXvLMEC2a1qMFQ9YvpWURK1q13UdYmQKOIPLEEIQey2i+nRPdMW+h/DqSK+JMnJ6fcl0rmeFUjLuhiA4h43tVHGMmUnjLNJW37hdP0whTu3Gs0qLiOpTiHz//Fm1UUjUrOiPRts5akxU3K5hFYcx0lmC/bVeG3G7AUL1VqBQcbPXVi/CyLTnuAajRgWlYv33luvDXbSyNx7CcpCefg+LQ/6OZq7PGV5JVJ/SH8KWo+9n936bA0uQQflZv6rCc0ZgfeUrX6HVavHJT36SUqkEQBzHfOhDH+KGG25g0aL5v9oefPBB7r77bj71qU9x5ZVXAnDxxRdz1VVX8fnPf54//dM/PVWXkHAQKo6QoX9A1MTa5DvzolBKEbfrGE6KuFlFths9K5YKOsh2A8PVx5qZAnGzQmCYqNDXLsUo0Onchn7Eo/J+zHROW7DaNe0OPAQviAhCiR9GTNfa5DMO9jzLyABU2xHf+UWVh3e3CSL9khnMW7xofZ7v/KJKf87id64cpj83+09suGDrWjKP3A4yItr4KmIFjqEQ+3U9JoTAru2lUH6E/rWvBBSTO7eRevTbgNKrzQcdpu/4/2alZQO9Wkkz2P1LtMCa3E0wuac3fhO3fnxOWnz1J98ge/qFpNeep2vRAJnTL8Tun/0RYmZL9F/x5jljUnrRr1G67FdnveyDqb20n7oPd/FaRGEApvWCuKUXXUv7qfvInX0FqaXrdIHWxjRmru+4XpqppevmFK0E/ZKO23Xs4iCGmyYsjxF2xjHcLCoOZn3ZKyX1Pen2W3otZKeFXRruZgxOa8tLvr9bMiGnY8UWQGApKYn9FiC0wIoDDDeN7AY+qzjEcFxd6PMIiz6rKMQwtXCK23WwZgsoFUdaOKUy3YnXm3/yVhKFFpOxrHePjfWiz06q++y1wXa67WUxcyWi+tQc69ShxK06Zr6fuFXTlp9DRLQMA10x3k2jlEJ6Lb2Q9kH7ySjEyBS1xUwIDCeDM7ScsDqOne8n9ttE3fpRKvSx8gN6oepUrnefzUyhl7GmohDZaWD1LSJuVlFR1F2fUMe8GakszuByZNDByhZ7otrMFrGLQ8jQ0y61Tpu4Cc6SdaTyBaL6FOH0KAgTw3a09dx2ka0awjTnFzsy7rnD7NIibZELPC1cDANhp0BA3Kxh5ftxhlcggLBRxi7MXWRchj5mpoBVGiKc2tcVlQeeCxl0dHJEt7yGMG2s0rAWZJaDDD3idgO7NKyzCt00UW2KYGoPM3/hKg4xupY2ddD7RI+1xBlYCkL0LLIzGLaLVRwkmNwz50NFhQGGm8EuDmpB7elyFyro4A4tx8z1QaRgrHrYZ+3ZwnNGYN19991ceumlPXEFcPXVV/Nnf/Zn3HPPPbzxjW+c97jHHnsMIQSXXXaglkk6neaCCy7gBz/4QSKwniG0ZWqS1JLTEKZNMLkbEPqlYZio0NOp16kc0msRVse1ALNsomZF16DqCi5hmAhTuy+E23Xz2S5I2U3bVxhOBsNJ4YcxRhx3BZ2eDPwgptxoUmsGhHGMQOA6Vk9cVVoRP3i0TiQVfVmLfeWAx/d1COIDgd/FjMnbrxhicZ/DxaflsM35rV0ANCcRu3TmXGfwLCgtxR97nGLkIdJ5CpteRu0n3yCe0GnuxRQET34bpSSpVWeTP+tyJr/99z1xVbjw1fqFPrmbzGmzs5bsgSV0tj1A66n7dPHAg4swCgN7YAlWcYhwepSoOk7riZ/00tztgSUUL3z1Md9TIUQvK3MGZ3BZL4PM8w7U/sms2URmzabezyoKtKUo8ueY/ZWMiZsVhJ065jgf6bUxM3mcRau6FpssUauKlS3hj+9ERQHCSekv5G6skbBdzHQOGfhaiPRccwozWyRuVFACrHxBZxAy47LoaPFxGHGhlNIWjVR2jqVB+m0t+vy2biuKMNIFVKfVu3bD1aKIIwgsGXQQqay2ODUqc97sKgoQbprU8g1Ir40/tp2oWcXMFme70AJPu77SOUR9Sm8U9BbhtvJ9+GM1DKW0lWFoRfeZ6k7Sh4nb0Wtwmjh9iwmFSdysYhX6Z+/TqSNMmzgOukLH1TGYXQuNFnCi50JDCJyBpVi5Ema2gBAGqjqOiuPuuEt9fU6qe78EVv9izHReL7siJTJoa8vU0Ao8r62F84zA8js4Q8uwciWgNOeahGVjduPGTGGj3CxGKothuzgDS1GBR9QoI8wiCHCGlqOkXl7LmFeMKoxue0Ymj5Xv15Z6Rz+LslvKQzgp7L7FGJajrVjNyrxxeyr0sQoD2MVhpN8hqoz3BJYMvZ573ioM6ExUJ9UTO8LNENUmsUrDOEMreiLXcDMIDrheZxKDDCethezMueNILxJeGDzskk9Wvp+oOkncrunny07p+oJxpP+eTFt/MHSvD2FgdF2oRHOLsD4bec4IrO3bt/Orv/qrs7YVCgWGhobYvn37YY6CIAgwDAPTnP3w2bbNvn378DzvuLI+EhaGuNPsWZIMO9X7WsM0cQaXIX0PGfpY6TxmtkDcrOk/RMNChT7GIROtkS50J6sDX0OGm9Zzp9DWgVorYHy6RR6fIddDmBadQLJ3qkUUC7Jpm1xGv+DqnZiHtjTYXw35yZZmz/13MKuGXF57fomhvE3GNXqCKmXPM9H6TSjvhpENMPZEb/NQsJfc0g2Un3wKBWTWnkdq6TpqQDCxCxn6NH56K6pVwcz10feiazGcNM7IaoKxHZjZErkzLzusS23G+jRT9NBdrFP2w+l9OMOrDixKrRTB2DaqP76VqDaB3b+EwV/5nSO6khYSFXctF1EIBwksFUfaRZUt6SBZ2z2mYOiZrMaZScfMFnuC3HDT2pVjWiAMXQYi9Aknd6Mc/ZJn5ovcdlGgXW9d8WFmC7o4J/qrWoU+sdfCsB3t3rTc2XE5oY+KfKQvdDsyRgaeXjYk6GD3LSaOI1QUolD62IO0uWE581pcoRs3YxjI0McdWIKRymFYNtEhVexl6HeXdDIxM3ncRavwJ3cT16dmubKk38HqH+n+rDO5BAJhdid+N4swDeJWVS8KXBjQ12y7XXEyj+tbSm0lGliq74EwtEsuCmfdSwXYxSGiRhkjndblHqrjRM0KVn6gt7+V70e2aigZ9yxBM2JFmM6ssRN2Cqe0CNW/GIHQ9zUKtCCMA2QY4vSVukVXs13BPZMJZ8wqbXG8mPl+ovqUtnq6WX3tShI640i/MyfjUgGYM6UnDOzBZVilRfpvUMme1U6Ydk+0GG66m8Xrz3K1qZk4sa6V38r1aVHZ9RTE7QZWcYi4a3lUoY9VHDoQCpDv10VvB5bMercYbrpXMX/mnpv5Ph27Vps8cDFxpBdGP8LfquGksfoWETWmUVHUdT0WUDLSMV3QDbRX3XvvzFqb8bnAc0Zg1et1CoW5D3uxWKRWq81zhGblypXEccxjjz3GOedo94mUkkceeQSlFPV6/YQFllKKdnvhlHSn05n1/+crKo4IKpPIdotoaj84aaJmHTNTIBjdidfpgII4iIh9XQwUp/sVH0twcggp4CCLCADCgpn9u8RSEYQxflBjrNIGCU2vQ6M1SqAMJmsR/YZHXzEDMsb3YyYbEZ/+/nRv0WSA1UMOqwcdyq2IobzFaYtcVgzMZGnFRK0G7PoZyk4Rr7qkd1wUS8JIknn0W6TKW2muuIxUeUsvQiYafQK54RLU2FMAWMvPInKyGNk+ZKtC9aEf0Nn+oK7r88JrCbrXnT73FcTBt8iccxV+GEGozfNKKZTXRLgZhGEiM7OtBMbAckLDgaHVBIrZY9i3jMKv/C7h+A7soRUEypg7xk8Dv3tv/EPuEUDcaekq+p0WpnHAUhM3pnWGaHGEKJb45QmMfP+RlzQKfWQMCotwnr/PSDhErSYiCLUL2XBRltBjOz2GSOcRsUJ5LYQEGYR6n9ygtv5FisAPCDtt7arOFDDzBfxmGdptZFjGyh9w2cStGkYqo107wtbWQ9NC1csIywUnSyjLqHoFUEhlEAUhUbOODCPiWBJ3WkSH1DJTcYhs1cE0dbKGMhGRJFACv9WYNdZRp42dGyKeGQ9ho/qX6zii8ihGJgalkEGAEg5hEBJEMaJZR0UxKggxaKMkBNJA+W3s4gheGEPYIcQibpUxxewJVSmFbFYwMgVwC8TtNkp1x7qp3cXQjbsJQjBT0LcMYZr4wkZmBwkbNcJaWcdM2indP8NGSQFSIA66xzKMCA4aO8IYY9b7NNQfExJUQxc4RQmidptYGQSdNpaV1oWGnfSc9g/HfO9upUwCLGStgj2yFuXpexHaaeLyfgwpkF431EEIff1BiDHrfAZ4M38vllZhkZxlwQmFpf9OlNFz+4FCRhJihdFuo5RBaLr402P6gyHXD+kSQXUK0aihfB8pDaLuuZXhogqL8JUJB/VHj1333qXzRJ0OTlFAGBH4Plb3fSE7LXDTB/X9MKSKKLdAVNlPXN6PaTjEnTZxFuJ2mziMCH0fEUlIZaA7RidzrlzI7MznjMA6US677DJWrFjBn/3Zn/HRj36UgYEBPvvZz7Jnj45HeToDGYYhjz/++EJ1tcfOnTsXvM1nEyLoYFb2oEwHMVHuTg4xym5AHCH27gHTASFQU9UTPk8YK8qNCC+UxLHCtgxSjkBFIfXJGqFTxLItOu0qnbY+T9OHf3tI0PIFpbRiRQmWlRRrBzyE8GBwpnHYP6b/ma3vZmj0p5ixthps8dKo3CCdIMYwBI4hOb2ilz7J7LkXQ0W9CvFxZT/jd/0bjoyJ0yX2VDtQ3UEqO4TTqtB++AcIIBhYxd5GBI0dBy5w/Sup+MCOg7bFISLogGGg3BzImJydwQj1S3I8tJAH7z8vFuwdnbv5kKSAE2V0dG7bwmug3Jz+f7qqN8YRIvKJ2yZquqNLaFTHUeOTYB0+hVx4DWSqgPTmv07htzCrexFKEeeGkM3u0jXNCkZjElkYARVjtCooO4WII6KO1bMuEAVYlf0ocxojbBPnh5GZ7kQSRbqPYwf6KDo1ZLYfo1NDWWW9wHh+GBG0UUYL6e3CaE5j1sdQTpqoCVZtv85YE4I46+vfpepzrkM5aWS2H2SAau/U1tpWGbMxCemCHmulEH6TuCVQztTswVAKs1ZF+HsRKOJ0EenvBSWxynt1ZphhEbXNXsat0ZwGGSKDMRDj3WusY9b3o1LV2X0M2mCYREUTalt72436OIZX188o6OdWRkQde04mmtGqYTTGEQji3CCyHutnXMWoxpOz9iUOsSr7QUowDN3efCUvmlPd8c4Q+Y62tgQtzMpelFvTAevFxcj6k3OOPRKHvruNVhmjUyUK07B/ujsmHczqPoTagzJ1TKYyHUQczH7OjhHh1TFroyhnGhG09HNjWCjLIe7YvXIGwmtgtMqoVF4nf1R3YtQmMdtVlO0Sec4xndtoTmO2ppBODhG0iDuGfo4q+1BTNW1l8xrIbB+yevTlj6D7/NRGUWk99nFDolLTEPlYlf2IKNR/Z4e0d7LmyqNVJjhWnjMCq1Ao0Gg05myv1WoUi4fPjnAch49//OP80R/9Ea99rS61v27dOq6//npuvvnmWTFdx4tt25x22uHr6RwvnU6HnTt3smrVqhMqDvhsRUUhmAfKGsT1KYKMxCoM6CwYYWBkiwcC3GWM8tsIN3vCWSJ+ELO/3CZnhCzO2HMWK0bGhHHM5NQkTqafsYZg67jP/Ts7hLFiIGfyjpf207ftNhAG4eJXzV93JfJJPXELIg5RwkSomJVylIZdon/7t3BOvwh3eAXNp7p1sJR+QVhDKxBSEk3vxZnUi80WX/BKhlfoWjC+0aQ58RSiK8WGLvyV3jIaR0J6LS2ufE9bTToNWn3DRBM7EW6GFWduOqElbZSMiWuTGNnSrJgKFUe94Nyj4fs+o6OjLFmyBNedvb+2VA0RN6YwMvpZiFtVjEwRe9Hq3rMTTpSIm+V5a0nN9Ee269iLT5tT2qO3TxTg73UgCnGWnK6tK4D0VhBO78UeWKpjViZ36XgwAc7SDQeC4mVMsNfSHwBeG3vJabP6E04P6a/xwoC2Mvn9OItPJ5zeq605uVU4i0+f6Y2+1maVcL+LyJVwRtYS7HW1dSxXwh5cQTCa1q6inlgQyMY09sgazPzsAGfptWjufISx6RpLlq/AMXTdOHfZGfMGyktvBcH+rYDAWXxaz6rk77ORjTJGvh936foD49ddvmhWqn6nQbDP6haJlRjdAHrZrGIvWo2Zn21JjWqDRJO7en2XXhNMG2fp+jkfvSoKCEa3aKvZktMPe+9Bx10Fe63u2PXhzpMAARA3y4SjDmZxGHuR/puToUew1wYUGMO4S9cfMbHgYA737lZRgGzXMQuDB7YpSThWAGEiLIu4OolwU6AUzrIzjriCxHxIv0MwmoIwwCis0db/6jjWyJreagn6vAqUnNV+3BgmGN2KUejH7T2TRyZuVQn3a7Es0stwRk7TXol9lk5esGzixjTW0MpjqksHB54fI1tEtmo4S9dhpPPddm2U18Resk4HuHNy58qtW7cefadj5DkjsNasWTMn1qrRaDA5OcmaNWuOeOxZZ53F7bffzq5du1BKsWrVKv78z/+cjRs3YtsnXtxOCHFSKq6n0+nnTSV3FYd407sxs0WcbjyQVwswMlmsVAop+lFSYqYPqQCdObaK0PPR8kIm6x5BBEN9uXnX2QPAD/j5HvjJzioHR1gt63e4/vJBBlQZY0xn9hnrr4Bsd5KIQ5jYCsOnwejjiDgkygzAxldi3fcl3IknSDX3I4MW0ZP3YHfN+WZhkLgb45FbfQ4yCmlM7wUgtepsiusOBKjbKzbQ1Cu14C5bT27xqmO69ijq6NIJShGU9+P2DxMNLCGa2Ik7soZ0+sSeK+m3UaVBHatxkEs9apS1hQTrmKt4u647xy0fBi5uqZ8w9hG2iTAd4sDCHVqKlT3Qbtg3QODXZ/XhYKJGGXNwBHdw0RGCztMY+RIqDkn3DR6IMclkiNNpjFSWuFnBq7sYlo3hpkjlZsf8mbkCcbuOyOZIFUqzYv+ksQTPbyDMrhEqXyLVN0BITBD7pIaXYR3SnjQFXkNnfDnZHGahjzBo4ZQGcIoljGoOlEQFLRQ6foV8iVT/8JyCkCqdJqoOI8bGcF0XW4aIdIl0oTT/Dclk8GMfYRg4B1XFNgslAq+OUyjhHuV9pFwbyxtB2I6uMxcF2tpZKJEeXNSL4ZohViW8+him6yKE0M9toR83O98zlMGOlhPVJkgV+45agNPMF7tj13/YfsdC4udLOP3DWN19lEph5HQCgzu0Audw43UE5r67MzBPO3LlGT1h7XWqGLaFsFzSueMvX6HSKcy6jkFNLVqBsGx828Iu9veu7XBIE8zmFFbfIpxjnHOkZeC1+jCcFM7AMh07KWOMSlZ/LLspwsAllS8c9fwHt2lkc7q6SCZLKl/o3Wcjm0eZQv+dpWa3dzLmyoUs3vqcEViXX345n/70p2fFYt1+++0YhjErQ/BwCCFYtWoVAOVymf/4j//gj//4j09mlxPQqdlxq4ry25huBmFayE4Lw9GTwkLVEgId71RrBUxW2kSRopRzD1jNpOKp/R7TzYh8SldifmJfi5/s1JPw0j6bpf0OF6zJcdqi7nG79h5ovLIHmelDSTAeuQ1z70NEfSsRXjeVfeUFLFq3kdqTWkSpug74VFFA+8l7AShsehne7sfwx7eTXnMu0u/QeOC7GG6a0qXXzLoWM53TgezjO8mfc+Uxj4EOFs/oUgIyxsoPkF13IShJduOxVR2fD53ynScO/VkZS0pK7NKwDuYV4oTup1ISgU6514GzPioMEancnHpVhp0GYcxbQHFmuRa7OHxEK50QAjNbnHdJj5ksRWHaCIQuj2CX5rbhZpDVcV1W4hCBY6SymMVBosoYKgxxRnR/rEweme/vWcxmtee4OgNtJrjXSfdqY+ksyBRheQyrOIRh2YSVcezBpfNW2xZCdC1GqrfciFU6siXh4LUCe9fh6LE+mqABPV6ppdoCEtWn8fZv1assLFo1R1wBuh6UaXdrHNm9bMnDYRcGEIbQpQqOgtGNPzxc9pq+tpQO7j/oo0AIAzOVgdDrWUpOFjMFTYWTwpgpL3MYi+vREMLAzBYx3DRGpoAQAndkda/cxBGPddKYudLcD9wj9d1J4S5a1Rtn6GZyWw4q8PT7QRjHbP0DnZGJaaH8Ti+DsHe+VIb4CBmqz2aeMwLruuuu4+abb+Zd73oXN9xwA+Pj4/z1X/8111133awaWNdffz2jo6PccccdvW2f+tSnWLlyJQMDA+zYsYPPfOYznHXWWYct7ZCwMCgZdwsA2nqx34ldIGOd0TRP3ZYTwQsipmseYSiJ4piWF5FyTIq5bqVnqbj7iQY/fKxOvRPP28bV5+R5xbn9c39R3t37ZzC+k07pDIzWFIW9DwNgVXbpX1ouS857IY5rE62/uLe2WGr5Br3cShd36TrS3fXRhBCYmSKDr/pdzEyhV3hR+h2dXp7KMnDV9brI5FEqc+tClaaebMWBcgPGktO7GZd5Che9Zt51946ZWGdsyTBABh5mKtsNBtUZR8JyCKb3HnGSlKGH8Js9F9PBbQvTQlgWRjpLOKWLO7pDy+YIIMNJdbOY5pZziNt1rOLgvALmUOzS8BF/Lyy9eLIM2vNO1Ibj6ngnNz2vS8cZXIaZ1taQmUw0I5XFHVkzb8anEAbO4PLepGjYLqaT7k1SRiqnK2EPLe/WpEofcUI20nmUnSZuTOPkS71sssNe7zxf7cK09bmOMybIzJUwM0VU0ME6jDtPWA5Ytq68PrNo8xGeT2HZx1yh3rBdLaCOFKdnWvpeHHLvzFQOpFrQD78jYdguWC6yWdEJDyeI3bcI1IH7eCRxeTBCCNxFx78W43yFYo1UhqjT6H24HMvqA71+dIvfhs0KVjo/O3PRTkHq8OsbPpt5zvS4WCzyz//8z/zFX/wF73rXu8hms1x77bW85z3vmbWflJI4nv0Cr9frfPSjH2V6eprh4WFe97rX8c53vhPjWV4F9rlO3G4gO3WdSm2YSK+JsB3sp5H6PEMQSRotn8lqhyCMsS0TwxCUcm7PJThWDfjCj6bYV9GWjaxrsHrIpelLlFJkHMHKQocrzphbWykIJXZ5T+/nTHs/I0uLtH74TUIUVreAJ0qSXXchTkpP9tl1F9LZ/gvsgaWULrmGsVv+X6Tfxh5YMm8Npznrb/ktvaaiZWtL1Dwv+kMXV5V+C6UEImdiGOaBr+PuEh8Ig5mFi08EFUdgGjotX8YEk3u1O7C7rpiwnK7pXh0xA0f5bZSlaxtJ2+ylXCsZ68WeTQvTSRMCVml4TtwO6InWcDO67MTBRROjAGEYWIWhYzLxHy3ORZgzwdHG/BYY09EVpVPz1+USwsDKlbo1lA4+7vCv3INLYgjLRjjp3j22ciXMVLbnhnUGlhy5/4aBzA3ijKwk1Td4QoJBmJa2JhznGoHCMHEGlugSLIcp86En1Iwu7hlHGKZ1xCVfjuv8ph67o1lQ5nsGzHy/tkqeonXuhGlhpNLIdu1pXf/xiuCTgS6UG3VrttnH/dwYTkaHvx3yzFj5PtQCzBnPBM8ZgQWwdu1abrrppiPuc/PNN8/Z9r73vY/3ve99J6lXCYcjburifjOTyokuj3EwUiqmqh3KDQ8/iEm5Fn35uV9r28Y9Pv/DSTqBJOMYvPb8EhesyWGZB16cvh8wun/f7AP9JuHUPjruACmvhi6qo5D1SYyxJwhHnwRhMPDS3yAs76e97Rfkz3lp73DDzTD8+j/o/Zzd+CIaD3yX9KrZFdYPhwDMbJ8uUFgYmH+drmYVJSOM0jBKSrQIEN06YvZs14Bh6P/kiQssGfoIO9Wtx6N6xQC18NK1bgzAMJ2ey2c+lFKoVB6rfwmyNY0oaFdsz1Vn6AndKgxi9y8+rJvPzOR1rNXBfWzXu8t8HPuCw0dCdK9LmOa8E4UWQJmT5rYQtqtLbXTbN5z0LEF5LCgng1k4MXEFXTHrHL8FC/TqCkerIWWmskS1qW4SjH1cLqUjIZxUd+yOv73jDTBfCMxUjthyeqtOPFcxs0VdJb9RPuLf7+EwujXuDrW+6TUZn3kBeSI8t+9owrMWFYf6C/YYTdXHQiwVk5UOE5U2KcekL+/OESDVVsTd/397dx4fVXnvD/zznGX2zGQPEJYQkMVKBHdEcakVUStWrWJd0Nsq9qJWvPantl5ar9ZS2lvaq7f12uVC0StqtbZUxFo3KqhVpLXiUlllTUK2WTLbOef5/XEmQ4YsJOFMYsLn/Xrxkpw5c+aZx4H58jzf8/1+FMFfPgrDsOxioP9yRhkKvD37i9N6+ym4W3bBUzQSErDv3LMMGC31aFq7EgDgn3QKtFAZtFBZh9Y0Bys49mx4KidmeiJ2T0oLgF0t2660HOuw6mU3n4XdC8407FwkTYfQ3PadeKGynL+MhKJme6kByDRp1npcEd1+zZTdlFVRoXh8dv5RKmHfLZbJq7P3CnO3fA4mICBVl32tdLs+ZJYJ4fHZ26beAijDfd1+0dlNuZFtzWKlk3abj1DPVq96StE99hg7WXVSdJe9DeXg5zv3+m54hvV+68ZJwuWFFiyHyNN7FJkikmYyBj1Y6tgW0Gdh7npD6B67A8Ug3AJrT9HdcJWOtNMS+rJimvkzNViDqc4M7v+j9JllJeN25WsHkkXThoXWRBqN4QQirSn4vS642noEpuKAkQR8hdi4PYb/W7cfRmax5piRXlxzeumBcw+iNO2Ev3kHUukmxMvGQ43VI9RiJ7bLJvu/7ooqu5p4S73d783jR/C4c3s8diEUuMpG9ezkTC6Skml5km7YAxwUCJmtEWgFRTCTrXblb2kBqgYtWGyXL+gkcBKqDpm26zRJ0wAMo8N1u2WZB5K/FdX+V2rjXgCAEvIfOO4NwAg3AOiY72OvdqmQqv3Favchs3O2pGXmVGg+5PadywOhe7LVsM3WCPTiYb0KGntCuDxAXOtii1CHe1jnCdxDRVtrnHxR3D7oxcOhZvLLjlSK25vJLRz8nyXVH4JWOjJbib03hOayA80hMA9tGGBRn0lpwQw32O09hAo1UJj9cjQTdm+1w+l2njYs1Da2IhpPIZU2oSkqgj431LZtvuh+WOuWQ5gpPFd4FV7aYhdbGFvmxjlTQpg8wpO7ohGpA5KtQGkVrOY9cG/4P7RViVFqKyC8QZiwA4C2gMRVPgbSMtH6id07MHjC+XlLgJXmga0SobsOdKrPsIwUoNj5SbJpn107SNp9y1RfMNOnq+NfbELTMluJbT/bK009SXq3G82qOQnlqjeANCSElDl3sdmNlOu6fG9C0dBWwr6tdYeVStgrUb3YalN0N7TCCqTqtgOZMeih7pPW+0LRdHtcXawsDOXgqj8ouhvu8jEDPYwBp+huuLu423Iwch3iBpKuCM0F/TC2tD+LGGBRn1mtESTrdmTuChPQgyXQSyrtJq2xZih9qDHWEkvBo6twu1Q0hhNoaInD79HhDWhQ2gVLRrQJxl9WwGfZNaZad30MYAJOn1iAi08oyq19JS1Yn6yHuvlVQEpETvwqtLqPoQFIaz7oioTVUgu02FWpS8+7Ac3rfwcj3AB35VF23pHLC1f5aPiOym2m3BtmrBlCc3eZ+CtN016dUVT7L9v2b0FaMGMt0IuH24FUPAIz2gwg0x/O5YVaUNLpLfVC0ewaSpmGqcLlhUzGITN1eOzEdMVumHtQMGGlEoDLmxO4KW4fFM0up9A+b0bRMzlVlgUr2Qqh2Ldqi7a+fpoOKFb2GmqwFOnG3fbdT73cHtFDpTBjTTDDjXANr85Lz0TF7YNW4FzbDKKuDJXg6nAIIaC1K8g6FDDAoj6RUiIdrgekhB4shTQNpFv2w0oloBcNs3NXetmYM540sLc+CrdLRUmhF43hBPxuHW7XgS2jlGHhzU+iqNz8LI5SojClgCokTiuqxbhx03HcWH+HL0Tr/T9B+/Tt7M++lm1wJ/bABJCqnILSycch/NKvIdNJuCsnwFU2GmUXLoC0rOydPcO/sgiA6FMV9Ow40ikIy7IL80kJK27382q7prQMuw4PMomdQsnWnDJjLVB9wUzyqMhsqdk5W22BjbusYy0jIFNjxrIAy7Lv1PP6kW4Nw4w227fU+0OwEjGkm+vs8g7tmy2nk3YZhnbbdoruhuILwIpZOYnEbXecGeF6KJ4CSABWrNm+Zd80oLgCAGLZ812llRCKAiPc2OsvGKFqcBWPQFpRoefpL2XF48+pk0RE1BsMsKhPrHgEZrQpe2egUDVowRKY0WakGvbAMlLQenHXoJQSjS0JJNMmkoYJ05JIGyYCBQe+eLfWJfD4+gY0RlJYXGQ3Atwz6gsYtetPqDR3Y8RIBeK9PwCWBRkoBUZNRUrxwrUnU7dqWDWMfVvhbdqczSGShSOgFQ9HyRf+BdH3X0Pw+POy70e0SwU63LuL7O1SNZPInmmhkYzbgVRmSVyaZnbLzb6DTYM0zcwdgBKuksoDJRh0F9pKhR8qZ0EoKiTsAA5CgeovhNFSDyiafU2P3w7kdA9S9TvtVSdFte/6y9TkOpjmCyGdTuWsYAnNZa+kubxwl4+B0F1I7t0CKx7Jrs61D7CEUKAXj4DqDULpRaHDNqo/BMVXcFhBLxFRvjDAol6TUtrJzFbul3tbUqwZa4GiuXq1tRKLp9EUTaLA54IiBCKtCRRu+RNE827ASGKbbwoe2nIUJIBJvha4hQGpeVBZcyJk3Tq7yelfH4dosRsJCwBm024kR5wAT6YoZcmMS1H79A+RrrcLiAqPH5bXLtboHja2Q00qR1kmhKraCeaZnxW3D1b7O27Ega0CoWp27o9lwJLSLpPQLom7beut7ffdEkqmRZwFqCoUbwCqv8gOUDwHktT1wnIYkUY7edwbsJP69c63NBVfELpQcgJPIQTc5aMztbHs96EVFCMRaQSEgFA7jtMuuNr38h0Mrojos4p/O1G3rFQCRqQp91giBjPaCKWLFaq2eig91ZpIo7apFYCErilQVYHClk+g7n4PItYAkYxiWMMGABZOrPbjX461E9BRVGkX0SwbBwDZ4CpZaedJKfWbUdj8EQDAUzkhU1rhQAKmXj4WnTZwbkdKaVdKP0xt+U8y83LStFeMkCmKKy0r014iE2BlCobahftSUL2B3GBGc9mBVaZeU7cyK1iwDCia276zcdjYDtX0hapBKyiGlU7YY0on7IKNnWz1Krq702r8ituXMx7FE8hsYSpD6u4gIqJDYYBF3TJbw0jV7YAZa8keM8L7cyqJ90Vb38D9zXHsrIsgnjRQ4MtcT1rA5tcBAK/Ej0arpcOnpHDF5DSuPLUErohdHFQW2TlHsnxc9rqJimOgTZ0NFI+EgITcsRGA3TAZADyjJmXP1XvQIkIaSRixZljpVA/OTcOINObcsZe9E9Ay7UKambwqaRn2ipbS/ufckgDC7c0U9DQ7tDoRQtg5Qpledd0Riprpq2ceCOC6CCxVXxCKosJKJeyWOP7QYSV5Ky6PfY2eBIJEREMIAyzqlpWIwoyHkWrYDSuVgBmPwox0vXrVFdOyEG1NIZkykUyZ2FUXxY69LdizPwopgZDfDeXTdyHW/S/w3nNQYg2IWS6siddglxgOADi5sN7+sm/KVF8vGgkpJVqDYyA1DyxXAOox52JEaQCFk0/OeX1PZSbAGtnLAMs07bwny+j+PCMNI9YMoblgpeL2e26NwGhr+mxZmbsDNXs1yzShePwQuscuCdGuKnobRXdnGqeKTpv6qt4CKD3YXhOKYldfN4xDFsZUPH4o3gKYsWboheWOJJCr/iJ7K3KQF1IkIuoN/o1HXZKWCTMRg+oLwWwNI7HrY0BRYJlp6HrPO7+HW1NoaI4jFk9DUxUoikAiZSLod0NtK6cgJYwPX4XLbIVotot8vp6ajK+fPxqjI83Apk8h9m+DHFkDEW+GhIBVMALhaBJulxeJGTdCVTUMH15qv8bYY9Hy5h8gzbTdBzATiLiGjYVrWLVdhbugBGiIdD94y7SbCx/UoLgtWV0IBVJaMGJN0Ivtau1Gcx3g8dvNjUUmsd0yALcHsFR7NQt2pXDV67fz2aS0e6C13wZUdTuJXdc7rabd44bZiprpq5c89GqXENBC5RBuH1zFwx2pLq0GQlDcXiSMvrfrISIabBhgUZdkOgkY6WzTYWkkIS0Lmr+wx9cwTAv79seQMiwEvC4YlgXTkigM5CbB79tThxFmKwypoMnyw4JASc2pGF3iBtyZlaamT4GG7QAAK1CGpqREyO/G8FI/PK6inEbDissD79gatG7eAM+oo7OvIxQVZeffBABIJBKHnoO2ZPRkPOe4GWkGAGjBYntlSPdALxoGKx5FWu7L9NdTIYQKmCakZUF1+WAZdg8/KZApmVCAdONeKP7CDu10hKrbq166+7D6tIm2hs9C6dEqklZQ5GgFbyEUO0A0Dj+XjYhosGCARV2yUklYZjrbW070stksAMQSBhIpE6GAfXegqnZcQUmbEhvf/RAjFKBOKcc/x1+BIp+G40Zn7q7zl0C6CyCSEcgPX7bHFhqBEaUBFBV4oGda4RycKxQ6ZQ5cw6rhq57a63FnteUtxaM5hyUsIJNfJY1UNghS3D4oqg4zHoHi8kFaFqRpt7RRdBekbm8hCsUOdhRNh1ZYAVfx8A41l4Sm2a1zvIHDK3aZafhs9yXkH3kiov7AHCzqkpWK43BrWEdjKSgCOVXY2zNNC0+80YCStH0HYMnosZg5KYgpo9u1SxACsrQKAKAkw4CioezYGSgv8mWDq84oLg/8E048vORq0bYNeKBtjTTSUFTdvsvPSNvNTb0FEELYxTZdXljJVrt1kKbbq1mwK6q35VwJJRM8uX1wDx/XaUFLoeoQugfqYbaOEIpqryKpqp1YT0REecd/zlIOKS07id0XhJWIHlZwkkybiMRT8Ljafcz2bwN0L/bKYkR2bcPYHc/CF5uKcR67h53eRW+y1vIp8O/9EK5h1Sg+9Us9zz86TBLIbK8dOGalk4Duhmj7PaxsECSEsCujxyNQPQFIy4QRj9jXUVR7Fcuy7DsK2+pYdRF8ClWDGijscAdhXwhVhzTSTDQnIuon/NuWcljJuF3N2+W1V1p6kftjmBYisTRaE2lIALqmIJU24QtkPmbNe6C89SgSig9L9l+KL/n+gUmeFC72vQNNWHYQUjQqez0pJRIpE2nDggyNQsFl30Eo0POmwIerrTaV4vLYZQ6k/bM0UtAChYBQkG7Ync2TaqN6/LD8IXu7MJ3M5GNlAirLzPTo03tUHd51UF5WXwlNBwz1sCvSExFRzzDAohwyFbeT2Y00pGX0uPmmlBL1zXHUNbZCVRVA2qUZdM1uufLHjc2YvO8VTADgsVpRqLSiymPfwaeJzN1lBeVApqilaUq0xJLwuFUE/Tr8XheC/r4nevdJpg+gcHns4Mg0AU0Bsu1jBNKWBeHyQnEdCLAUXwFcmssOojS7abNdokEFLA1CVXPO7w9C1extSQZYRET9ggEW5TDjUUCo0AqKs42GeyIaT6OhJYGA1wWXfiAvSmxag9Sn7yMeORbjfduyW21fPtrEmKYI0P7mvOLRAOyGztHWFIqDHpQX++DWByYokJZhb+u5PHY1dMsELPtuPKF77PpULrddvbx9gVChQGTay2Rb2mQSzKVq2YGO1s8Blqb3e1BHRHQkY4B1BEs310FaBvSi4RBC2HWv4pHsdtehgivTstDYkgAEEI6lIICc4ArSgvnp3+G2UpjrfzPnuUcHmiD22NXhraPPhdj+DuSoqUilLcQSKVQU+1FW5D1QJ6u7cSRiUNxex/rSGdEmKLrHDjBVzZ4PNRNgpS0I3W0HXULYv2/XI/Bg9lagbt/Jp2oQ0gI0N5R+rmquuP39HtQRER3JGGAdoSwjhXRTLWQqDqFq0EPlsFIJIHNHXE80tiSwZ3/MXslRgAJv7hZe7a49GG7ltpiRhSMhmndB7LN7BEqXDxh7MuTYk5EyLMTiKZQX+VFe5IXSg+DKSidhZUooqJ3ciddblmEHimYiBkXTITw+Ow9Lc8NKRGBZFrRAcTZBXSssh+Lq+i6/tsbHQtXsZHZVs1sMqf0bYB1OQ2UiIuo9BlhHEGkaMFvDUP0hmLFmWMkYFLcP6fpddkFMINsT71BiiTT2Nyfgc2vwuDueH09Z2PjuRxiuAbuVERh21EQoZhqyoBxi4y6IcK19YsDO8Uqb9rZgRXHPgysAdjkEfxBWKtnDWTjE9RIxu+5UawSWkYSqlwEAhMsNGW2ChF1xvY3ernl0Z+xtRC+QeT9CUaEWFEFx976mGBERDR55q4P197//PV+Xpj4y4xGkarcjVfcp0s31diNejx9QFKRqt8GINADi0PlOrUkDdY2tMCyr0+AqmjDxyMt1KDf3AQDKxlRDjD8NcuJZdiJ7e4FSpE0LkVgKZYVelPUiuJJS2pXWXXZT5G7fe6wZZiLW/fUsy94yDZZB8fgzFdrtVTlFc8FKJ6B4Ar1eDRIeH4R+IKDSQ+Wd9hYkIqKhI28rWFdccQXGjBmDiy66CBdddBFGjRp16CdRXsl00t5Sa64FIKEV2KtHqrcAVrIVRks9VF+w22u0RJPY2xBD2rAQ9B3YEpTRBljrf4O9rjFY3nQi9kctzCu0Gx1rZaMPXMBfDCkUOxcJQNJViGgshbIiHyqKe5ZzdeD9JKBomRyo8P6cVjk550kL0jQhhAIj2gzVH+r0PCsVh+L22ytiRhpmazhb+VyoOhTdBa2gpNf9+fTC7le5iIho6MnbCtYPf/hDjBkzBj//+c9x7rnnYu7cuXj88cfR3Nycr5ekQzATUTtICJbYeUTKgf/9itsHrbACSjdVw5MpE/saY5ASKAy4sytNhinx/ptvQU9HMTq2CbPkWozxJ1CsRCEhgMKRBy6iqID/QJFQJViGYSV+VBT7oCqdfxyllJ2uUFnJOFR/EKo3CEXVga5WsUw7WV0vrYRQNVidrGRZ6SSsVBxasBRC1aH6CqB6Cw4UA1U1KN4QtEDPm1y3EUJxLAGfiIgGh7ytYH3xi1/EF7/4RTQ2NmL16tX44x//iHvvvRcPPPAATj/9dFx00UU4++yz4XL1c22jI5S0TFiJuF02QCiA2vELv7t+d1JK7G+JI5kyUVRg16raUZ/E33bE8EltEnON7dlP00nurTjB0wgkAATLgcx2WDxpwDAkPJ5iuKP26tao8dXQAt23grFawzBTcbiKhnV4T6q/EEJ3AZoOaaazleelZQJSQqgapJkGNB1aQQmkaSFdtx3S47d7CCYiMCONsNxuuEoqs6tNitsHLViSLbegePxwlYyw86mIiIgOIe9J7sXFxbj66qtx9dVX49NPP8WqVauwatUqLFy4EAUFBZg1axbmzJmDE044Id9DOaLJVAIwkhA9vEPwYJHWNJoiCQQy24J7GhN4+9W/QEogkhqJ0UUNAADrc7MhPnwRSqLZfmJm9SqeNGCaEgV+DXrpcJj7P4bQdKj+7leEpGXBMlJQdXe2Irp93LR76+luCEWF4vbBijUDbh+sZCvMRAwCgBYqgzTTUDwFEIoKraAIRnMtrEQMZmsYljcEtXgE3MFCqAXF2SBTCAG9XUAnVO2QYyUiImrTr/sWbrcbXq8Xbrc7my/z0ksv4ZprrsGll16KzZs39+dwjihWOgkrU9eptwzTQn1zKwQEdFWBGW0C3vgNLve9iSv8b2Jh5QYAgCwcAVSdAHnGTZDlR0EqKuTwyZBSIp40UFrowaiKIEKVdk6WVlhxyK0zK9lqN0JWNLvwZ4Y00hCqC0qmlY/q8cMyDJixZkjTgF5Sma1dJQ0je9eeoruhhUrtXoGBYliBUujFw+3Vqm5W8IiIiHoj7ytY0WgUL7zwAlatWoW3334bQgjMnDkTCxYswFlnnQVFUfDiiy/iBz/4Ae6++2489dRT+R7SEclKJSBk357bHEkg2ppGYcANI20g+fqjGIlmWNKuPlDcug0AIMuPsp/gK4I8cS5SyTQsCBhxA163hsLM1qJn1GQUHHcuPCMmdPu6UkrIVBx6eRWMyH5I0wQy5aOkadjbgW05UrobgAUIFe5hY6F4/DCjzZDpJCClXRg0QysohpWMA94ioHl73yaFiIioG3kLsP785z9j1apVePXVV5FMJjFlyhR861vfwvnnn4+ioqKcc8877zyEw2H8x3/8R76Gc8SzElEIvWfFLQ3TgiIEhABi8TT2tyTgdWvY25zGx+tewTlKM8KWBzuOmotjav8IEd1vP7EtwAJgWRLRpAmP2y77UFroha7Zq1VCURGcek7nrx1ptLf/hGLXnPIGoBUUwUpGYcXC2fOkmYbqD2ZXnRSXB2qgCHrhsOxWnurxw4g22hXX2xX2VFxeuIePgxWPg4iIKB/yFmDdfPPNGD58OK677jrMmTMH1dXV3Z4/adIkfPGLXzzkdbds2YL7778fGzduhN/vx5w5c3DbbbcdMlm+qakJS5cuxdq1a9Hc3IyRI0fiqquuwpVXXtmr9zUYSSMNK2knuB9KuDWFfftjUBQBTVUQjacBSOipCJ57dReu1TcCAPZXno7PTRoFWfFF4I3lgLcQCB7IWWpNGvB7dYyqKICUEi7t0PW1pJSAlHCVjoSUEqrbB8UbgKK7obh8MMONB87N1L9qo7i88Awfn7MFqvgCsJr2QnV57UT4drgdSERE+ZS3AGv58uU4+eSTe3x+TU0Nampquj2npaUF8+bNQ1VVFR588EHU1tZi8eLFSCQSWLRoUbfP/cY3voGtW7fi9ttvx/Dhw7F27Vp897vfhaqquPzyy3s8zsHIjDXDSieguYu7PS8WT2NPfRSmKaGqAqmUBZ9Lgf7B81B2/Q03ZWpjmoEKVE07yf6haCTkzPmA5gYyQYslJdKGiYreNmrOJK5rBcUdykXYvfty9zgPDhgPzi9TdK+do6XqPQouiYiInJK3AKs3wVVPrVy5ErFYDA899BAKCwsBAKZp4t5778X8+fNRUVHR6fPq6+vx1ltv4fvf/z4uueQSAMD06dPxj3/8A88999yQDrCkkUaqqRaK7s6pe3WwZMrE3v1RGKZEyJ8JRiwTYuMzEPs+giUFElKH26VCTJkNtEtOl/4SpE2JdCIN05QwTQs+r46gv3dBjbRM+7qdNZlW9Wx41baFeKigSXF5IDQXFJf7kI2riYiInJS3uwiXLl2KOXPmdPn4xRdfjIceeqhX11y7di2mT5+eDa4AYPbs2bAsC+vWrevyeYZh331WUJBboiAQCNjbUkOUtEwYkQZYiah9J14XLEuirrkVrUkDQV9bFrkF8bdnIfZ9BEMq+N/oGXhr/NchZt0BFNtV+aWUiMbTaIokkUqZ0FQFhQE3yot8qCj2Qeuk1la3LBNQtE7vdBSaDqEo9l2BmXINbTWvuiI0HYrb123xVCIionzIW4D1wgsvYObMmV0+fsYZZ2D16tW9uubWrVs75HIFg0GUlZVh69atXT5v+PDhOO200/Dwww9j8+bNiEajWL16NdatW4errrqqV2MYLFL1OxHf8QFS9TuhuH3dlkNoiiTQFE4i6HPbuUlSQry/BmLvBzCh4BfRs9AQGIfTJ+YGqK0JA4oCjKooQHVlCOMqQ6gsD2BYqR8Fvt5vyclMGYnOVpvsAEuHNA27qrumHzLAAgC9qAKqv7DXYyEiIjocedsi3Lt3L0aPHt3l4yNHjsSePXt6dc1wOIxgsGOvvFAohJaWlm6f++CDD2LhwoW44IILAACqquKee+7BrFmzejWG9qSUaG1t7fPzDxbP3NUWP8y726RpINWwDzANCLcXAirSiUTH86RE0+b3kfznm/CWjIcxYjJMy4D44E9wN2+HBLAieho+SlfipmlBpNPp7HMN00IskcbI8gB8LkBaaSSTPRibZcKKR6D4OvYDNOOtUH0aZCdzKqWFlGEAqRSkZdg9E+Md31NHmp261ck1nZpv6hnOd//hXPcvznf/yud8d9XTti/yFmD5fD7s3r27y8d37doFt9udr5fPIaXE3Xffje3bt+M///M/UVZWhvXr1+OBBx5AKBTKBl29lU6n8eGHHzo8WmD79u2H9XyRikFt2g3p9ufkSh0sHEuhYtMf4TLjcLXsBLa+kn0sJVWsjE3HxlQVaoZLuNL12LPXfswwgXjSRNCvYr9sRmMvPowiFQeMBKQnaOdaGSkIaUHqHohEBJa/CFZj55Ga0rwXSioGYZkwA2Vdntdbhzvf1Duc7/7Due5fnO/+la/5dqqFX94CrJNOOglPPPEErrzyyg7J53v37sUTTzzR60T4YDCISCTS4XhLSwtCoa7bmLz66qtYs2YN/vCHP2DixIkA7CT8hoYGLF68uM8Blq7rGD9+fJ+e25l4PI7t27ejqqoKXm/fe96lm/bB9ANqQUmX5zRFkpD734VuxiF1L6LwoSDdAFMK7DaL8Wf1DJQfNQy3VnowPKRlInqJcGsKihAo8LlQVuiFS+/dLrMZaQJUNZuAbkYbIS0LWrAUZqQBWtloaKHyzt9XYwhG3XYoBSXQy0Yfdl9Ap+abeobz3X841/2L892/8jnfTnaUyVuA9Y1vfANf/vKXccEFF+Cyyy7LBiKffPIJnn76aUgp8Y1vfKNX16yuru6QaxWJRFBfX99tna3NmzdDVVVMmJBbOXzy5Ml46qmnEI/H+/Q/SQgBn8/5BGqv19vn60ppQexPQAaCUD2eTs8Jt6bQEE4jWPs3AEBy5In47sYqmJaFyZV+fOnEIlxX0DG/qSWWRDDgw/BSP3xurU/LqOmUDkX3QGgaFN0DI+kCFAWqywXT7YbbXwCti/dumMUwVQG9dCQU3bnVz8OZb+o9znf/4Vz3L853/8rHfDtZIzFvAVZ1dTUee+wx3H///Vi2bFnOYyeeeCK+/e1vY9y4cb265syZM/Hwww/n5GKtWbMGiqJgxowZXT6vsrISpmni448/xqRJk7LHN23ahJKSkiH1Lw6ZjEOm4lDcnd81KKVEUzgBNbwbangvpKLi9cRRMKw0Rpd48LWzyjr9gEVa03BpKkaU+uHz9KwifIfXNtJQVN3etrQs+5gAFFWDNNOQ6FjLqj01UAStoPtaXkRERJ8Fee1FOGnSJDz66KNobGzErl27ANjJ7cXFffuSnDt3LlasWIEFCxZg/vz5qK2txZIlSzB37tycbch58+Zhz549ePHFFwHYgdmIESNw6623YsGCBSgvL8frr7+O3/3ud7jlllsO/41+hpiJKKRhQPgPBEFtzZY9Lg3xpIFILIXQp+sBANbwY/DKJyYA4Myjg50GV2nTgiUtVJQE+xxcAXbDaaG7ISEhMwGWgH2HoEyn7Dsdu6lXxerrREQ0WOS92TMAFBcX9zmoai8UCmH58uW47777sGDBAvj9flx22WVYuHBhznmWZcE0zezPgUAAy5Ytw9KlS/GjH/0IkUgEI0eOxF133YWrr776sMeVD9IyD33SQYxIA9L7d0G4crcGw61p7N0fRWHAA8uyoDVshdKwDVKoeN06FtGEhUKfiprRnS+1RltTKAp6DtTI6iOZTkItKIaViEGa9h2AEnaAZcajUDQXhMqCoERENPjlPcDat28fPvjgA0QikU6Lel588cW9ut64ceM6bDkebMWKFR2OjRkzBj/5yU969VoDxUq2IlG/rddBlkwnoLi8OYU1U4aF+qZWGIaFuqYYVCEQ3P4aAOCN9CQ8s8k+b+bkIFTlwAqRadqrXoZpQddUlIa8PVpB6uwW13RzXeZuRru/oEwnIFNtK1gCQtEgjTTg8na7RUhERDRY5O3bLJlM4s4778Sf/vQnWJYFIUQ2wGr/BdzbAOuIYJl29fUu8qi6oniDOcU3LUuioSWOWDyNogI3LAtI7HwfSrQeMcuFP0SOQcCtYObkIM6YdKCIqGFKhGNJBP0ueN0eeD0avO5Df1TMRAxWPAotWJINlKRpQNF0qMFSWMk4FI8PIh6GtCx7m1AICM0FoWmAqgIKAywiIhr88vZt9uMf/xgvvvgibrvtNkybNg3XXHMNFi9ejPLycixfvhx1dXX4wQ9+kK+XHxIUd9+T76WU2N8Sx/6mOAI+F4QQUFWgYdsnKADwTmocTjumHOccE4RLs0stxOJppAx71aw05EVFSe/a3UgjBTVQBDPaBLWgGEJR7arrqg5XSSWgKHaVdkUDpLTb8QgBxeWBoupQVJ15VkRENCTkLcB64YUXcMkll+DGG29EU1MTAKCiogLTp0/HqaeeimuvvRaPPfYY7r333nwNYdBLpk3E4mkoQiDTwSbr4DhECAEJwDQtSClhmBbqmuLwqibcH74EqBqaRp8FX2QnoAIjJ0zA2CmF2eenTQuGJTG8xA+XriLgc+VsGfaIZUL1FUBoGsxoE7SCkmzfQKgHyjoomg5Iy35Digrh8gKqDuFg6QUiIqKBlLcAq6GhATU1NQAAT6YeU/uy9rNmzcJ///d/M8DqgmVJ1DXG0BBOQlXs7VUBO0CRyGy1Ah1+d+D3An4zDPffn4aI1gMA3q8rxEw1DAsCVROPynm9ZMqE36OhtLBnuVZdsXPA/DAijfZYTQOqtyD3mkKxF7CkCUBA6C77l+ZM9VwiIqKBlrcAq7S0NLty5fV6EQqFsG3btuzj0WgUyZ40rztCReNpNLcKFPrdUNU+BDymAbH2CYjWpuyhYyNrAQVI+8qhH1QFPWWYKC/qe3Bl59cJu1mzpmdqWxmAaUDx5N6dKBTFDhUtmd02VH0hR4uHEhERDaS8BVg1NTV49913sz+fddZZ+NWvfoWysjJYloVly5Zh6tSp+Xr5Qc0wLDRHElB1T9+CKwDY/leI1ibEFT9Who/H9YG1CCn2CqJrWDXa389pmhKqosB7GDWuYJkQqgqhZbb6NBekkQIEINSDrisUSGFXnYeiAEKBq2RE31+biIjoM6Z3jeR64ZprrsHIkSORSqUA2K1zCgoK8P/+3//DXXfdhYKCAnz729/O18sPavGUgXjChN/bx/g31Qqx+XUAwNPhqfh7agxa9aLsw7J4TM7piZQBr1uFR+95DSppmTllN6RpAIoGoeoQigrF7YOVTgIQOXc2ArAT3e2LQAiVie1ERDTk5G0F64QTTsAJJ5yQ/Xn48OF4/vnn8c9//hOKoqC6uhqaxlvyuyIhofQl8Ii3QPx9FYSRxE6jGO+kqvHlU0rgUY4DPnoJUgiYhaMQjaVgmZa9wiQligMeCGmiJx8JaaRhRJsAoUDzh+xK7JZpl1nIlGdQPX4YjfuguL0dAiwIxc4nsyy7PAMREdEQk5dvt3g8jm9+85s499xzcdFFF2WPK4qS0wuQumeYEqbVsTgrYKexSwmYloRh2UVBox/9FWMb18OFNAyp4JnWEzHnhGJMP6oASE2F3P0PyMKRaEkCRUEdQZ8bmiqQDu+Hz2XAbA1D6G6onq7rb0kpYcSaoRcPB6REuqUWmq/QzrVyH0hmF7onE3DpHZPXFQVQxIE7DImIiIaYvHy7eb1erF+/HjNnzszH5Yc2aSH19jNQdmzDJy0SnRS/71SxEsVErRkAsDVdhpWx6ThuyhicMdluig2XD3LmfIRjKQTcKoaXBKBrCqS0YJpuuIdVw0xEYTTXAZ0EWFY6CZmKQ5omFE8AevFwCE2HlU7CSrXaBUXbJc4ruhuK5oKiuw5sCWYIoUAIFZaVZGFRIiIakvL27Xb88cdj48aNuPzyy/P1EkOSEg/D/HAtQgBCvcw5T0LHjtLTkBwxDdcV6BhWmLtylEyaEEKgosgHPVNc1F5F0rN3+qWtfdnz27e9MVsjdoV2oUALlmTv+NMKipHc14y2cgtthO4CNB3C3Ul/Q0WxC3mZpl0Ti4iIaIjJW4C1aNEifPWrX8XSpUtx5ZVXYtiwYfl6qSHF8hVi2+Rr8cbbn0BTBS6YVghXF3cSCiGgCNjBihDQS8dhvCfQ6bmmJRFLpjGi1I+A70AgJI20XQRUc0FxSyia3RdQmmkY0RboReWAlBCqAr2oAqq3IOe6iscPRdNhGemcuwXt0gtBKK6OpRdE5s5BKWSmRyEREdHQkrcA66KLLoJpmnjkkUfwyCOPQFVVuFy5KypCCGzYsCFfQxiUTEvi/za5UZc6CrOPDcE7rtCR60ZaUwgF3CgOeQ56wTQUX9DextPdgO7JbPsloBYUwkrE7KR0ly+niXQbxe2FcPkgrGiHcgyu4hH2atXBhGLXv4LSYfuQiIhoKMhbgDVr1izeft8HzVEDdc1J+F04kD91GJIpE7FkGl6XhvJiH9SDAh5pmtmm0vaqUwHS9TuhuLzQfEGkG/ZACgFXaGSnwZC9ZViMtJHqkLDe4e7BtuNKpjRDZiWLiIhoqMlbgLV48eJ8XXpIKwnq+NrsKujNu+DWDy/4iCcNpAwLw4r9KAy44XZ1tlokcyqoq24/0kKBGiiEFiqHEW4EjBTULrYeAUD1BGB6A10GVJ1SNAhF2NuFREREQwy/3T6DTppYjIqCvv2vsaRE2rTQmjSQMkyMKPWjotjXaXAlLcve/muXnK64vVB9IWgFJVBcHqgFRRBub4d2N+0pHj/cw8b2arvPXu1SOt9CJCIiGuTytoL17LPP9ui8iy++OF9DOKJYlkQiZSCZMqFrKhQVGFbsQ1FB1/39pJnO9A5sd/efywtXaSUUn53MrofKoHr8HdvdHET0cqtPqJrdk5BbhERENATlLcC66667unysfW4WA6yuJZMmWlNpu+o5kNM/UAi0a1Vj302o6woqywMIeF1QVQFN7T54kUYaQnPlBlhCQPWHsj8r7s6T2w+XULVssjsREdFQk7cA66WXXupwzLIs7Nq1C48//jj27NmDH/zgB/l6+SEhlkxjWIkfLs3eepOZEEtAtFVmADKlGlRFQNfUbH2rNmasGVBUKC5vhyR0aaah+oMDcjOCUDVAUe1fREREQ0zeAqzKyspOj48aNQrTp0/HjTfeiEcffRTf+c538jWEQc/r1lAc9HQImnrKMlIABISqw4g2QvMXZRPRpWlAWiZU7+HfqdgnigKoKrcIiYhoSBqwb7czzzwTq1evHqiX/8xTVQXFQXevgysrnYI0DQCATCUg3D64K4+C4vJBWkb2PDPWDD1YCjVQ6OSwe0wI1U6K5xYhERENQQPWCG7nzp1IpVID9fKfaQL26pUfrTAiiR4/T1omFN0NM52EHiqDZaTgKhpuJ6irqn3XIAAr2Qqhue1+ggO1RScUCFXnChYREQ1JeQuw3n777U6Ph8NhvPPOO1ixYgU+//nP5+vlBzV/QQDecePg0XsX/AhVh+r2IrlvG8xEDEIo9h2AQkDR3LASUQB242YtWJKX5PWeUr0BCJX5V0RENDTlLcC65pprOk2ellJCVVWcd955uOeee/L18oOa6nKjoLCq788PliBVuwNqIATF7QVgV1WXlmmfYFlQdE83V8g/oelQ2eiZiIiGqLwFWL/5zW86HBNCIBgMorKyEoFA15XB6fDoBcUwW+qh+kPZOweF5gLaAizIDncUEhERkXPy9i170kkn5evSdAiKxw+tsAKq90AQKzQNbWWzJAAwwCIiIsqbvGUY79y5Ey+//HKXj7/88svYtWtXvl7+iOcqrcwpGCoUDRB2exwhFK5gERER5VHevmWXLFmCaDSKs88+u9PHH3vsMQSDQSxdujRfQ6B2hKrZ9eAtE0JRGWARERHlUd5WsDZu3IhTTz21y8enT5+Od955J18vTwdpqzllGSmAARYREVFe5S3ACofD8Pv9XT7u8/nQ3Nycr5eng6kahKJBGim7PILCAIuIiChf8hZgDR8+HO+++26Xj2/YsAHDhg3r9XW3bNmC66+/HlOnTsWMGTOwZMmSQxYsfeuttzBx4sROf5133nm9HsNgJDJ9/2Q6BaG5B6T/IBER0ZEib8sYF154IX72s5+hpqYGV199NZRMSxTTNPHoo49i9erVuOmmm3p1zZaWFsybNw9VVVV48MEHUVtbi8WLFyORSGDRokVdPu9zn/scnnjiiZxj0WgUN9xwA2bOnNn7NzcYKSqEokCaaQiXe6BHQ0RENKTlLcCaP38+NmzYgAceeAAPP/wwxo4dCwDYtm0bGhsbcdJJJ+HrX/96r665cuVKxGIxPPTQQygsLARgB2z33nsv5s+fj4qKik6fFwgEMHXq1JxjzzzzDCzLwoUXXtjr9zYYCSEgNDcgBBTNNdDDISIiGtLytkXocrnw61//Gt/73vdQU1ODpqYmNDU1oaamBg888ACWLVsGl6t3X/Rr167F9OnTs8EVAMyePRuWZWHdunW9utYf//hHVFVVoaamplfPG8yEpmfuIGQFdSIionzKa6azoii49NJLcemllzpyva1bt3a4VjAYRFlZGbZu3drj6+zfvx9vvvlmr1fQBjtFd9vlGngHIRERUV7l7Zu2ubkZ+/btw6RJkzp9/OOPP8awYcMQCoU6fbwz4XAYwWCww/FQKISWlpYeX2f16tUwTfOwtwellGhtbT2sa7QXj8dz/us0M5VG2rAgkykowrlxD1b5nm/KxfnuP5zr/sX57l/5nG8ppWM3geUtwPr+97+Pbdu24cknn+z08e985zuorq7GAw88kK8hdGnVqlX43Oc+l80L66t0Oo0PP/zQoVEdsH37dsevCQAiEYUSa4AZEwC3CbPyNd/UOc53/+Fc9y/Od//K13z3Nn2pK3kLsN58801ceeWVXT5+1llnYeXKlb26ZjAYRCQS6XC8paWlxythn376Kd577z3cfffdvXrtzui6jvHjxx/2ddrE43Fs374dVVVV8Hq9jl23jRWPwGiug15RZZdtOMLle74pF+e7/3Cu+xfnu3/lc743b97s2LXyFmA1NjaiqKioy8cLCwvR0NDQq2tWV1d3yLWKRCKor69HdXV1j66xatUqKIqC888/v1ev3RkhBHw+32Ff52Berzcv15UeNyyvF6qvwPFrD2b5mm/qHOe7/3Cu+xfnu3/lY76drBGZt7sIy8rK8MEHH3T5+KZNm1BcXNyra86cORPr169HOBzOHluzZg0URcGMGTN6dI3nnnsOJ510EsrLy3v12kOBUFSovo45bEREROSsvAVY55xzDp5++mm89NJLHR7785//jGeeeQbnnHNOr645d+5c+P1+LFiwAK+//jqefvppLFmyBHPnzs2pgTVv3jx84Qtf6PD8Dz74AFu2bDlial8RERHRwMjbFuEtt9yCN954AzfffDMmTZqEo446CgDwySef4KOPPsK4ceNw66239uqaoVAIy5cvx3333YcFCxbA7/fjsssuw8KFC3POsywLpml2eP6qVavgcrkwa9asvr8xIiIiokPIW4BVUFCAJ554Ar/85S/x4osv4oUXXgAAjB49Gv/6r/+Kr371q33aOx03bhyWLVvW7TkrVqzo9Pidd96JO++8s9evSURERNQbea046fP5cOutt/Z6pYqIiIhoMMtbDhYRERHRkSqvK1jJZBIvvPACPvjgA0QiEViWlfO4EGJACo0SERER5VPeAqzdu3fj2muvxe7du7MFQkOhECKRCEzTRFFREeuFEBER0ZCUty3CJUuWIBqN4sknn8SaNWsgpcTSpUuxceNG3HHHHfB4PPjVr36Vr5cnIiIiGjB5C7DaWuXU1NRAUQ68jMvlwte+9jWccsop3B4kIiKiISlvAVYikUBlZSUAIBAIQAiR00dw2rRp2LBhQ75enoiIiGjA5C3AGj58OGprawEAmqahoqICf/vb37KPb968GW63O18vT0RERDRg8pbkfsopp+Cll17CzTffDAD40pe+hEceeQThcBiWZeEPf/gD5syZk6+XJyIiIhoweQuwbrzxRvzjH/9AKpWCy+XCTTfdhLq6OrzwwgtQFAUXXngh7r777ny9PBEREdGAyVuANWLECIwYMSL7s9vtxve+9z1873vfy9dLEhEREX0msJI7ERERkcMYYBERERE5jAEWERERkcMYYBERERE5jAEWERERkcMYYBERERE5jAEWERERkcMYYBERERE5jAEWERERkcMYYBERERE5jAEWERERkcMYYBERERE5jAEWERERkcMYYBERERE5jAEWERERkcMYYBERERE5jAEWERERkcMYYBERERE5jAEWERERkcMGVYC1ZcsWXH/99Zg6dSpmzJiBJUuWIJVK9ei5tbW1uPPOO3HKKaegpqYGs2fPxh/+8Ic8j5iIiIiORNpAD6CnWlpaMG/ePFRVVeHBBx9EbW0tFi9ejEQigUWLFnX73Lq6OlxxxRUYO3Ys7rvvPgQCAXzyySc9Ds6IiIiIemPQBFgrV65ELBbDQw89hMLCQgCAaZq49957MX/+fFRUVHT53B/+8IcYNmwYfvnLX0JVVQDA9OnT+2PYREREdAQaNFuEa9euxfTp07PBFQDMnj0blmVh3bp1XT4vGo3i+eefx1e+8pVscEVERESUT4MmwNq6dSuqq6tzjgWDQZSVlWHr1q1dPm/Tpk1Ip9PQNA1XX301Pve5z2HGjBn44Q9/iHQ6ne9hExER0RFo0GwRhsNhBIPBDsdDoRBaWlq6fN7+/fsBAPfccw8uv/xy3HzzzXjvvffwX//1X1AUBf/2b//W5zFJKdHa2trn5x8sHo/n/Jfyi/Pdvzjf/Ydz3b843/0rn/MtpYQQwpFrDZoAq68sywIAnHrqqbjrrrsAAKeccgpisRh+/etfY8GCBfB4PH26djqdxocffujYWNts377d8WtS1zjf/Yvz3X841/2L892/8jXfLpfLkesMmgArGAwiEol0ON7S0oJQKNTt8wA7qGpv+vTpePjhh7Fjxw5MnDixT2PSdR3jx4/v03M7E4/HsX37dlRVVcHr9Tp2Xeoc57t/cb77D+e6f3G++1c+53vz5s2OXWvQBFjV1dUdcq0ikQjq6+s75Ga1d6gAKJlM9nlMQgj4fL4+P78rXq83L9elznG++xfnu/9wrvsX57t/5WO+ndoeBAZRkvvMmTOxfv16hMPh7LE1a9ZAURTMmDGjy+dVVlZiwoQJWL9+fc7x9evXw+PxOLoCRURERAQMogBr7ty58Pv9WLBgAV5//XU8/fTTWLJkCebOnZtTA2vevHn4whe+kPPchQsX4uWXX8b3vvc9rFu3Dg8//DB+/etf47rrruO/NoiIiMhxg2aLMBQKYfny5bjvvvuwYMEC+P1+XHbZZVi4cGHOeZZlwTTNnGNnn302fvzjH+NnP/sZHn/8cZSXl+OWW27BjTfe2J9vgYiIiI4QgybAAoBx48Zh2bJl3Z6zYsWKTo+ff/75OP/88/MwKiIiIqJcg2aLkIiIiGiwYIBFRERE5DAGWEREREQOY4BFRERE5DAGWEREREQOY4BFRERE5DAGWEREREQOY4BFRERE5DAGWEREREQOY4BFRERE5DAGWEREREQOY4BFRERE5DAGWEREREQOY4BFRERE5DAGWEREREQOY4BFRERE5DAGWEREREQOY4BFRERE5DAGWEREREQOY4BFRERE5DAGWEREREQOY4BFRERE5DAGWEREREQOY4BFRERE5DAGWEREREQOY4BFRERE5DAGWEREREQOY4BFRERE5DAGWEREREQOY4BFRERE5DBtoAfQW1u2bMH999+PjRs3wu/3Y86cObjtttvgcrm6fd7ZZ5+N3bt3dzj+3nvvwe1252u4REREdAQaVAFWS0sL5s2bh6qqKjz44IOora3F4sWLkUgksGjRokM+f9asWfiXf/mXnGOHCsyIiIiIemtQBVgrV65ELBbDQw89hMLCQgCAaZq49957MX/+fFRUVHT7/NLSUkydOjX/AyUiIqIj2qDKwVq7di2mT5+eDa4AYPbs2bAsC+vWrRu4gRERERG1M6gCrK1bt6K6ujrnWDAYRFlZGbZu3XrI569atQrHHHMMpk2bhhtuuAEff/xxvoZKRERER7BBtUUYDocRDAY7HA+FQmhpaen2uWeffTZqamowYsQI7Ny5Ew8//DC+8pWv4Nlnn8WoUaP6NB4pJVpbW/v03M7E4/Gc/1J+cb77F+e7/3Cu+xfnu3/lc76llBBCOHKtQRVgHY577rkn+/sTTjgBM2bMwOzZs/GrX/0K3/3ud/t0zXQ6jQ8//NChER6wfft2x69JXeN89y/Od//hXPcvznf/ytd8O3Xz26AKsILBICKRSIfjLS0tCIVCvbpWeXk5jj/+eGzatKnP49F1HePHj+/z8w8Wj8exfft2VFVVwev1OnZd6hznu39xvvsP57p/cb77Vz7ne/PmzY5da1AFWNXV1R1yrSKRCOrr6zvkZvUHIQR8Pp/j1/V6vXm5LnWO892/ON/9h3Pdvzjf/Ssf8+3U9iAwyJLcZ86cifXr1yMcDmePrVmzBoqiYMaMGb26Vm1tLTZs2IApU6Y4PUwiIiI6wg2qFay5c+dixYoVWLBgAebPn4/a2losWbIEc+fOzamBNW/ePOzZswcvvvgiAOCPf/wjXnnlFZxxxhkoLy/Hzp078cgjj0BVVVx//fUD9XaIiIhoiBpUAVYoFMLy5ctx3333YcGCBfD7/bjsssuwcOHCnPMsy4JpmtmfR44cibq6OjzwwAOIRCIoKCjAKaecgltvvbXPdxASERERdWVQBVgAMG7cOCxbtqzbc1asWJHz89SpUzscIyIiIsqXQZWDRURERDQYMMAiIiIichgDLCIiIiKHMcAiIiIichgDLCIiIiKHMcAiIiIichgDLCIiIiKHMcAiIiIichgDLCIiIiKHMcAiIiIichgDLCIiIiKHMcAiIiIichgDLCIiIiKHMcAiIiIichgDLCIiIiKHMcAiIiIichgDLCIiIiKHMcAiIiIichgDLCIiIiKHMcAiIiIichgDLCIiIiKHMcAiIiIichgDLCIiIiKHMcAiIiIichgDLCIiIiKHMcAiIiIichgDLCIiIiKHMcAiIiIichgDLCIiIiKHMcAiIiIicpiQUsqBHsRg9O6770JKCZfL5dg1pZRIp9PQdR1CCMeuS53jfPcvznf/4Vz3L853/8rnfKdSKQghcNxxxx32tTQHxnNEyscfIiGEowEbdY/z3b843/2Hc92/ON/9K5/zLYRw7PudK1hEREREDmMOFhEREZHDGGAREREROYwBFhEREZHDGGAREREROYwBFhEREZHDGGAREREROYwBFhEREZHDGGAREREROYwBFhEREZHDGGAREREROYwBFhEREZHDGGB9BmzZsgXXX389pk6dihkzZmDJkiVIpVIDPaxB75lnnsHEiRM7/PrRj36Uc95TTz2FWbNmYcqUKbjooovwyiuvDNCIB5cdO3Zg0aJFmDNnDo4++mhceOGFnZ7Xk/mNRCL41re+hZNOOgnTpk3Drbfeirq6uny/hUGlJ/N9zTXXdPqZ37JlS855nO/uPf/88/j617+OmTNnYurUqZgzZw5++9vf4uDWvfxsO6Mn8z0YP9vagLwqZbW0tGDevHmoqqrCgw8+iNraWixevBiJRAKLFi0a6OENCb/85S9RUFCQ/bmioiL7++eeew7//u//jptuugmnnHIKVq9ejZtvvhmPPfYYpk6dOgCjHTw++eQTvPbaazj22GNhWVaHLx+g5/N72223YfPmzfjud78Lt9uNn/zkJ7jhhhvw9NNPQ9P41xTQs/kGgOOOOw533nlnzrGRI0fm/Mz57t6yZctQWVmJu+66C0VFRVi/fj3+/d//Hfv27cPNN98MgJ9tJ/VkvoFB+NmWNKAefvhhOXXqVNnU1JQ9tnLlSjl58mS5b9++gRvYEPD000/LCRMmyIaGhi7POffcc+Xtt9+ec+yKK66QX/va1/I9vEHPNM3s7++88055wQUXdDinJ/P77rvvygkTJsi//OUv2WNbtmyREydOlM8991weRj449WS+r776annjjTd2ex3O96F19nfGPffcI4877rjs/wd+tp3Tk/kejJ9tbhEOsLVr12L69OkoLCzMHps9ezYsy8K6desGbmBHgJ07d2L79u2YPXt2zvHzzz8fb7zxBrdpD0FRuv/ro6fzu3btWgSDQcyYMSN7TnV1NSZPnoy1a9c6P/BB6lDz3VOc70MrLi7ucGzy5MmIRqNobW3lZ9thh5rvnvqszTcDrAG2detWVFdX5xwLBoMoKyvD1q1bB2hUQ8uFF16IyZMn4/Of/zz+53/+B6ZpAkB2fseOHZtz/rhx45BOp7Fz585+H+tQ0tP53bp1K8aOHQshRM551dXV/DPQB3/9618xdepUTJkyBVdffTXefvvtnMc5332zYcMGVFRUIBAI8LPdD9rPd5vB9tnmBvAAC4fDCAaDHY6HQiG0tLQMwIiGjrKyMtxyyy049thjIYTAyy+/jJ/85Ceora3FokWLsvN78Py3/cz5Pzw9nd9wOJyTI9cmFArh/fffz/Moh5YTTzwRc+bMQVVVFerq6vCrX/0K119/PVasWIFp06YB4Hz3xTvvvIPVq1dn83/42c6vg+cbGJyfbQZYNGSdfvrpOP3007M/n3baaXC73Vi+fDluuummARwZUX7ceuutOT+feeaZuPDCC/Gzn/0Mv/jFLwZoVIPbvn37sHDhQpx88sm49tprB3o4Q15X8z0YP9vcIhxgwWAQkUikw/GWlhaEQqEBGNHQNnv2bJimiQ8//DA7vwfPfzgcBgDO/2Hq6fwGg0FEo9EOz+efgcPn8/lwxhlnYNOmTdljnO+eC4fDuOGGG1BYWIgHH3wwmwfHz3Z+dDXfnRkMn20GWAOss73hSCSC+vr6DrlZ5Ky2+T14/rdu3Qpd1zFq1KiBGNaQ0dP5ra6uxrZt2zqUHdi2bRv/DOQB57tnEokE5s+fj0gk0qHUCz/bzutuvnvqszbfDLAG2MyZM7F+/frsv3wAYM2aNVAUJedOCHLG6tWroaoqjj76aIwaNQpVVVVYs2ZNh3OmT58Ol8s1QKMcGno6vzNnzkRLSwveeOON7Dnbtm3DBx98gJkzZ/brmIea1tZWvPrqq5gyZUr2GOf70AzDwG233YatW7fil7/8ZU7tPICfbacdar47Mxg+28zBGmBz587FihUrsGDBAsyfPx+1tbVYsmQJ5s6d26MPGXXtq1/9Kk4++WRMnDgRAPDSSy/hySefxLXXXouysjIAwC233II77rgDo0ePxsknn4zVq1fjvffew6OPPjqQQx8U4vE4XnvtNQDA7t27EY1Gs184J510EoqLi3s0v9OmTcNpp52Gb33rW7jzzjvhdruxdOlSTJw4Eeeee+6AvLfPokPNd9uX0xe+8AVUVlairq4O//u//4v6+nr89Kc/zV6H831o9957L1555RXcddddiEaj+Nvf/pZ97Oijj4bL5eJn20GHmu/33ntvUH62hTx4LY363ZYtW3Dfffdh48aN8Pv9mDNnDhYuXMgVlMN0//334y9/+Qv27dsHy7JQVVWFL3/5y7jmmmtybuN96qmn8Itf/AJ79uzB2LFjcfvtt+Oss84awJEPDrt27cLnP//5Th/7zW9+g5NPPhlAz+Y3Eong+9//Pl588UUYhoHTTjsN99xzD/+R0c6h5nvYsGH4j//4D3z88cdobm6G1+vFtGnTcPPNN6OmpibnfM53984++2zs3r2708deeumlbPVwfradcaj5Nk1zUH62GWAREREROYw5WEREREQOY4BFRERE5DAGWEREREQOY4BFRERE5DAGWEREREQOY4BFRERE5DAGWEREREQOY4BFRERE5DAGWEREefbggw9i4sSJaGxsHOihEFE/YYBFRERE5DAGWEREREQOY4BFRERE5DAGWEQ0ZNTW1uLuu+/GqaeeimOOOQYXXHABfvvb32Yff+uttzBx4kSsXr0aP/7xjzFjxgxMnToVN910E/bu3dvhes8//zwuueQS1NTU4OSTT8Ydd9yB2traDudt2bIF3/jGN3DKKaegpqYGs2bNwtKlSzucF4lEcNddd+GEE07A8ccfj7vvvhvxeNzZSSCizwRtoAdAROSE/fv34/LLL4cQAldddRWKi4uxdu1afPvb30Y0GsV1112XPffnP/85hBC44YYb0NDQgOXLl+O6667D73//e3g8HgDAM888g7vvvhtTpkzB7bffjoaGBvzmN7/Bu+++i2effRbBYBAA8NFHH+Gqq66Cpmm44oorUFlZiU8//RQvv/wyFi5cmDPG2267DSNHjsTtt9+ODz74AE899RSKi4vxzW9+s9/miYj6BwMsIhoSli5dCtM0sWrVKhQVFQEArrzyStx+++146KGHMHfu3Oy5LS0tWL16NQKBAADg6KOPxm233YYnn3wS1157LdLpNH70ox9hwoQJeOyxx+B2uwEAxx9/PObPn49ly5bh1ltvBQDcf//9kFLid7/7HUaMGJF9jTvuuKPDGCdPnowHHngg+3NzczN++9vfMsAiGoK4RUhEg56UEn/6059w9tlnQ0qJxsbG7K/TTjsNkUgEmzZtyp5/8cUXZ4MrADjvvPNQVlaG1157DQDw/vvvo6GhAVdeeWU2uAKAM888E9XV1Xj11VcBAI2NjXj77bdx6aWX5gRXACCE6DDO9kEeAJxwwglobm5GNBo97Dkgos8WrmAR0aDX2NiIcDiMJ554Ak888USX57Rt640ZMybnMSEExowZg927dwMA9uzZAwAYO3Zsh+tUV1djw4YNAICdO3cCACZMmNCjcR4chLWNp6WlJSfgI6LBjwEWEQ16lmUBAC666CJ86Utf6vSciRMnYvPmzf05rA4UpfNNAyllP4+EiPKNARYRDXrFxcXw+/2wLAunnnpql+e1BVg7duzIOS6lxI4dOzBx4kQAB1aatm3bhunTp+ecu23btuzjo0aNAgD885//dOaNENGQwRwsIhr0VFXFrFmz8MILL3Qa7BzcoubZZ5/NyXtas2YN6uvrMXPmTADAMcccg5KSEqxcuRKpVCp73muvvYYtW7bgzDPPBGAHdieeeCKefvrp7LZiG65KER3ZuIJFREPCv/3bv+Gtt97C5Zdfji9/+csYP348WlpasGnTJrzxxhv461//mj03FArhK1/5Ci655JJsmYYxY8bg8ssvBwDouo477rgDd999N66++mpccMEF2TINlZWVOSUf7rnnHlx55ZX40pe+hCuuuAIjR47E7t278eqrr+L3v/99f08DEX1GMMAioiGhtLQUTz31FP77v/8bL774Ih5//HEUFhZi/PjxHUom3HTTTfj444/xyCOPIBaLYfr06fjOd74Dr9ebPeeSSy6Bx+PBL37xC/zoRz+Cz+fDOeecg29+85vZ5HQAmDRpEp588kn89Kc/xeOPP45kMokRI0Zg9uzZ/fbeieizR0iuYxPREeKtt97Ctddei5/+9Kc477zzBno4RDSEMQeLiIiIyGEMsIiIiIgcxgCLiIiIyGHMwSIiIiJyGFewiIiIiBzGAIuIiIjIYQywiIiIiBzGAIuIiIjIYQywiIiIiBzGAIuIiIjIYQywiIiIiBzGAIuIiIjIYQywiIiIiBzGAIuIiIjIYQywiIiIiBzGAIuIiIjIYQywiIiIiBzGAIuIiIjIYQywiIiIiBzGAIuIiIjIYf8fGJLBbx8PN2QAAAAASUVORK5CYII=;" parent="1" vertex="1">
                    <mxGeometry x="710" y="200" width="600" height="400" as="geometry"/>
                </mxCell>
            </root>
        </mxGraphModel>
    </diagram>
</mxfile>